SplineFontDB: 3.0
FontName: Experiment-Latin-Italic
FullName: Experiment-Latin
FamilyName: Experiment-Latin
Weight: Italic
Copyright: Copyright (c) 2015, Pathum Egodawatta
UComments: "2015-9-29: Created with FontForge (http://fontforge.org)"
Version: 0.001
ItalicAngle: -10
UnderlinePosition: 100
UnderlineWidth: 49
Ascent: 1000
Descent: 0
InvalidEm: 0
LayerCount: 5
Layer: 0 0 "Back" 1
Layer: 1 0 "Fore" 0
Layer: 2 0 "Back 2" 1
Layer: 3 0 "Back-w" 1
Layer: 4 0 "Back 3" 1
PreferredKerning: 4
XUID: [1021 779 -1439063335 14876943]
FSType: 0
OS2Version: 0
OS2_WeightWidthSlopeOnly: 0
OS2_UseTypoMetrics: 1
CreationTime: 1443542790
ModificationTime: 1465411204
PfmFamily: 17
TTFWeight: 400
TTFWidth: 5
LineGap: 122
VLineGap: 0
OS2TypoAscent: 129
OS2TypoAOffset: 1
OS2TypoDescent: 0
OS2TypoDOffset: 1
OS2TypoLinegap: 122
OS2WinAscent: 129
OS2WinAOffset: 1
OS2WinDescent: -161
OS2WinDOffset: 1
HheadAscent: 29
HheadAOffset: 1
HheadDescent: 183
HheadDOffset: 1
OS2Vendor: 'PfEd'
Lookup: 258 0 0 "'kern' Horizontal Kerning in Latin lookup 0" { "'kern' Horizontal Kerning in Latin lookup 0-1" [150,15,0] } ['kern' ('DFLT' <'dflt' > 'latn' <'dflt' > ) ]
MarkAttachClasses: 1
DEI: 91125
KernClass2: 3 2 "'kern' Horizontal Kerning in Latin lookup 0-1"
 11 a n i d l m
 0 
 1 g
 0 {} 0 {} 0 {} -53 {} 0 {} 0 {}
LangName: 1033
Encoding: iso8859-7
Compacted: 1
UnicodeInterp: none
NameList: Adobe Glyph List
DisplaySize: -72
AntiAlias: 1
FitToEm: 1
WinInfo: 0 12 6
BeginPrivate: 0
EndPrivate
Grid
-1000 612 m 0
 2000 612 l 1024
-1000 870 m 0
 2000 870 l 1024
-1000 -278 m 0
 2000 -278 l 1024
-1000 52 m 4
 2000 68 l 1024
2000 766 m 1024
-1000 1143 m 0
 2000 1143 l 1024
EndSplineSet
AnchorClass2: "thn_ubufibi" "" 
BeginChars: 372 290

StartChar: a
Encoding: 97 97 1
AltUni2: 0000aa.ffffffff.0
GlifName: uni0061
Width: 658
VWidth: 79
Flags: HMW
LayerCount: 5
Back
SplineSet
402.494140625 66.8125 m 5
 402.260742188 15.42578125 421.3359375 -24.0283203125 483.03125 -24.0283203125 c 4
 546.95703125 -24.0283203125 597.576171875 -1.8876953125 626.700195312 16 c 5
 631.264648438 26.3671875 632.182617188 38.041015625 629.700195312 54 c 5
 618.63671875 52.5087890625 608.029296875 51.755859375 597.93359375 51.755859375 c 4
 528.805664062 51.755859375 499.393554688 76.7529296875 499.62890625 152.68359375 c 5
 499.62890625 301.87109375 557.858850475 513.901344019 578.56640625 591 c 5
 564.403320312 611 l 5
 564.403320312 611 561.641447443 611.075195312 556.645507812 611.075195312 c 4
 259.816785689 611.075195312 32.3134765625 408.75390625 32.3134765625 146.18359375 c 4
 32.3134765625 54.6591865272 84.0774627945 -11 181.206054688 -11 c 4
 355.555664061 -11 453.458984375 274 453.458984375 274 c 5
 443.12109375 332 l 5
 424.767578125 259.442382812 321.215378587 87 209.306640625 87 c 4
 151.838398094 87 138.483398438 136.651367188 138.483398438 187.880859375 c 4
 138.483398438 370.015625 251.858398438 508.03515625 357.250976562 526.07421875 c 4
 459.918945312 543.646484375 527.010682935 480.626618278 532.916015625 472 c 5
 562.54296875 578 l 5
 554.768236067 575.657018253 543.088257534 574.686523438 534.923828125 574.686523438 c 4
 529.150427618 574.686523438 525.521066624 575.990526781 525.500976562 576 c 6
 480.965820312 597 l 5
 478.142578125 481 444.888671875 343 425.40625 246 c 5
 442.458984375 250 l 5
 425.36328125 194.030273438 403.494140625 106.330078125 402.494140625 66.8125 c 5
EndSplineSet
Fore
SplineSet
400.494140625 62.8125 m 0
 398.858972197 17.6195734865 418.86803402 -18.0283203125 479.03125 -18.0283203125 c 0
 542.95703125 -18.0283203125 593.576171875 4.1123046875 622.700195312 22 c 1
 627.264648438 32.3671875 628.182617188 44.041015625 625.700195312 60 c 1
 614.63671875 58.5087890625 604.029296875 57.755859375 593.93359375 57.755859375 c 0
 514.805664062 57.755859375 494.499263111 93.959956754 495.62890625 158.68359375 c 0
 498.479492187 319.774035871 563.858398438 514.956750446 584.56640625 591 c 1
 570.403320312 611 l 1
 570.403320312 611 567.641601562 611.075195312 562.645507812 611.075195312 c 0
 245.218989758 611.075195312 31.3134765625 369.369140625 31.3134765625 141.18359375 c 0
 31.3134765625 64.26171875 71.8330078125 -15 179.206054688 -15 c 0
 351.641601562 -15 445.458984375 255 445.458984375 255 c 1
 438.12109375 336 l 1
 419.767578125 259.445564917 325.215820312 83 213.306640625 83 c 0
 158.838867188 83 134.483398438 127.651367188 134.483398438 178.880859375 c 0
 134.483398438 319.889648438 257.044924217 534.358992033 408 530.727539062 c 0
 483.96484375 529.012601974 524.094726562 470.462821952 528.916015625 464 c 1
 568.54296875 578 l 1
 560.768554688 575.657226562 549.087890625 574.686523438 540.923828125 574.686523438 c 0
 535.150390625 574.686523438 531.522218857 575.992246685 531.500976562 576 c 2
 473.965820312 597 l 1
 471.142578125 481 440.888671875 343 421.40625 246 c 1
 434.458984375 234 l 1
 418.750737659 175.644049846 402.288577077 110.72788965 400.494140625 62.8125 c 0
EndSplineSet
Layer: 3
SplineSet
48 130 m 0
 44.80859375 340.685546875 206 523 394 581 c 0
 499.804153805 613.641707025 593 611 593 611 c 1
 611 591 l 1
 594 536 551 426 529 305 c 0
 522 269 517 223 517 185 c 0
 517 71 566 51 659 68 c 1
 654 29 l 1
 616.01953125 9.619140625 569.150390625 -13.3212890625 506 -14.0595703125 c 0
 426.434570312 -14.990234375 414.447265625 24.2353515625 430 102 c 0
 439 147 449 199 464 246 c 1
 463 253 446 241 445 249 c 1
 465 346 493 481 492 597 c 1
 547 576 l 1
 546 574 576 574 592 578 c 1
 560 472 l 1
 552.324915726 484.977440359 451.590820312 562.073242188 333 508 c 4
 252.23046875 471.171875 177.860351562 344.786132812 166 206 c 0
 160.450195312 141.05859375 177 73 235 73 c 0
 337 73 434 247 457 308 c 1
 471 268 l 1
 471 268 392 -15 192 -15 c 0
 101 -15 49.2755000346 45.7959215231 48 130 c 0
EndSplineSet
Layer: 4
SplineSet
57.32421875 231 m 4
 80.32421875 404 250.110351562 622 563.827148438 599 c 5
 512.653320312 471 l 5
 512.653320312 471 442.1015625 555 345.92578125 527 c 4
 249.749023438 499 184.32421875 373 168.32421875 266 c 4
 152.66796875 162.4140625 177.615234375 78 251.885742188 79 c 4
 360.948242188 80.46875 443.87109375 278 454.782226562 332 c 5
 465.469726562 276 l 5
 431.469726562 172 381.51953125 -18 209.5 -18 c 4
 70.32421875 -18 40.32421875 100 57.32421875 231 c 4
367.43359375 783 m 5
 364.107421875 824 l 5
 495.708007812 824 625.924804688 871 627.8046875 871 c 5
 640.815429688 849 l 5
 629.580078125 809.430664062 613.766601562 762.083007812 596.665039062 682 c 4
 561.366210938 510.98828125 517.534179688 323.15234375 517.939453125 171 c 4
 518.178710938 80.8701171875 577.700195312 45 666.700195312 57 c 5
 661.700195312 18 l 5
 624.700195312 1 565.700195312 -25 504.595703125 -24 c 4
 448.206054688 -23.0478515625 428.858398438 14 427.454101562 59 c 4
 425.088867188 102 444.92578125 200 457.643554688 247 c 5
 442.8046875 266 l 5
 452.75390625 318 507.564453125 612 510.111328125 675 c 4
 512.943359375 765 483.994140625 783 367.43359375 783 c 5
EndSplineSet
EndChar

StartChar: n
Encoding: 110 110 2
GlifName: uni006E_
Width: 723
VWidth: 79
Flags: HMW
LayerCount: 5
Fore
SplineSet
51.8671875 533 m 1
 50.0029296875 545.219726562 51.9443359375 560.12890625 59.8671875 573 c 1
 166.677072052 573.485656738 283.50431144 606 285.131835938 606 c 1
 299.030273438 587 l 1
 280.784179688 520.569335938 242.403320312 372.986328125 221.212890625 289 c 1
 237.212890625 289 l 1
 217.892578125 192 203.482421875 125 205.3828125 -2 c 1
 170.973632812 -7.1259765625 113.75 -14.1298828125 85.22265625 -17.33984375 c 1
 73.8671875 -2 l 1
 101.415039062 76 139.97204474 176.494222645 160.212890625 288 c 0
 202.226272094 499.360935118 196.127898988 533 51.8671875 533 c 1
187.212890625 215 m 1
 254.66015625 456.891601562 419.381835938 613.142578125 539.510742188 611 c 0
 594.311523438 610.022460938 632.06640625 584.568359375 630.419921875 523 c 0
 628.771484375 431.650390625 562.357421875 262.166992188 554.110351562 152 c 0
 547.063476562 57.9833984375 590.40625 42.97265625 677.602539062 58 c 1
 681.629882812 45.333984375 679.470703125 32.66796875 674.602539062 20 c 1
 635.232421875 -4.107421875 559.603515625 -25.9287109375 497.2109375 -24 c 0
 445.54296875 -22.3583984375 420.448242188 6 429.458007812 58 c 0
 440.443359375 119 524.385742188 277 528.473632812 442 c 0
 530.924804688 496 509.916992188 514.9609375 472.454101562 512 c 0
 367.063476562 503.669921875 235.45703125 305 220.212890625 205 c 1
 187.212890625 215 l 1
EndSplineSet
Layer: 3
SplineSet
58 531 m 1
 54 571 l 1
 190 571 325 613 327 613 c 1
 342 594 l 1
 331 561 314 515 292 444 c 0
 277.397849288 396.874877246 255 337 238 289 c 1
 254 295 l 1
 239 198 232 125 235 -2 c 1
 192.163085938 -1.1259765625 127.69140625 -7.1298828125 81 -17.33984375 c 1
 69 -2 l 1
 106 76 166 196 185 288 c 0
 222.049413448 467.397159853 212 531 58 531 c 1
212 208 m 1
 282 456 462 613 587 611 c 0
 647 610 674 586 673 523 c 0
 672.223421929 432.140365705 596.0625 261.576171875 588.295898438 152 c 0
 581.6328125 57.9833984375 627.892136699 42.9730341747 728 68 c 1
 724 32 l 1
 684 7 601 -26 534 -24 c 0
 479.015625 -22.3583984375 452 6 461 58 c 0
 472 119 548 261 555 426 c 0
 557 480 546.997566979 512.542579075 504 513 c 0
 410 514 256 305 241 205 c 1
 212 208 l 1
EndSplineSet
EndChar

StartChar: d
Encoding: 100 100 3
GlifName: uni0064
Width: 668
VWidth: 79
Flags: HMW
LayerCount: 5
Back
SplineSet
45.83984375 231 m 0
 64.791015625 373.767578125 151.440429688 510.470703125 352.19921875 585 c 4
 430.973632812 614.244140625 526.610351562 614 573.96484375 599 c 1
 521.448242188 491 l 1
 521.448242188 491 445.092773438 555.46875 343.1484375 527 c 0
 241.233398438 498.540039062 187.166015625 370 168.716796875 270 c 0
 149.708984375 166.971679688 181.40625 81.611328125 250.098632812 83 c 0
 365.954101562 85.3427734375 469.501953125 346 480.0234375 400 c 1
 492.793945312 350 l 1
 457.74609375 246 376.81640625 -18 193.81640625 -18 c 0
 78.81640625 -18 28.451171875 100 45.83984375 231 c 0
417.459960938 800 m 1
 540.107421875 808 684.986328125 850 684.986328125 850 c 1
 613.36328125 682 531.723632812 259 535.673828125 162 c 0
 539.028320312 79.6328125 579.04296875 65 669.159179688 77 c 1
 674.400390625 33 l 1
 617.81640625 7 529.34765625 -27 473.463867188 -15 c 0
 422.403320312 -4 421.921875 67 427.564453125 99 c 0
 450.020507812 226.325195312 508.862304688 554.19921875 527.771484375 702 c 0
 534.05859375 749 473.3515625 742 401.174804688 741 c 1
 417.459960938 800 l 1
EndSplineSet
Fore
SplineSet
237.583984375 75.9912109375 m 4
 357.473839742 75.9912109375 439.936523438 294.880859375 450.782226562 353 c 5
 459.469726562 265 l 5
 426.379257785 161 342.734375 -18 195.5 -18 c 4
 76.8056640625 -18 38.0263671875 70.298828125 38.0263671875 157.346679688 c 4
 38.0263671875 363.943359375 198.984375 613.678710938 506.612304688 613.678710938 c 4
 521.3359375 613.678710938 536.407226562 613.130859375 551.827148438 612 c 5
 497.653320312 485 l 5
 497.653320312 485 459.709960938 541.713867188 380.444335938 541.713867188 c 4
 232.807617188 541.713867188 146.857421875 334.740234375 146.857421875 199.779296875 c 4
 146.857421875 135.262695312 171.204813851 75.9912109375 237.583984375 75.9912109375 c 4
501.295898438 688.19921875 m 0
 501.295898438 778.468831061 474.372029138 797 378.43359375 797 c 1
 373.557916958 804.923024102 377.196061316 819.424316777 386.107421875 838 c 1
 478.244693169 838 616.203125 871 617.8046875 871 c 1
 630.815429688 849 l 1
 619.580078125 809.430664062 608.206645424 762.400311268 592.665039062 682 c 0
 559.759765625 511.7734375 521.015967026 304.876943753 519.936523438 153.098632812 c 0
 519.393554688 76.7529296875 548.805664062 51.755859375 617.93359375 51.755859375 c 0
 628.029296875 51.755859375 638.63671875 52.5087890625 649.700195312 54 c 1
 652.182617188 38.041015625 651.264648438 26.3671875 646.700195312 16 c 1
 617.576171875 -1.8876953125 566.95703125 -24.0283203125 503.03125 -24.0283203125 c 0
 441.3359375 -24.0283203125 415.260742188 15.42578125 415.260742188 66.6181640625 c 0
 415.260742188 112.6796875 436.62890625 191.598632812 446.643554688 236 c 1
 434.8046875 270 l 1
 446.315429688 327.875976562 501.295898438 618.664748874 501.295898438 688.19921875 c 0
EndSplineSet
Layer: 3
SplineSet
46 231 m 0
 69 404 240 622 574 599 c 1
 521 471 l 1
 521 471 445 555 343 527 c 0
 241 499 173 373 157 266 c 0
 141.510742188 162.4140625 169 78 248 79 c 0
 364.0078125 80.46875 450 278 461 332 c 5
 473 276 l 5
 438 172 387 -18 204 -18 c 0
 59 -18 29 100 46 231 c 0
363 783 m 1
 359 824 l 1
 499 824 637 871 639 871 c 1
 653.088867188 849 l 1
 641.581054688 809.430664062 625.291015625 762.083007812 608 682 c 0
 572.372070312 510.98828125 527.856445312 323.15234375 530 171 c 0
 531.26953125 80.8701171875 593 45 682 57 c 1
 677 18 l 1
 640 1 581 -25 518 -24 c 0
 457.999023438 -23.0478515625 437 14 435 59 c 0
 432 102 452 200 465 247 c 5
 449 266 l 5
 459 318 514 612 516 675 c 0
 518 765 487 783 363 783 c 1
EndSplineSet
EndChar

StartChar: h
Encoding: 104 104 4
GlifName: uni0068
Width: 666
VWidth: 79
Flags: HMW
LayerCount: 5
Back
SplineSet
76.6787109375 822 m 1
 212.458007812 825.5390625 350.953125 875 352.970703125 875 c 1
 338.958984375 820.265625 264.52734375 498.028320312 245.654296875 351 c 0
 242.551757812 326.828125 252.56640625 302.497070312 242.958984375 279 c 0
 207.794921875 193 214.396484375 110 216.763671875 10 c 5
 171.763671875 10 106.763671875 4 61.763671875 -10 c 5
 98.154296875 84 146.732421875 255.90625 162.415039062 348 c 0
 178.762695312 444 215.861328125 697.469726562 210.698242188 726 c 0
 203.331054688 766.709960938 144.569335938 759 62.921875 761 c 1
 76.6787109375 822 l 1
189.81640625 213 m 1
 280.806640625 481 442.944335938 613.430664062 569.67578125 611 c 0
 629.337890625 609.85546875 656.90625 586.135742188 656.103515625 523 c 0
 654.619140625 406.188476562 541.84375 171.954101562 584.572265625 90 c 0
 602.171875 56.2421875 669.522460938 63 712.403320312 68 c 1
 716.52734375 29 l 1
 697.201171875 22.1015625 583.19140625 -23.4658203125 519.763671875 -24.3388671875 c 0
 464.798828125 -25.09375 443.021484375 4.7734375 446.512695312 58 c 0
 450.517578125 119.057617188 531.604492188 270.501953125 538.291992188 426 c 0
 540.109375 480.306640625 529.749023438 512.590820312 486.763671875 512.791992188 c 0
 371.327148438 513.331054688 252.6171875 284.228515625 207.291992188 177 c 9
 189.81640625 213 l 1
EndSplineSet
Fore
SplineSet
143.212890625 215 m 5
 210.66015625 456.891601562 375.38184106 613.142865315 495.510742188 611 c 4
 550.311523438 610.022460938 587.531161991 584.580345341 586.419921875 523 c 4
 584.771484375 431.650390625 518.367697458 262.166222478 510.110351562 152 c 4
 503.063476562 57.9833984375 546.40625 42.97265625 633.602539062 58 c 5
 637.629882812 45.333984375 635.470703125 32.66796875 630.602539062 20 c 5
 591.232421875 -4.107421875 515.601836273 -25.9822919188 453.2109375 -24 c 4
 401.54296875 -22.3583984375 376.104386242 6.06075048549 385.458007812 58 c 4
 396.443359375 119 476.98934921 277.11914499 484.473632812 442 c 4
 486.924804688 496 464.916759513 514.961049595 427.454101562 512 c 4
 322.063476562 503.669921875 191.45703125 305 176.212890625 205 c 5
 143.212890625 215 l 5
25.2236328125 -5 m 5
 97.0814242576 194.502678158 180.8046875 582.127334177 180.8046875 724.1796875 c 4
 180.8046875 778.128323083 150.545503577 788.484268306 64.4873046875 788 c 5
 57.4627387775 798.748622616 63.8587829365 824.110657866 72.4873046875 831 c 5
 164.415958875 831 296.350250599 870 298.004882812 870 c 5
 310.916015625 849 l 5
 299.59765625 809.3515625 282.566450526 760.495525025 267.004882812 681 c 4
 252.910766583 609.000880753 204.500642856 346.183507045 192.004882812 291 c 4
 171.269386705 199.193548465 167.818012123 109.558434589 169.129882812 0 c 5
 133.644649141 -5 82.2327145004 -12.400390625 42.9375 -18.833984375 c 5
 36.7568359375 -13.98828125 30.822265625 -9.318359375 25.2236328125 -5 c 5
EndSplineSet
Layer: 3
SplineSet
53 -5 m 1
 93.4571428571 95.029154519 148.244892189 262.831166667 171 360 c 0
 197.574468085 474.559006211 214.085106383 619.930434783 216 678 c 0
 218.025974026 751 178.519480519 787 60 786 c 1
 59 829 l 1
 196.472924188 829 336.97833935 871 339 871 c 1
 352.823242188 850 l 1
 342.291992188 810.3515625 325.145507812 761.412109375 308 682 c 0
 293 610 242 347 233 291 c 0
 218 196 216 125 219 0 c 1
 176.85903039 0 118.52154454 -10.4000920047 72 -18.833984375 c 1
 65.3708267731 -13.988069712 59.004955129 -9.31882196208 53 -5 c 1
189 208 m 1
 260 456 442 613 569 611 c 0
 629 610 657 586 656 523 c 0
 655 429.739495798 577 276.31092437 571 165 c 0
 566.070921986 66 637.497070312 52 716 67 c 1
 712 32 l 1
 676.072314946 6.716796875 586.753535354 -24.9245283019 522 -25 c 0
 468.496072403 -25.0598404308 442.246575342 5 451 57 c 0
 461.073684211 118.16576087 531.589473684 260.551630435 538 426 c 0
 540 480 529 513 486 513 c 0
 381 514 235 291 220 184 c 9
 189 208 l 1
EndSplineSet
EndChar

StartChar: e
Encoding: 101 101 5
GlifName: uni0065
Width: 547
VWidth: 153
Flags: HMW
LayerCount: 5
Back
SplineSet
63.0458984375 230 m 0
 92.1884765625 469 268.823242188 596.091796875 397.110351562 611 c 0
 517.579101562 625 611.309570312 560.364257812 587.2734375 428 c 0
 569.515625 330.211914062 458.454101562 278.8671875 341.727539062 262 c 0
 272.34765625 251.974609375 211.39453125 252.940429688 153.919921875 256 c 1
 162.383789062 304 l 1
 162.383789062 304 278.87109375 296.783203125 359.727539062 320 c 0
 419.443359375 337.146484375 473.727539062 387 474.727539062 451 c 24
 475.727539062 523 433.239257812 558.233398438 363.293945312 551 c 0
 288.594726562 543.275390625 216.190429688 462 191.739257812 349 c 0
 170.119140625 249.08203125 160.481445312 83 294.073242188 58 c 4
 393.72265625 39 525.712890625 127 527.712890625 127 c 5
 545.717773438 93 l 5
 523.720703125 66 416.370117188 -23.6279296875 289.024414062 -26 c 4
 181.671875 -28 38.0751953125 26 63.0458984375 230 c 0
EndSplineSet
Fore
SplineSet
227.75390625 -16.0498046875 m 0
 125.053111253 -9.80334982494 44.2900390625 57.6462882664 44.2900390625 179.79296875 c 0
 44.2900390625 417.444979618 256.073535066 604.586914062 423.204101562 604.586914062 c 0
 509.408356935 604.586914062 550.52309695 558.640134934 547.12109375 491.14453125 c 0
 538.504063409 320.18300338 317.823839301 247.573906619 128.180664062 245 c 1
 142.377929688 297.87109375 l 0
 325.000731505 297.87109375 440.408203125 383.906745745 440.408203125 483.94921875 c 0
 440.408203125 523.692459912 416.864829405 545.002929688 383.162109375 545.002929688 c 0
 248.44180228 545.002929688 146.259765625 348.530273438 146.259765625 221.55078125 c 0
 146.259765625 131.122070312 187.437152641 67.5562892801 295.262695312 60.173828125 c 0
 360.086234917 55.7355730398 419.417554424 89.513283456 451.598632812 110 c 1
 463.007638918 105.042483545 468.335079062 90.0584731177 467.598632812 77 c 1
 445.79201001 53.6399698877 352.530472034 -23.4770163522 227.75390625 -16.0498046875 c 0
EndSplineSet
Layer: 3
SplineSet
68 230 m 0
 97 469 274.981445312 587.198242188 402 609 c 0
 536 632 616.122070312 551.817382812 572 428 c 0
 532.64453125 317.557617188 424 279 317 262 c 0
 248.142578125 251.060546875 206 253 149 256 c 1
 157 304 l 1
 157 304 264 297 345 320 c 0
 405 337 459 387 470 451 c 0
 482.197265625 521.966796875 436.315429688 568.014648438 367 556 c 0
 292 543 238 477 203 374 c 0
 170.056640625 277.052734375 143.10546875 85.6396484375 297 60 c 0
 400.110351562 42.8212890625 477.53125 85.0888671875 519 117 c 5
 541 83 l 1
 519 56 430 -24 294 -26 c 4
 166.998046875 -27.8681640625 43 26 68 230 c 0
EndSplineSet
EndChar

StartChar: i
Encoding: 105 105 6
GlifName: uni0069
Width: 393
VWidth: 79
Flags: HMW
LayerCount: 5
Back
SplineSet
256.887695312 782 m 0
 264.29296875 824 303.23046875 852 344.23046875 852 c 0
 394.23046875 852 412.353515625 813 404.948242188 771 c 0
 397.541992188 729 358.60546875 701 317.60546875 701 c 0
 276.60546875 701 249.482421875 740 256.887695312 782 c 0
93.9150390625 555 m 1
 230.280273438 558.499023438 367.254882812 608 370.20703125 608 c 1
 355.478515625 547.962890625 283.796875 315.663085938 271.4453125 171.267578125 c 4
 261.208984375 51.6044921875 320.774414062 58.1220703125 422.639648438 70 c 5
 426.763671875 31 l 5
 407.383789062 24.08203125 282.845703125 -24.521484375 213 -23.55859375 c 4
 153.331054688 -22.736328125 130.047851562 16.830078125 140.318359375 61 c 4
 157.32421875 134.138671875 227.180664062 279.380859375 226.317382812 417 c 0
 225.9375 477.512695312 185.119140625 491.0703125 80.158203125 494 c 1
 93.9150390625 555 l 1
EndSplineSet
Fore
SplineSet
306.311523438 588 m 1
 292.658203125 610 l 1
 291.196509461 610 131.246127035 573 73.2724609375 573 c 1
 67.66015625 561.44831032 64.119140625 546.60337936 66.2724609375 537 c 5
 146.332737683 537 172.70654676 517.475206842 173.853515625 481.009765625 c 4
 175 419.378436886 165.306640625 362.01958687 152.473632812 288 c 0
 128.71484375 165.59765625 109.416015625 119.659179688 104.319335938 56.0263671875 c 1
 104.724302481 16.00390625 125.070834062 -24.0283203125 189.03125 -24.0283203125 c 0
 245.51713162 -24.0283203125 302.143359878 -1.8876953125 329.700195312 16 c 1
 334.264648438 26.3671875 335.182617188 38.041015625 332.700195312 54 c 1
 321.63671875 52.5087890625 311.029296875 51.755859375 300.93359375 51.755859375 c 0
 221.805664062 51.755859375 199.564453125 81.958984375 201.196289062 143.7109375 c 1
 201.196289062 222.870627813 253.228742159 433.894370564 306.311523438 588 c 1
212.157226562 767.868164062 m 0
 212.157226562 818.940429688 254.057617188 852 295.860351562 852 c 0
 335.994140625 852 353.892578125 823.563476562 353.892578125 789.104492188 c 0
 353.892578125 735.787109375 313.900390625 701 269.822265625 701 c 0
 235.65625 701 212.157226562 731.649414062 212.157226562 767.868164062 c 0
EndSplineSet
Layer: 3
SplineSet
43 530 m 1
 43 571 l 1
 179 572 319 612 321 612 c 1
 338.27734375 594 l 1
 303.210486111 493.678793395 226.952982395 263.121235379 233 123 c 0
 236.493418375 42.0506576428 326 54 395 70 c 1
 391 31 l 1
 341 4 268 -24 198 -23 c 0
 138 -22 114.606445312 16.3330078125 121 61 c 0
 127.681640625 107.682617188 154.421875 176.879882812 177 288 c 4
 221.489257812 506.95703125 197 531 43 530 c 1
233 782 m 0
 240 824 279 852 320 852 c 0
 370 852 388 813 381 771 c 0
 374 729 335 701 294 701 c 0
 253 701 226 740 233 782 c 0
EndSplineSet
EndChar

StartChar: s
Encoding: 115 115 7
GlifName: uni0073
Width: 457
VWidth: 153
Flags: HMW
LayerCount: 5
Back
SplineSet
43.234375 -12 m 1
 50.4052734375 23 58.5146484375 97 68.09375 157 c 1
 82.6572265625 122.356445312 138.151367188 24.654296875 230.34765625 22 c 0
 304.731445312 19.8583984375 336.107421875 60.16015625 344.216796875 110 c 0
 366.157226562 244.846679688 135.591796875 237.981445312 139.646484375 391 c 0
 143.2578125 527.295898438 257.913085938 593.915039062 396 608.802734375 c 0
 438.291992188 613.362304688 477.0703125 607.392578125 516.26953125 603 c 1
 506.569335938 565 488.049804688 474 483.0546875 440 c 1
 445 494 398.700195312 561.184570312 321.861328125 554 c 0
 255.8515625 547.828125 241.279296875 481 249.16796875 436 c 0
 272.551757812 302.610351562 517.41015625 295.657226562 454 107.602539062 c 0
 427.58203125 29.25390625 322.84375 -25 213.591796875 -25 c 0
 100.591796875 -25 43.234375 -12 43.234375 -12 c 1
EndSplineSet
Fore
SplineSet
388.715820312 178.735351562 m 0
 388.715820312 69.48828125 299.631835938 -6.140625 152.568359375 -6.140625 c 0
 90.953125 -6.140625 53.5380859375 2.66015625 40.177734375 6 c 5
 25.177734375 22 l 5
 25.177734375 55 35.177734375 123 50.177734375 180 c 5
 68.732421875 144.428710938 115.556640625 52.9169921875 208.71484375 52.9169921875 c 0
 261.618164062 52.9169921875 288.400390625 89.3251953125 288.400390625 138.8125 c 0
 288.400390625 246.859375 124.1875 302.721679688 124.1875 429.26953125 c 0
 124.1875 557.581054688 236.125976562 612.395507812 407.041015625 612.395507812 c 0
 423.388671875 612.395507812 434.252929688 612 434.252929688 612 c 1
 447.252929688 594 l 1
 446.252929688 553 434.252929688 499 419.252929688 445 c 1
 377.647460938 517.75 329.345703125 543.69140625 279.258789062 543.69140625 c 0
 232.762695312 543.69140625 210.115234375 516.294921875 210.115234375 479.728515625 c 0
 210.115234375 366.11328125 388.715820312 309.424804688 388.715820312 178.735351562 c 0
EndSplineSet
Layer: 3
SplineSet
13 9 m 1
 20 42 33 110 38 167 c 1
 56 130 123.016601562 37.46484375 216 34 c 0
 273.995117188 31.8388671875 295.3515625 79.990234375 295 126 c 0
 294 257 99.091796875 297.030273438 122 442 c 0
 136.234375 532.081054688 209 598 347 612 c 0
 397 617 452 615 452 615 c 1
 465 597 l 1
 456 556 444 502 437 448 c 1
 395.524414062 522.728515625 343.372070312 549.287109375 291 549.6875 c 0
 241.594726562 550.065429688 211.223632812 520.7734375 210.947265625 487 c 0
 210.159179688 390.680664062 405.818359375 294.90625 407 170 c 0
 408.069335938 57.0009765625 324 -17 174 -23 c 0
 93.064453125 -26.2373046875 44 -11 28 -7 c 1
 13 9 l 1
EndSplineSet
EndChar

StartChar: o
Encoding: 111 111 8
AltUni2: 0000ba.ffffffff.0
GlifName: o
Width: 583
VWidth: 153
Flags: HMW
LayerCount: 5
Back
SplineSet
35.8115234375 246 m 4
 8.5048828125 90.1376953125 76.791015625 -25 234.26171875 -28 c 4
 456.552734375 -32.2353515625 572.991210938 148.540039062 611.565429688 324 c 4
 668.065429688 581 482.70703125 613.396484375 418.876953125 613 c 4
 236.072265625 611.864257812 72.603515625 456 35.8115234375 246 c 4
167.5078125 358 m 4
 201.48046875 495 295.149414062 546.818359375 360.473632812 546 c 4
 472.599609375 544.595703125 531.6640625 415 498.981445312 258 c 4
 472.05859375 128 399.711914062 48.5078125 300.194335938 46 c 4
 183.893554688 43.0693359375 127.688476562 197.421875 167.5078125 358 c 4
EndSplineSet
Fore
SplineSet
403.435546875 612 m 0
 213.375800671 612 57.0675059037 408.730410459 52.220703125 198.446289062 c 0
 49.6158687054 76.9770328418 100.844900764 -17.2352307609 231.240234375 -21.005859375 c 0
 445.610364269 -27.2047786415 579.833366222 212.951234062 574.801757812 427.717773438 c 0
 572.551399764 538.438742192 505.236813539 612 403.435546875 612 c 0
356.083984375 551.635742188 m 0
 432.245896595 551.635742188 464.359375 480.933725199 464.359375 385.94140625 c 0
 464.359375 229.98747037 400.072313357 49.578125 270.671875 49.578125 c 0
 181.444659713 49.578125 157.481445312 136.534019513 157.481445312 220.610351562 c 0
 157.481445312 390.98450588 249.916540901 551.635742188 356.083984375 551.635742188 c 0
EndSplineSet
Layer: 3
SplineSet
34.6044921875 190 m 0
 31.759765625 70.2822265625 94.1171875 -24.1748046875 237 -25 c 4
 468.610351562 -26.337890625 582.571289062 164.005859375 596.178710938 367 c 0
 607.5078125 536.006835938 535.0546875 613 416 613 c 0
 226.548828125 613 40.3564453125 432.09765625 34.6044921875 190 c 0
319 541.783203125 m 4
 450.662109375 566.995117188 483.122070312 446.208984375 473.049804688 305 c 0
 464.305664062 181.577148438 407.520507812 65.46484375 321 47.134765625 c 0
 210.6328125 24.650390625 148.930664062 123.416015625 149.771484375 256 c 0
 150.7421875 410.640625 226.3359375 524.0390625 319 541.783203125 c 4
EndSplineSet
EndChar

StartChar: b
Encoding: 98 98 9
GlifName: b
Width: 634
VWidth: 79
Flags: HMW
LayerCount: 5
Back
SplineSet
625.9453125 374.72265625 m 0
 603.743164062 159.009765625 440.651367188 -50.982421875 75.8671875 -17.64453125 c 1
 148.474609375 111.239257812 l 1
 148.474609375 111.239257812 230.543945312 51.0732421875 310.965820312 51.93359375 c 0
 442.525390625 53.3408203125 485.989257812 219.526367188 503.275390625 331.59765625 c 0
 519.24609375 435.140625 503.258789062 520.069335938 434.5703125 521.655273438 c 0
 334.612304688 523.962890625 231.581054688 326.372070312 212.65234375 222.0859375 c 1
 193.686523438 262.369140625 l 5
 216.552734375 366.780273438 314.9296875 609.474609375 477.859375 614.266601562 c 0
 592.809570312 617.647460938 639.474609375 506.176757812 625.9453125 374.72265625 c 0
99.3173828125 800 m 1
 181.96484375 798 356.84375 850 356.84375 850 c 1
 285.220703125 682 215.416992188 258.759765625 207.53125 162 c 0
 200.787109375 79.2470703125 196.872070312 36.232421875 281.016601562 25 c 1
 356.2578125 33 l 1
 326.893554688 6.607421875 139.06640625 -27.11328125 75.3212890625 -15 c 1
 114.703125 160.403320312 172.900390625 493.077148438 199.62890625 702 c 0
 205.916015625 749 155.208984375 742 83.0322265625 741 c 1
 99.3173828125 800 l 1
EndSplineSet
Fore
SplineSet
414.9296875 520.010742188 m 0
 477.115627703 520.010742188 505.465820312 476.639648438 505.465820312 403.438476562 c 0
 505.465820312 279.383789062 415.947265625 93.796875 286.712890625 79.6171875 c 4
 177.732421875 67.66015625 141.485351562 113 141.485351562 113 c 1
 79.4853515625 -12 l 1
 122.261225498 -7 143.649162466 0 184.317382812 0 c 1
 183.353710275 19.4343918046 182.930779785 38.4336782955 182.930779785 56.9377278664 c 0
 182.930779785 157.449813177 195.409555972 243.349684814 201.485351562 305 c 1
 201.485351562 357 l 1
 213.334460792 396 228.648391659 439.805498772 238.349609375 487 c 0
 267.240269944 634.598632812 294.833819707 748.90625 327.689453125 850 c 1
 312.731445312 871 l 1
 255.197587252 856.502794492 162.24631246 841.65526522 77.5712890625 842 c 1
 66.6807569242 827.333333329 62.2527461639 809.66666667 67.5712890625 798 c 1
 162.074782848 798 187.51171875 778.727218507 187.51171875 683.971679688 c 0
 187.51171875 519.501148245 117.136344364 206.262650838 61.787109375 5 c 1
 80.4853515625 -14 l 1
 98.0409598652 -15.0490362228 115.093898492 -15.5615234375 131.653320312 -15.5615234375 c 0
 444.273232242 -15.5615234375 610.60546875 250.88671875 610.60546875 441.985351562 c 0
 610.60546875 548.831054688 553.850585938 614.059570312 463.709960938 614.059570312 c 0
 310.293945312 614.059570312 202.5859375 404.543945312 182.485351562 296 c 1
 195.485351562 245 l 1
 215.182617188 339.756835938 317.837191806 520.010742188 414.9296875 520.010742188 c 0
EndSplineSet
Layer: 3
SplineSet
61 784 m 1
 177 784 206 766 204 675 c 0
 202 612 167 381 157 330 c 0
 139 239 106 98 78 5 c 1
 98 -14 l 1
 463 -38 610 159 632 375 c 0
 646 506 613 617 488 614 c 0
 328.995480202 610.183891525 220 404 200 296 c 5
 216 256 l 5
 235 353 335 524 434 522 c 0
 489 521 524.400390625 481.004882812 525 408 c 0
 525.86240418 302.998779726 475.250976562 97.1279296875 356 67 c 0
 237.949336283 37.1753210033 138 151 138 151 c 1
 97 -12 l 1
 141 -7 163 0 207 0 c 1
 199 125 215 232 222 305 c 5
 220 357 l 5
 231 396 245 441 259 487 c 0
 293.50390625 634.598632812 323.658203125 748.90625 353.1484375 850 c 1
 337 871 l 1
 335 871 157 824 56 824 c 1
 61 784 l 1
EndSplineSet
EndChar

StartChar: period
Encoding: 46 46 10
GlifName: period
Width: 203
VWidth: 79
Flags: HMW
LayerCount: 5
Back
SplineSet
461 429 m 1053
547.62890625 606.931640625 m 5,0,1
 560.979304676 545.140392989 555.783202328 486.432928999 547.3359375 427.185546875 c 5,11,12
 461 429 l 5,0,0
 453.53125 451.228515625 446.063476562 473.458007812 435 490.4765625 c 5,0,0
 306.106445312 489.979492188 258.503299742 424.487976481 246 397 c 5,15,-1
 241 444 l 5,16,17
 284.417257879 513.413357003 404.184570312 607.883789062 501 609.767578125 c 4,0,0
 529.2578125 610.317382812 547.62890625 606.931640625 547.62890625 606.931640625 c 5,0,1
52 63 m 5,22,23
 63.8515625 61.5966796875 74.8759765625 60.8740234375 85.05859375 60.8740234375 c 4,24,25
 140.174804688 60.8740234375 170.624023438 82.0439453125 174 131 c 5,26,-1
 288 150 l 5,27,28
 287.791992188 146.228515625 287.69140625 142.60546875 287.69140625 139.124023438 c 4,29,30
 287.69140625 62.9560546875 356.818359375 48.7841796875 404.6640625 48.7841796875 c 4,31,32
 407.716796875 48.7841796875 410.525390625 48.8828125 413 49 c 5,33,-1
 423 1 l 5,34,-1
 60 1 l 5,35,-1
 52 63 l 5,22,23
49 595 m 5,50,51
 64.4892578125 593.95703125 80.77734375 593.513671875 97.2822265625 593.513671875 c 4,52,53
 191.596679688 593.513671875 293 608 293 608 c 5,54,55
 293 608 276 486 270 460 c 5,56,57
 293 468 l 5,60,61
 290.176757812 402.124023438 286.036132812 348.6171875 286.036132812 279 c 4,64,65
 286.036132812 192.529296875 286.936523438 99.921875 300 0 c 5,66,-1
 165 0 l 5,67,68
 175.778320312 143.716796875 181.91015625 285.884765625 181.91015625 377.525390625 c 4,69,70
 181.91015625 413.413085938 180.969726562 441.552734375 179 459 c 4,71,72
 174 504 138 532 56 534 c 5,73,-1
 49 595 l 5,50,51
EndSplineSet
Fore
SplineSet
42.6847719313 29.3508501802 m 0
 42.6847719313 80.452980083 81.4801027866 113 114.959960938 113 c 4
 158.729167217 113 179.665599191 87.2210612684 179.665599191 52.0981506746 c 0
 179.665599191 -3.13446499961 145.703906287 -27 98.9599609375 -27 c 4
 70.4247802343 -27 42.6847719313 -6.32551759586 42.6847719313 29.3508501802 c 0
EndSplineSet
Layer: 3
SplineSet
35 51 m 0
 43 95 83 123 125 123 c 0
 176 123 196 88 188 44 c 0
 180 0 140 -29 98 -29 c 0
 56 -29 27 7 35 51 c 0
EndSplineSet
EndChar

StartChar: t
Encoding: 116 116 11
GlifName: t
Width: 376
VWidth: 79
Flags: HMW
LayerCount: 5
Fore
SplineSet
151.62890625 139.68359375 m 1
 151.62890625 72 173.805664062 51.755859375 252.93359375 51.755859375 c 0
 263.029296875 51.755859375 273.63671875 52.5087890625 284.700195312 54 c 1
 287.182617188 38.041015625 286.264648438 26.3671875 281.700195312 16 c 1
 252.576171875 -1.8876953125 191.95703125 -24.0283203125 128.03125 -24.0283203125 c 0
 69.8823168958 -24.0283203125 38.496012273 9.94768900005 38.234375 53.349609375 c 4
 37.855010276 116.280847548 124.118164062 384.438534354 124.118164062 504.444335938 c 1
 115.816287316 511.873265099 72.5960571975 517.632309296 27.2841796875 518 c 1
 26.9606819735 536.03937091 32.1437263258 564.027915742 37.2841796875 578 c 1
 67.9507686884 578 87.5062747181 577.111328125 108.69140625 577.111328125 c 0
 119.284054219 577.111328125 130.284111726 577.333496094 143.284179688 578 c 1
 167.1171875 619 199.34375 733 211.036132812 772 c 1
 253.420898438 780 291.094726562 787 292.03515625 787 c 1
 286.422851562 768.083007812 257.004882812 668.017578125 234.850585938 575 c 1
 370.184570312 575 l 1
 375.064453125 562.333333338 372.638671875 549.666666661 370.184570312 537 c 1
 315.686092738 535.788085938 259.315292777 518.154296875 223.540039062 500 c 5
 185.858179681 384.618289522 151.62890625 223.323101324 151.62890625 139.68359375 c 1
EndSplineSet
Layer: 3
SplineSet
35 516 m 5
 45 579 l 5
 91 579 112 577 151 579 c 5
 175 620 208 734 220 773 c 1
 265 781 305 788 306 788 c 1
 300.2421875 769.083007812 270.073242188 669.017578125 247.551757812 576 c 5
 376 576 l 5
 365 519 l 5
 237.336914062 509 l 5
 207.42578125 397.235351562 166.391424887 202.584856186 163 140 c 0
 159.424644763 77.0160514009 189.465594951 63.2822265625 233 59 c 0
 261.203536804 56.3330078125 289.024096386 57 326 66 c 1
 323 29 l 1
 287 4.69811320755 201 -27 137 -27 c 0
 77.6259765625 -27 44.5102209793 2.96685355756 46 58 c 0
 47.5700934579 116 116.083984375 290 131 435 c 4
 136.383789062 487.3359375 117 528 35 516 c 5
EndSplineSet
EndChar

StartChar: p
Encoding: 112 112 12
GlifName: p
Width: 669
VWidth: 79
Flags: HMW
LayerCount: 5
Back
SplineSet
100 -302 m 5
 86.1494140625 -290 l 5
 104.869140625 -212.661132812 201.451171875 174.352539062 224 288 c 4
 261 476 268 532 115 530 c 5
 115 571 l 5
 251 572 363 606 385 614 c 5
 395.588867188 594 l 5
 383.197265625 560.294921875 365 514 347 464 c 4
 329.635742188 415.766601562 318 386 302 343 c 5
 310 341 317 340 325 338 c 5
 318 322 307 308 303 289 c 4
 289 222 224 30 231 -110 c 4
 235 -189 286 -213 393 -216 c 5
 393 -255 l 5
 272 -262 174 -281 100 -302 c 5
209 -3 m 5
 249 127 l 5
 249 127 302 67 393 68 c 4
 558 69 629 238 627 408 c 4
 626 487 604 538 545 537 c 4
 424 535 299 283 287 231 c 5
 241 199 l 5
 281 317 401 618 601 618 c 4
 702 618 745 535 744 432 c 4
 742 223 564 -38 209 -3 c 5
EndSplineSet
Fore
SplineSet
158.212890625 288 m 0
 194.918945312 486.608398438 180.124023438 533 64.8671875 533 c 1
 63.0029296875 546.747070312 63.9443359375 561.26953125 72.8671875 578 c 1
 153.515625 576.8125 234.872070312 586.626953125 297.131835938 606 c 1
 311.030273438 587 l 1
 284.041015625 518.881835938 260.209960938 396.288085938 231.86328125 323 c 1
 232.239257812 322.900390625 232.639648438 322.852539062 233.061523438 322.852539062 c 0
 239.359375 322.852539062 251.486328125 338.147460938 257.784179688 338.147460938 c 0
 258.206054688 338.147460938 258.606445312 338.100585938 258.982421875 338 c 1
 252.233398438 322 241.764648438 307.995117188 237.784179688 289 c 0
 221.895507812 213.172851562 157.0859375 -43.150390625 157.0859375 -144.700195312 c 0
 157.0859375 -208.956054688 202.690429688 -219.30078125 290.487304688 -221 c 1
 291.038085938 -239.177734375 286.499023438 -254.3828125 275.487304688 -270 c 1
 270.78125 -269.958007812 258.202148438 -269.9375 253.610351562 -269.9375 c 0
 167.221679688 -269.9375 112.041992188 -278.704101562 35.703125 -299 c 1
 22.810546875 -287 l 1
 30.4365234375 -251.484375 63.4501953125 -153.932617188 87.1396484375 -44 c 0
 114.908203125 84.8642578125 133.336914062 153.399414062 158.212890625 288 c 0
305.822265625 68.9873046875 m 0
 468.989257812 68.9873046875 550.26171875 300.5390625 550.140625 419.322265625 c 0
 550.068359375 489.526367188 524.150390625 532.256835938 474.239257812 532.256835938 c 0
 355.569335938 532.256835938 235.842773438 306.413085938 224.129882812 224 c 1
 189.551757812 244 l 1
 227.2734375 347.918945312 331.836914062 613 514.384765625 613 c 0
 612.919921875 613 653.146484375 536.31640625 653.146484375 440.495117188 c 0
 653.146484375 238.94921875 491.032226562 -7.1796875 186.239257812 -7.1796875 c 0
 166.78125 -7.1796875 146.807617188 -1.146484375 126.334960938 1 c 1
 189.309570312 110 l 1
 189.309570312 110 215.12890625 68.9873046875 305.822265625 68.9873046875 c 0
EndSplineSet
Layer: 3
SplineSet
84 -299 m 1
 70.1494140625 -287 l 1
 78.74609375 -251.484375 118.762695312 -153.663085938 146.48828125 -44 c 0
 179.069335938 84.8642578125 211.805664062 226.541992188 224 288 c 0
 261 476 248 532 95 530 c 1
 90 571 l 1
 226 572 363 606 385 614 c 1
 395.588867188 594 l 1
 383.197265625 560.294921875 362 514 344 464 c 4
 326.635742188 415.766601562 307 366 291 323 c 1
 299 321 317 340 325 338 c 1
 318 322 307 308 303 289 c 0
 289 222 228.282226562 -12.2822265625 229 -102 c 0
 229.76953125 -198.157226562 294 -220 401 -223 c 1
 393 -262 l 1
 272 -261 188 -272 84 -299 c 1
209 -3 m 1
 249 127 l 1
 249 127 302 67 393 68 c 0
 558 69 639 251 637 421 c 0
 636 500 607 541 545 537 c 0
 424.234375 529.208984375 299 283 287 231 c 1
 241 199 l 1
 281 317 401 618 601 618 c 0
 712 618 755 535 754 432 c 0
 752 223 564 -38 209 -3 c 1
EndSplineSet
EndChar

StartChar: v
Encoding: 118 118 13
GlifName: v
Width: 649
VWidth: 79
Flags: HMW
LayerCount: 5
Back
SplineSet
9 530 m 5
 9 572 l 5
 92 577 154 581 248 612 c 5
 267.939453125 594 l 5
 272.549804688 529.66796875 282.875410826 411.3103774 305 297 c 4
 319 224 343 104 366 51 c 4
 373 34 337 78 337 78 c 5
 423 182 522 325 546 472 c 4
 555 525 527 545 449 544 c 5
 453 576 l 5
 486 600 555 617 584 616 c 4
 649 615 660 583 657 556 c 4
 638 377 517 204 352 -4 c 5
 322 -7 271 -12 235 -22 c 5
 238.421875 79.18359375 236.702148438 181.313476562 219.098632812 269 c 4
 170.328125 511.93359375 116.949629402 531.087474732 9 530 c 5
EndSplineSet
Fore
SplineSet
233.66796875 72 m 1
 308.632465742 163.771526554 486.326171875 354.49536993 486.326171875 489.877929688 c 0
 486.326171875 530.830144167 454.47489672 545.859536655 389.877929688 545 c 1
 386.041015625 553.000017705 386.041015625 563.666684388 389.877929688 577 c 1
 420.992674408 597.745048177 489.328666254 616.041992188 520.15625 616.041992188 c 0
 579.981650425 616.041992188 595.942085955 589.300555157 596.119140625 563.750976562 c 0
 597.144386688 415.804555282 407.596101147 187.869834875 248.900390625 -4 c 1
 220.668945312 -6.33333333333 172.67578125 -10.2222222222 138.73046875 -18 c 1
 149.472932368 155.586044717 161.69724906 341.738705345 154.348632812 471.135742188 c 0
 150.20607323 544.923427366 106.132592447 551.379374978 42.07421875 551 c 1
 33.9866536458 560.90496749 38.0654296875 583.233754758 47.07421875 593 c 1
 109.706796421 595.375 173.033203125 597.275390625 239.958007812 612 c 5
 253.810546875 594 l 5
 242.44921875 426.700195312 238.458984375 186.092773438 256.458007812 47.8681640625 c 4
 256.526367188 47.3427734375 256.2734375 47.0947265625 255.93359375 47.0947265625 c 4
 251.830078125 47.0947265625 233.66796875 72 233.66796875 72 c 1
EndSplineSet
Layer: 3
SplineSet
29 530 m 1
 24 572 l 5
 107 577 209 581 303 612 c 1
 317.939453125 594 l 1
 312.549804688 529.66796875 300.358398438 411.90234375 297 297 c 0
 294.83984375 223.083984375 303 104 326 51 c 0
 333 34 297 78 297 78 c 1
 383 182 532 325 556 472 c 0
 565 525 537 545 459 544 c 1
 463 576 l 1
 496 600 565 617 594 616 c 0
 659 615 670 583 667 556 c 0
 648 377 477 204 312 -4 c 1
 282 -7 231 -12 195 -22 c 1
 211.421875 79.18359375 215.98828125 179.830078125 219.098632812 269 c 0
 227.592773438 512.509765625 136.94921875 531.087890625 29 530 c 1
EndSplineSet
EndChar

StartChar: m
Encoding: 109 109 14
GlifName: m
Width: 1059
VWidth: 79
Flags: HMW
LayerCount: 5
Back
SplineSet
65.7568359375 555 m 1x30
 201.536132812 558.5390625 340.03125 608 342.048828125 608 c 1
 328.037109375 553.265625 293.60546875 498.028320312 274.732421875 351 c 0
 271.629882812 326.828125 271.64453125 302.497070312 262.037109375 279 c 0
 226.874023438 193 243.474609375 93 245.841796875 -7 c 1
 200.841796875 -7 125.841796875 -15 80.841796875 -20 c 1
 117.232421875 74 159.271484375 196 175.493164062 288 c 0
 181.840820312 324 195.939453125 430.469726562 190.776367188 459 c 0
 183.409179688 499.709960938 133.647460938 492 52 494 c 1
 65.7568359375 555 l 1x30
580.89453125 213 m 1
 671.884765625 481 834.022460938 613.430664062 960.75390625 611 c 0xb0
 1020.41601562 609.85546875 1047.984375 586.135742188 1047.18261719 523 c 0
 1045.69726562 406.188476562 932.922851562 171.954101562 975.650390625 90 c 0
 993.25 56.2421875 1060.60058594 63 1103.48144531 68 c 1
 1107.60546875 29 l 1
 1088.27929688 22.1015625 974.26953125 -23.4658203125 910.841796875 -24.3388671875 c 0
 855.876953125 -25.09375 834.099609375 4.7734375 837.590820312 58 c 0
 841.595703125 119.057617188 922.682617188 270.501953125 929.370117188 426 c 0
 931.1875 480.306640625 920.827148438 512.590820312 877.841796875 512.791992188 c 0
 762.405273438 513.331054688 643.696289062 284.228515625 598.370117188 177 c 9
 580.89453125 213 l 1
220.89453125 213 m 1
 311.884765625 481 474.022460938 613.430664062 600.75390625 611 c 0
 660.416015625 609.85546875 697.590820312 585.27734375 687.182617188 523 c 0
 664.84765625 389.3671875 619.436523438 213.7109375 643.481445312 0 c 1
 579.727539062 0.9287109375 528.603515625 -2.08984375 467.841796875 -11.3388671875 c 1
 514.061523438 108.877929688 560.661132812 223.49609375 569.370117188 426 c 0
 571.1875 480.306640625 560.827148438 512.590820312 517.841796875 512.791992188 c 0
 402.405273438 513.331054688 283.696289062 284.228515625 238.370117188 177 c 9
 220.89453125 213 l 1
EndSplineSet
Fore
SplineSet
522.212890625 232 m 1
 587.362761634 460.507366142 746.47285648 613.005541437 862.510742188 611 c 0
 917.914331443 610.022460938 955.531170775 584.580832089 954.419921875 523 c 0
 952.771484375 431.650390625 886.367697458 262.166222478 878.110351562 152 c 0
 871.063476562 57.9833984375 914.40625 42.97265625 1001.60253906 58 c 1
 1005.62988281 45.333984375 1003.47070312 32.66796875 998.602539062 20 c 1
 959.232421875 -4.107421875 883.601836273 -25.9822919188 821.2109375 -24 c 0
 769.54296875 -22.3583984375 744.104386242 6.06075048549 753.458007812 58 c 0
 764.443359375 119 844.98934921 277.11914499 852.473632812 442 c 0
 854.924804688 496 832.90512083 515.107487844 795.454101562 512 c 0
 690.482956411 503.290048605 560.396355931 295.560260586 545.212890625 191 c 1
 522.212890625 232 l 1
60.8671875 534 m 1
 59.0029296875 546.219726562 59.9443359375 559.12890625 68.8671875 574 c 1
 165.649414062 582.228515625 283.569335938 606 285.131835938 606 c 1
 299.030273438 587 l 1
 280.784179688 520.569335938 242.403320312 372.986328125 221.212890625 289 c 1
 237.212890625 289 l 1
 217.892578125 192 208.482421875 125 210.3828125 -2 c 1
 175.973632812 -7.1259765625 113.75 -14.1298828125 85.22265625 -17.33984375 c 1
 73.8671875 -2 l 1
 101.415039062 76 139.97204474 176.494222645 160.212890625 288 c 0
 198.736328125 500.223632812 193.14453125 534 60.8671875 534 c 1
187.212890625 215 m 1
 251.979862531 456.891601562 410.154106106 613.057737414 525.510742188 611 c 0
 580.311523438 610.022460938 617.531161991 584.580345341 616.419921875 523 c 0
 614.771484375 431.650390625 548.101658914 262.18584003 540.110351562 152 c 0
 535.574262923 57.9833984375 563.474099687 42.97265625 619.602539062 58 c 5
 623.629882812 45.333984375 621.470703125 32.66796875 616.602539062 20 c 5
 586.997738502 -4.107421875 530.127517753 -25.9376364185 483.2109375 -24 c 0
 431.54296875 -22.3583984375 406.104386242 6.06075048549 415.458007812 58 c 0
 426.443359375 119 506.98934921 277.11914499 514.473632812 442 c 0
 516.924804688 496 494.902637093 515.134603969 457.454101562 512 c 0
 357.936194436 503.669921875 234.607576784 305 220.212890625 205 c 1
 187.212890625 215 l 1
EndSplineSet
Layer: 3
SplineSet
548 202 m 1
 624 470 787 613 912 611 c 0
 972 610 999 586 998 523 c 0
 997 406 871 190 927 90 c 0
 946 56 997 54 1053 68 c 1
 1049 32 l 1
 1009 7 926 -26 859 -24 c 0
 804.015625 -22.3583984375 777 6 786 58 c 0
 797 119 873 261 880 426 c 0
 882 480 872 513 829 513 c 0
 725 514 593 299 578 199 c 1
 548 202 l 1
58 531 m 1
 54 571 l 1
 190 571 325 613 327 613 c 1
 342 594 l 1
 331 561 314 515 292 444 c 0
 277.397849288 396.874877246 256 335 239 287 c 1
 254 295 l 1
 239 198 232 125 235 -2 c 1
 192.163085938 -1.1259765625 127.69140625 -7.1298828125 81 -17.33984375 c 1
 69 -2 l 1
 106 76 166 196 185 288 c 0
 222.049413448 467.397159853 212 531 58 531 c 1
211 208 m 1
 284 451 434 613 561 611 c 0
 621 610 649 586 648 523 c 0
 648 493 639 465 633 438 c 1
 620 398 585 320 578 284 c 5
 574 252 580 261 579 231 c 0
 576 203 579 84 588 -2 c 1
 528 -3 472 -6 425 -11 c 1
 436 70 523 261 530 426 c 0
 532 480 521 513 478 513 c 0
 371 514 255 291 239 184 c 1
 211 208 l 1
EndSplineSet
EndChar

StartChar: g
Encoding: 103 103 15
GlifName: g
Width: 653
VWidth: 153
Flags: HMW
LayerCount: 5
Back
SplineSet
-74.228515625 -231 m 5
 -36.228515625 -77 l 5
 -3.07126598997 -155.439370026 66.5420412795 -211.518061405 188.661132812 -208.930664062 c 4
 280.982421875 -206.962884339 393.0234375 -173.499023438 399.971679688 -82 c 4
 408.036132812 18.111328125 27.5334258128 -33.1887460522 63.8857421875 121 c 4
 85.8502658675 214.162766547 219.447265625 254.444335938 301.78125 277 c 5
 336.248046875 250 l 5
 251.006835938 230.90625 173.850356997 209.383838435 157.653320312 147 c 4
 128.334924894 30.8364885861 531.159124309 127.979119684 506.922851562 -52 c 4
 491.119583787 -163.94539299 311.211902567 -285.866723757 106.897460938 -283.494140625 c 4
 41.8134765625 -282.723632812 -22.4228515625 -275.107421875 -63 -251.736328125 c 5
 -74.228515625 -231 l 5
94.771484375 377 m 4
 110.430664062 538.78125 273.771484375 616 407.520507812 616 c 4
 497.419921875 616 585.713867188 573.774414062 569.567382812 456 c 4
 550.099609375 314 405.9765625 250.8203125 278.56640625 241 c 4
 174.771484375 233 85.8681640625 285.015625 94.771484375 377 c 4
213.771484375 449 m 4
 184.331054688 360.108398438 235.459960938 278.498046875 324.3359375 290 c 4
 405.993164062 300.567382812 447.249023438 359.64453125 455.723632812 431 c 4
 464.9140625 508.389648438 426.798828125 580.8359375 345.053710938 569 c 4
 295.169921875 561.77734375 239.314453125 526.122070312 213.771484375 449 c 4
527.270507812 501 m 5
 573.087890625 511.841796875 638.3359375 563.752929688 728.048828125 626 c 5
 741.94921875 613 l 5
 732.416015625 565.985351562 724.374023438 529.12890625 719.048828125 494 c 5
 660.048828125 491.75 572.104492188 487 524.165039062 485 c 5
 527.270507812 501 l 5
EndSplineSet
Fore
SplineSet
233.60546875 -182.016601562 m 0
 330.898974231 -182.016601562 440.112304688 -147.917442303 440.112304688 -68.544921875 c 0
 440.112304688 31.2184147887 141.16796875 -11.5601751279 141.16796875 127.083984375 c 0
 141.16796875 236.586878856 306.886454488 279.015950316 377.78125 301 c 1
 414.248046875 279 l 1
 354.708800583 252.480031122 235.965820312 228.523537504 235.965820312 170.387695312 c 0
 235.965820312 67.8887145852 548.0859375 149.712314983 548.0859375 -16.380859375 c 0
 548.0859375 -152.004071544 361.505003274 -264.528320312 165.772460938 -264.528320312 c 0
 93.6108355835 -264.528320312 21.6965516383 -252.707228564 -23 -232.736328125 c 1
 -34.228515625 -212 l 1
 -29.0511899793 -163.996296232 -10.6321757716 -117.071426055 3.771484375 -80 c 1
 38.1364048107 -139.268857771 117.69770782 -182.016601562 233.60546875 -182.016601562 c 0
403.520507812 620 m 0
 494.346892966 620 571.490003436 581.224644362 571.490003436 482.987829876 c 0
 571.490003436 330.770652365 398.406626666 245.194335938 253.8046875 245.194335938 c 0
 167.233195533 245.194335938 96.1552734375 296.106492886 96.1552734375 369.448242188 c 0
 96.1552734375 528.932113549 275.402426644 620 403.520507812 620 c 0
205.420962648 399.072936157 m 0
 205.420962648 340.205791728 243.871944021 293.913085938 303.83984375 293.913085938 c 0
 401.337149923 293.913085938 468.06640625 377.971131026 468.06640625 473.423828125 c 0
 468.06640625 527.617127838 440.071693582 574.275390625 363.190429688 574.275390625 c 0
 292.914100678 574.275390625 205.420962648 506.358773788 205.420962648 399.072936157 c 0
524.165039062 501 m 1
 569.982421875 511.841796875 658.3359375 573.752929688 728.048828125 626 c 5
 741.94921875 613 l 5
 735.416015625 565.985351562 727.374023438 529.12890625 719.048828125 494 c 5
 660.048828125 491.75 572.104492188 487 524.165039062 485 c 1
 524.165039062 501 l 1
EndSplineSet
Layer: 2
SplineSet
-157 -62 m 1
 -37 -36 l 1
 -23.203125 -160.42578125 62.9208984375 -238.692382812 173 -249.930664062 c 0
 264.10546875 -259.232421875 349.358398438 -209.717773438 372.061523438 -138 c 0
 398.9375 -53.099609375 353.920898438 40.2158203125 219 56.52734375 c 0
 172.002929688 62.208984375 106.71484375 51.8798828125 64 40 c 1
 43.482421875 71 l 1
 86.21484375 143.736328125 107.193359375 179.094726562 136 240 c 1
 174 226 l 1
 165 203 146 138 144 115 c 1
 386.296875 123.514648438 510.099609375 2.5439453125 499.874023438 -115 c 0
 486.2890625 -271.161132812 299.749023438 -312.278320312 155 -297.333984375 c 0
 -21.04296875 -279.159179688 -154.099609375 -190.96484375 -157 -62 c 1
-1 380 m 0
 18 521 173 611 315 611 c 0
 400 611 497 561 483 443 c 0
 464 291 297.845703125 215.53125 162 222 c 0
 57 227 -14 288 -1 380 c 0
110 444 m 0
 81.7861328125 346.118164062 136.415039062 262.380859375 235 269 c 0
 329.23046875 275.327148438 364.735351562 344.541992188 372 416 c 0
 378.90625 483.389648438 337.830078125 576.8359375 241 565 c 0
 187.887695312 558.76953125 134.4921875 522.869140625 110 444 c 0
447 520 m 1
 474.444335938 521.841796875 551.287109375 557.752929688 651 613 c 1
 666.900390625 598 l 1
 661.3671875 550.985351562 655.325195312 471.12890625 657 446 c 1
 601 468.75 495 488 444 488 c 1
 447 520 l 1
EndSplineSet
Layer: 3
SplineSet
-117 -72 m 1
 -17 4 l 1
 -2.3408203125 -100.872070312 49.64453125 -196.384765625 153 -230.930664062 c 0
 262.532226562 -267.540039062 349.358398438 -227.717773438 372.061523438 -176 c 0
 409.924804688 -94.0498046875 391.4921875 15.8134765625 189 24.52734375 c 0
 84.212890625 29.2734375 52.638671875 65.33984375 63.482421875 111 c 0
 70.576171875 140.868164062 107.193359375 189.094726562 156 240 c 1
 194 226 l 1
 145 163 144.223632812 116.444335938 214 110 c 0
 531.140625 80.708984375 531.099609375 -76.4560546875 489.874023438 -174 c 0
 445.975585938 -277.868164062 274.158203125 -313.997070312 174 -297.494140625 c 0
 13.12890625 -270.98828125 -84.306640625 -181.493164062 -117 -72 c 1
2 380 m 0
 21 521 173 611 315 611 c 0
 400 611 493 563 479 445 c 0
 460 293 297.845703125 215.53125 162 222 c 0
 57 227 -11 288 2 380 c 0
120 444 m 0
 95.5595703125 345.108398438 136.5234375 260.932617188 235 269 c 0
 312.23046875 275.327148438 353.788085938 344.64453125 362 416 c 0
 370.90625 493.389648438 327.830078125 576.8359375 241 565 c 0
 188.013671875 557.77734375 139.4921875 522.869140625 120 444 c 0
447 525 m 1
 474.444335938 526.841796875 553.287109375 555.752929688 653 611 c 1
 666.900390625 598 l 1
 657.3671875 550.985351562 649.325195312 507.12890625 644 472 c 1
 585 493.75 495 498 444 498 c 1
 447 525 l 1
EndSplineSet
EndChar

StartChar: H
Encoding: 72 72 16
GlifName: H_
Width: 897
VWidth: 79
Flags: HMW
LayerCount: 5
Fore
SplineSet
567.963867188 800 m 1
 689.409179688 794.626953125 815.518554688 796.038085938 913.0859375 801 c 1
 904.129882812 736 l 1
 842.762695312 733 800.887695312 725.918945312 788.194335938 663 c 0
 761.537109375 530.87109375 735.083007812 368 716.765625 153 c 0
 710.731445312 82.1904296875 762.2578125 64 814.748046875 63 c 1
 808.036132812 0 l 1
 462.9140625 -1 l 1
 472.748046875 63 l 1
 535.870117188 64 582.541015625 74.908203125 593.928710938 138 c 0
 613.953125 248.939453125 642.793945312 455 658.133789062 638 c 0
 663.096679688 697.201171875 658.448242188 738.604492188 560.129882812 736 c 1
 567.963867188 800 l 1
87.9638671875 800 m 5
 209.409179688 794.626953125 335.518554688 796.038085938 433.0859375 801 c 1
 424.129882812 736 l 1
 362.762695312 733 320.887695312 725.918945312 308.194335938 663 c 0
 281.537109375 530.87109375 255.083007812 368 236.765625 153 c 0
 230.731445312 82.1904296875 282.2578125 64 334.748046875 63 c 1
 328.036132812 0 l 1
 -17.0859375 -1 l 1
 -7.251953125 63 l 1
 55.8701171875 64 102.541015625 74.908203125 113.928710938 138 c 0
 133.953125 248.939453125 162.793945312 455 178.133789062 638 c 0
 183.096679688 697.201171875 174.448242188 733.604492188 80.1298828125 736 c 5
 87.9638671875 800 l 5
188.858398438 358 m 1
 198.28515625 435 l 1
 527.40625 436 l 1
 732.263671875 443 l 1
 721.858398438 358 l 1
 188.858398438 358 l 1
EndSplineSet
Layer: 3
SplineSet
20 0 m 1
 21 61 l 1
 96 57 132 89 147 137 c 1
 268 146 l 1
 249 51 325 50 343 51 c 1
 344 0 l 1
 20 0 l 1
95 0 m 1
 95 0 129 71 146 136 c 0
 189 297 236 583 259 768 c 1
 407 793 l 1
 347 593 275 208 268 145 c 0
 263 101 233 49 315 49 c 1
 290 1 l 1
 95 0 l 1
165 739 m 1
 170 800 l 1
 282 792 361 795 470 800 c 1
 471 749 l 1
 453 750 384 749 369 654 c 1
 245 663 l 1
 246 711 242 743 165 739 c 1
227 367 m 1
 238 433 l 1
 648 434 l 1
 793 441 l 1
 780 370 l 1
 227 367 l 1
515 0 m 1
 515 58 l 1
 590 54 633 92 645 140 c 1
 763 139 l 1
 744 49 810 49 829 50 c 1
 830 0 l 1
 515 0 l 1
592 0 m 1
 592 0 626 71 643 136 c 0
 686 297 730 583 753 768 c 1
 900 793 l 1
 840 593 772 208 764 145 c 0
 758 101 729 49 811 49 c 1
 786 1 l 1
 592 0 l 1
658 739 m 1
 661 800 l 1
 775 790 858 794 965 800 c 1
 961 749 l 1
 943 750 883 749 862 654 c 1
 740 663 l 1
 741 711 735 743 658 739 c 1
EndSplineSet
EndChar

StartChar: A
Encoding: 65 65 17
GlifName: A_
Width: 844
VWidth: 79
Flags: HMWO
LayerCount: 5
Fore
SplineSet
-12.1083984375 61 m 1
 59.013671875 62 77.400390625 85.82421875 102.072265625 136 c 0
 220.573242188 377 320.134765625 594 397.78125 779 c 1
 437.515625 785 486.984375 797 527.575195312 810 c 1
 562.870117188 600 609.591796875 418 676.78515625 150 c 0
 688.155273438 104 712.422851562 49 780.666992188 51 c 5
 774.424804688 0 l 1
 662.424804688 0 560.424804688 0 448.424804688 0 c 1
 455.524414062 58 l 1
 526.401367188 57 558.380859375 65 549.603515625 124 c 0
 530.904296875 249 476.245117188 407 450.994140625 552 c 0
 447.767578125 591 440.724609375 656 437.744140625 697 c 1
 352.282226562 489 229.129882812 210 206.173828125 145 c 0
 173.422851562 49 249.544921875 50 297.666992188 51 c 1
 291.424804688 0 l 1
 183.424804688 0 88.4248046875 0 -19.5751953125 0 c 1
 -12.1083984375 61 l 1
238.005859375 258 m 1
 246.696289062 329 l 1
 570.67578125 337 l 1
 561.373046875 261 l 1
 238.005859375 258 l 1
EndSplineSet
Layer: 3
SplineSet
20 0 m 1
 21 61 l 1
 100 52 128 86 156 136 c 0
 291 377 396 583 484 768 c 1
 524 774 575 786 616 799 c 1
 640 589 678 418 731 150 c 0
 740 104 751 43 821 55 c 1
 821 0 l 1
 709 0 597 0 485 0 c 1
 486 64 l 1
 555 53 609 65 603 124 c 0
 591 249 542 396 525 541 c 0
 524 580 519 635 518 676 c 1
 421 468 284 210 258 145 c 0
 220 49 295 50 343 51 c 1
 344 0 l 1
 236 0 128 0 20 0 c 1
307 308 m 1
 318 366 l 1
 642 374 l 1
 631 311 l 1
 307 308 l 1
EndSplineSet
EndChar

StartChar: B
Encoding: 66 66 18
GlifName: B_
Width: 736
VWidth: 79
Flags: HMW
LayerCount: 5
Fore
SplineSet
89.53515625 798 m 5
 246.311523438 793 311.147460938 803 461.147460938 803 c 0
 596.147460938 803 689.190429688 738 675.501953125 618 c 0
 664.995117188 524 585.897460938 417 478.28515625 412 c 1
 513.344726562 437 l 1
 631.38671875 421 688.811523438 332.998046875 675.006835938 230 c 0
 651.952148438 58 485.852539062 0 324.852539062 0 c 0
 256.844726562 0 73.8525390625 0 -0.1474609375 0 c 1
 6.830078125 57 l 1
 85.830078125 57 102.278320312 77 110.3984375 127 c 0
 145.715820312 342 164.140625 468 175.725585938 628 c 0
 179.825195312 686 176.701171875 734 84.82421875 735 c 5
 89.53515625 798 l 5
253.755859375 375 m 1
 240.515625 275 235.19140625 207 236.133789062 133 c 0
 236.033203125 75 267.17578125 68 343.17578125 68 c 0
 446.180664062 68 539.643554688 129 551.884765625 229 c 0
 562.534179688 316 508.735351562 383 394.102539062 386 c 0
 351.243164062 387.122070312 289.61328125 382 253.755859375 375 c 1
264.936523438 450 m 1
 317.471679688 448.211914062 361.209960938 449.301757812 397.077148438 451.1484375 c 0
 494.399414062 456.16015625 541.939453125 537.303710938 550.17578125 599 c 0
 562.595703125 692.04296875 500.680664062 742 422.924804688 744 c 0
 377.047851562 745 332.313476562 739 308.211914062 730 c 1
 290.78515625 653 277.93359375 548 264.936523438 450 c 1
EndSplineSet
Layer: 3
SplineSet
-6 -3 m 1
 5 58 l 1
 88 52 89 87 98 120 c 0
 147 311 177 424 189 568 c 0
 197 664 189 757 88 745 c 1
 89 798 l 1
 275 786 319 803 469 803 c 0
 581 803 655.106445312 738.005859375 633 618 c 4
 612 504 499 417 365 412 c 5
 471 437 l 1
 596 397 647 300 626 187 c 0
 592 4 382 -6 241 -6 c 0
 175 -6 65 -5 -6 -3 c 1
206 110 m 0
 203 52 247 48 300 48 c 0
 413 49 500 102 516 196 c 0
 533 298 473 390 369 393 c 0
 323 395 270 386 231 375 c 1
 218 270 210 188 206 110 c 0
246 450 m 1
 436 456 512 530 525 587 c 0
 549 677 517 745 418 747 c 0
 368 749 329 734 302 720 c 1
 280 646 264 544 246 450 c 1
EndSplineSet
EndChar

StartChar: W
Encoding: 87 87 19
GlifName: W_
Width: 1241
VWidth: 79
Flags: HMW
LayerCount: 5
Fore
SplineSet
45.1875 797 m 1
 160.698242188 793 292.331054688 790 381.1875 797 c 1
 383.354492188 733 l 1
 313.700195312 744 261.231445312 732 270.008789062 673 c 0
 288.708007812 548 323.6328125 384 348.883789062 239 c 0
 352.844726562 206 348.541015625 130 352.255859375 95 c 1
 441.860351562 296 597.890625 574 620.602539062 637 c 1
 713.540039062 661 l 1
 601.896484375 427 467.640625 188 390.606445312 8 c 1
 350.872070312 2 301.403320312 -10 260.8125 -23 c 1
 224.784179688 181 204 387 142.826171875 647 c 0
 131.961914062 693.17578125 116.823242188 745 47.3544921875 733 c 1
 45.1875 797 l 1
515.1875 797 m 1
 627.1875 797 739.1875 797 851.1875 797 c 1
 853.354492188 733 l 1
 783.700195312 744 731.231445312 732 740.008789062 673 c 0
 758.708007812 548 798.918945312 370 824.169921875 225 c 0
 828.129882812 192 823.153320312 135 826.868164062 100 c 1
 911.47265625 301 1044.33007812 578.024414062 1062.21484375 642 c 0
 1081.78320312 712 1038.33300781 741 960.2109375 740 c 1
 957.1875 797 l 1
 1065.1875 797 1173.1875 797 1281.1875 797 c 1
 1283.72070312 736 l 1
 1203.82324219 745 1174.72070312 712.061523438 1152.54003906 661 c 0
 1050.89648438 427 945.640625 188 868.606445312 8 c 1
 828.872070312 2 789.403320312 -10 748.8125 -23 c 1
 712.784179688 181 681 387 612.826171875 647 c 0
 601.45703125 693 587.924804688 754 518.455078125 742 c 1
 515.1875 797 l 1
EndSplineSet
Layer: 3
SplineSet
52 736 m 1
 53 800 l 1
 168 796 300 793 389 800 c 1
 388 736 l 1
 319 747 265 735 271 676 c 0
 283 551 326 370 343 225 c 0
 345 192 350 135 352 100 c 1
 447 301 590 592 616 655 c 1
 718 664 l 1
 584 430 472 188 385 8 c 1
 345 2 295 -10 254 -23 c 1
 229 181 197 390 143 650 c 0
 134 696 122 748 52 736 c 1
527 800 m 1
 639 800 751 800 863 800 c 1
 862 736 l 1
 793 747 739 735 745 676 c 0
 757 551 792 370 809 225 c 0
 811 192 816 135 818 100 c 1
 913 301 1055 592 1081 655 c 0
 1119 751 1044 750 996 749 c 1
 995 800 l 1
 1103 800 1211 800 1319 800 c 1
 1318 739 l 1
 1239 748 1211 714 1183 664 c 0
 1049 430 938 188 851 8 c 1
 811 2 761 -10 720 -23 c 1
 695 181 671 390 617 650 c 0
 608 696 597 757 527 745 c 1
 527 800 l 1
EndSplineSet
EndChar

StartChar: c
Encoding: 99 99 20
GlifName: c
Width: 507
VWidth: 153
Flags: HMW
LayerCount: 5
Back
SplineSet
237.75390625 -16.0498046875 m 4
 132.813960916 -9.80334982494 50.2900390625 57.6462882664 50.2900390625 179.79296875 c 4
 50.2900390625 417.444979618 264.30922402 604.586914062 433.204101562 604.586914062 c 4
 507.712695639 604.586914062 559.440735272 557.427183724 556.12109375 488.14453125 c 4
 547.524632038 319.266675851 327.371165933 247.542535945 138.180664062 245 c 5
 152.377929688 300.87109375 l 4
 339.902859056 300.87109375 458.408203125 381.820752043 458.408203125 475.94921875 c 4
 458.408203125 520.900102894 431.574701164 545.002929688 393.162109375 545.002929688 c 4
 252.530484964 545.002929688 155.259765625 348.530368286 155.259765625 221.55078125 c 4
 155.259765625 131.122070312 197.24063315 67.6216993717 305.262695312 60.173828125 c 4
 370.06451841 55.429029048 429.417554424 89.513283456 461.598632812 110 c 5
 473.007638917 105.042483545 478.335079062 90.0584731177 477.598632812 77 c 5
 455.79201001 53.6399698877 362.55516763 -23.0498046875 237.75390625 -16.0498046875 c 4
EndSplineSet
Fore
SplineSet
239.744140625 -18.0166015625 m 0
 122.440974499 -18.0166015625 39.1755930812 48.0454013675 46.6103515625 182.78125 c 0
 60.9976295579 443.16068995 285.189303195 597.868992264 497.4453125 610 c 1
 508.4453125 595 l 1
 503.36328125 552.557617188 490.592773438 498.125976562 478.4453125 457 c 1
 449.021033269 493.642487947 413.481713947 515.001953125 358.239257812 515.001953125 c 0
 247.373103894 515.001953125 161.845703125 364.36845136 161.845703125 214.821289062 c 0
 161.845703125 119.755859375 210.928271415 56.033203125 304.133789062 56.033203125 c 0
 371.675287777 56.033203125 433.000282858 99 434.4453125 99 c 5
 444.719726562 91.2587890625 449.192382812 77.392578125 448.4453125 64 c 5
 422.548705749 38.0956637852 354.077107264 -18.0166015625 239.744140625 -18.0166015625 c 0
EndSplineSet
Layer: 3
SplineSet
56 230 m 0
 90 453 250 546 351 582 c 0
 438 612 531 614 569 612 c 5
 578 594 l 1
 560 514 555 484 549 439 c 1
 513.704101562 487.93359375 465.74609375 528.639648438 405 530.923828125 c 0
 301.0390625 534.831054688 214.631835938 461.530273438 184 352 c 0
 155.513671875 250.14453125 147.478360817 76.1550340684 301 56 c 0
 409.121014398 41.8053708891 500 119 502 119 c 1
 519 83 l 1
 487 47 389.941582683 -30.3398831686 263 -26 c 0
 146 -22 25.07421875 27.1611328125 56 230 c 0
EndSplineSet
EndChar

StartChar: w
Encoding: 119 119 21
GlifName: w
Width: 918
VWidth: 79
Flags: HMW
LayerCount: 5
Back
SplineSet
19 531 m 5xb0
 19 572 l 5
 102 571 184 590 242 614 c 5
 260.360351562 594 l 5
 266.05078125 528.57421875 284.840904754 408.985674236 302 297 c 4
 313 223 340 104 363 51 c 4
 370 34 334 78 334 78 c 5
 420 182 499 285 523 432 c 4
 532 485 506 495 428 494 c 5
 428 526 l 5
 461 550 522 567 551 566 c 4
 616 565 622 533 624 506 c 4
 637.297313785 326.486263907 514 204 349 -4 c 5
 319 -7 268 -12 232 -22 c 5
 239 185 210 417 143 496 c 4
 115 528 63 532 19 531 c 5xb0
524 449 m 1053
527 449 m 5
 623 521 l 5
 637.889736159 394.43724265 683.156738016 165.856212398 733 51 c 4
 740 34 704 78 704 78 c 5
 790 182 869 319 893 466 c 4
 902 519 866 545 788 544 c 5
 788 576 l 5
 821 600 902 617 931 616 c 4x70
 996 615 1007 583 1004 556 c 4
 985 377 884 204 719 -4 c 5
 689 -7 638 -12 602 -22 c 5
 608 159 581 321 530 422 c 4
 523 437 535 439 527 449 c 5
EndSplineSet
Fore
SplineSet
540.66796875 72 m 1
 615.632465742 163.771526554 793.326171875 354.49536993 793.326171875 489.877929688 c 0
 793.326171875 530.830144167 761.47489672 545.859536655 696.877929688 545 c 1
 693.041015625 553.000017705 693.041015625 563.666684388 696.877929688 577 c 1
 727.992674408 597.745048177 796.328666254 616.041992188 827.15625 616.041992188 c 0
 886.981650425 616.041992188 902.942085955 589.300555157 903.119140625 563.750976562 c 0
 904.144386688 415.804555282 714.596101147 187.869834875 555.900390625 -4 c 1
 527.668945312 -6.33333333333 479.67578125 -10.2222222222 445.73046875 -18 c 1
 453.721658 127.195390795 462.752847742 282.898122347 457.348632812 391.135742188 c 0
 558.50390625 458 l 4
 529.815429688 340.172851562 536.203125 151.745117188 554.458007812 47.8681640625 c 4
 540.66796875 72 l 1
223.66796875 72 m 1
 298.632465742 163.771526554 476.326171875 354.49536993 476.326171875 489.877929688 c 0
 476.326171875 530.830144167 444.47489672 545.859536655 379.877929688 545 c 1
 376.041015625 553.000017705 376.041015625 563.666684388 379.877929688 577 c 1
 410.992674408 597.745048177 479.328666254 616.041992188 510.15625 616.041992188 c 0
 569.981650425 616.041992188 585.942085955 589.300555157 586.119140625 563.750976562 c 0
 587.144386688 415.804555282 397.596101147 187.869834875 238.900390625 -4 c 1
 211.693959938 -6.33333333333 165.443310103 -10.2222222222 132.73046875 -18 c 1
 143.472932368 155.940927891 155.613456664 342.469422033 148.348632812 472.135742188 c 0
 144.20607323 545.923427366 100.132592447 552.379374978 36.07421875 552 c 1
 27.9866536458 561.90496749 32.0654296875 584.233754758 41.07421875 594 c 1
 92.4534165853 593.625 166.372070312 598.724609375 231.958007812 615 c 1
 245.810546875 597 l 1
 234.44921875 428.780273438 230.436523438 186.849609375 248.458007812 47.8681640625 c 0
 248.526367188 47.3427734375 248.2734375 47.0947265625 247.93359375 47.0947265625 c 0
 243.830078125 47.0947265625 223.66796875 72 223.66796875 72 c 1
EndSplineSet
Layer: 3
SplineSet
549 530 m 1
 549 572 l 1
 632 577 557 558 651 589 c 1
 665.939453125 571 l 1
 660.549804688 506.66796875 647.34145895 411.950906239 647 297 c 0
 646.83984375 243.083984375 653 104 676 51 c 0
 683 34 647 78 647 78 c 1
 733 182 862 325 886 472 c 0
 895 525 865 545 787 544 c 1
 781 576 l 1
 814 600 895 617 924 616 c 0
 989 615 1000 583 997 556 c 0
 978 377 827 204 662 -4 c 1
 632 -7 581 -12 545 -22 c 1
 561.421875 79.18359375 565.98828125 179.830078125 569.098632812 269 c 0
 577.592773438 512.509765625 656.94921875 531.087890625 549 530 c 1
29 530 m 1
 23 572 l 1
 106 577 209 581 303 612 c 1
 317.939453125 594 l 1
 312.549804688 529.66796875 300.358398438 411.90234375 297 297 c 0
 294.83984375 223.083984375 303 104 326 51 c 0
 333 34 297 78 297 78 c 1
 383 182 532 325 556 472 c 0
 565 525 525 550 447 539 c 5
 442 571 l 5
 480 594 555 617 594 616 c 0
 658.986332334 614.333683786 670 583 667 556 c 0
 648 377 477 204 312 -4 c 1
 282 -7 231 -12 195 -22 c 1
 211.421875 79.18359375 215.98828125 179.830078125 219.098632812 269 c 0
 227.592773438 512.509765625 136.94921875 531.087890625 29 530 c 1
EndSplineSet
EndChar

StartChar: V
Encoding: 86 86 22
GlifName: V_
Width: 826
VWidth: 79
Flags: HMW
LayerCount: 5
Back
SplineSet
779.319335938 759.60546875 m 5
 683.118164062 756.4921875 670.75390625 709.79296875 641.333984375 638.686523438 c 4
 540.73828125 395.549804688 425.083007812 92.47265625 373.807617188 -17.900390625 c 13
 238.850585938 -35.2626953125 l 5
 195.05859375 118.126953125 99.2080078125 445.11328125 28.28125 640.72265625 c 5
 -1.1044921875 722.461914062 -47.619140625 750.809570312 -111.751953125 749.60546875 c 5
 -122.749023438 819.33984375 l 5
 33.9697265625 810.166015625 163.194335938 812.083984375 299.913085938 819.33984375 c 5
 313.16015625 755.104492188 l 5
 208.680664062 746.856445312 148.693359375 731.734375 169.314453125 642.375976562 c 5
 168.938476562 642.325195312 l 5
 205.0703125 507.569335938 243.123046875 375.205078125 288.350585938 244.821289062 c 5
 302.875 196.584960938 323.53515625 66.734375 320.7734375 74.982421875 c 5
 363.33203125 173.946289062 472.463867188 422.768554688 546.000976562 650.715820312 c 5
 568.381835938 730.470703125 498.267578125 756.823242188 405.391601562 752.731445312 c 5
 393.018554688 819.33984375 l 5
 525.91015625 811.728515625 631.3046875 813.844726562 764.196289062 819.33984375 c 5
 779.319335938 759.60546875 l 5
EndSplineSet
Fore
SplineSet
55.310546875 799 m 1
 166.698242188 794 308.575195312 793 391.310546875 799 c 1
 393.475585938 735 l 1
 323.823242188 746 273.354492188 734 282.131835938 675 c 0
 301.564453125 556 352.654296875 377 378.638671875 238 c 0
 381.865234375 199 382.827148438 117 381.807617188 76 c 1
 475.188476562 267 628.848632812 591 651.561523438 654 c 0
 684.3125 750 604.189453125 749 556.067382812 748 c 1
 552.310546875 799 l 1
 662.8203125 795 772.208984375 790 876.310546875 799 c 1
 878.84375 738 l 1
 798.944335938 747 772.783203125 713 747.663085938 663 c 0
 626.018554688 429 504.517578125 188 427.484375 8 c 1
 387.75 2 338.28125 -10 297.689453125 -23 c 1
 262.395507812 187 222.591796875 401 155.396484375 669 c 0
 142.8046875 705 127.801757812 754 58.5771484375 744 c 1
 55.310546875 799 l 1
EndSplineSet
Layer: 3
SplineSet
52 799 m 1
 163 794 305 793 388 799 c 1
 387 735 l 1
 318 746 264 734 270 675 c 0
 283 556 330 384 345 245 c 0
 349 206 350 141 351 100 c 1
 446 301 589 591 615 654 c 0
 653 750 578 749 530 748 c 1
 529 799 l 1
 639 795 748 790 853 799 c 1
 852 738 l 1
 773 747 745 713 717 663 c 0
 583 429 471 188 384 8 c 1
 344 2 294 -10 253 -23 c 1
 229 187 198 401 145 669 c 0
 134 705 122 754 52 744 c 1
 52 799 l 1
EndSplineSet
EndChar

StartChar: C
Encoding: 67 67 23
GlifName: C_
Width: 748
VWidth: 79
Flags: HMW
LayerCount: 5
Fore
SplineSet
37.04296875 297 m 4
 54.1103515625 555.762695312 242.745117188 779.04296875 546.002929688 795 c 4
 680.954101562 802.1015625 750.942382812 770 750.942382812 770 c 5
 747.69921875 719 727.786132812 589 712.645507812 547 c 5
 654.012695312 550 l 5
 632.784179688 638 574.1484375 739 529.004882812 746 c 5
 545.575195312 767 711.780273438 736 647.151367188 641 c 5
 630.640625 645 598.087890625 714 475.087890625 714 c 4
 317.087890625 714 207.118164062 565.004882812 186.122070312 363 c 4
 167.518554688 184.005859375 230.543945312 64.201171875 414.766601562 66 c 4
 513.883789062 66.9677734375 595.540039062 105 652.416015625 153 c 5
 687.15234375 110 l 5
 605.379882812 22 488.87109375 -23 346.87109375 -23 c 4
 142.87109375 -23 23.3974609375 90.1201171875 37.04296875 297 c 4
EndSplineSet
Layer: 3
SplineSet
-28.951171875 299 m 4
 11.048828125 537 193.048828125 802 525.048828125 802 c 4
 686.048828125 802 749.048828125 766 749.048828125 766 c 5
 743.048828125 715 716.048828125 585 699.048828125 543 c 5
 640.048828125 546 l 5
 624.048828125 634 561.048828125 748 516.048828125 755 c 5
 534.048828125 776 708.048828125 732 638.048828125 637 c 5
 622.048828125 641 571.048828125 730 448.048828125 730 c 4
 290.048828125 730 158.048828125 589 120.048828125 393 c 4
 88.048828125 226 123.048828125 84 336.048828125 81 c 4
 425.048828125 80 514.048828125 118 573.048828125 166 c 5
 606.048828125 123 l 5
 519.048828125 35 409.048828125 -17 267.048828125 -17 c 4
 63.048828125 -17 -64.951171875 92 -28.951171875 299 c 4
EndSplineSet
EndChar

StartChar: q
Encoding: 113 113 24
GlifName: q
Width: 640
VWidth: 79
Flags: HMW
LayerCount: 5
Back
SplineSet
207.763671875 -13.080078125 m 4
 98.509765625 -13.080078125 50.9435870625 56.9832837911 50.9435870625 154.830338952 c 4
 50.9435870625 390.820034371 207.578429874 615.306742752 514.477240573 615.306742752 c 4
 535.754768505 615.306742752 557.865298967 614.232141458 580.829101562 612 c 5
 514.4765625 471 l 5
 514.4765625 471 470.940056262 543.826643912 375.999251235 543.826643912 c 4
 238.951219753 543.826643912 158.61176527 359.443349781 158.61176527 212.025071533 c 4
 158.61176527 134.139212672 179.071767404 75.9832902164 233.978939803 75.9832902164 c 4
 327.582970911 75.9832902164 435.24609375 252.602539062 454.142578125 360 c 5
 469.325195312 306 l 5
 446.249023438 200.368164062 367.655273438 -13.080078125 207.763671875 -13.080078125 c 4
456.888671875 -140.78125 m 4
 456.847700964 -204.000084748 509.690429688 -219.30078125 597.487304688 -221 c 5
 598.038085938 -239.177734375 593.499023438 -254.3828125 582.487304688 -270 c 5
 577.78125 -269.958007812 565.202148438 -269.9375 560.610351562 -269.9375 c 4
 474.221679688 -269.9375 412.041992188 -278.704101562 335.703125 -299 c 5
 322.810546875 -287 l 5
 349.200973473 -173.409138875 412.69395523 78.5760987012 444.477539062 225 c 5
 444.998046875 301 l 5
 457.356704544 378.7249947 470.736328125 440.384765625 470.736328125 528.697265625 c 4
 470.736328125 548.325195312 470.569335938 569.26953125 470.296875 592 c 5
 580.829101562 612 l 5
 596.607421875 593 l 5
 547.62652007 403.742732864 457 31 456.888671875 -140.78125 c 4
EndSplineSet
Fore
SplineSet
240.583984375 75.9912109375 m 0
 360.473632812 75.9912109375 442.936523438 294.880859375 453.782226562 353 c 1
 462.469726562 265 l 1
 429.37890625 161 345.734375 -18 198.5 -18 c 0
 79.8056640625 -18 41.0263671875 70.298828125 41.0263671875 157.346679688 c 0
 41.0263671875 363.943359375 196.984375 615.678710938 534.612304688 615.678710938 c 0
 549.3359375 615.678710938 564.407226562 615.130859375 579.827148438 614 c 1
 525.653320312 487 l 1
 525.653320312 487 462.709960938 541.713867188 383.444335938 541.713867188 c 0
 235.807617188 541.713867188 149.857421875 334.740234375 149.857421875 199.779296875 c 0
 149.857421875 135.262695312 174.205078125 75.9912109375 240.583984375 75.9912109375 c 0
456.888671875 -128.78125 m 0
 456.834960938 -212 499.690429688 -219.30078125 587.487304688 -221 c 5
 588.038085938 -239.177734375 583.499023438 -254.3828125 572.487304688 -270 c 5
 567.78125 -269.958007812 555.202148438 -269.9375 550.610351562 -269.9375 c 4
 464.221679688 -269.9375 412.041992188 -278.704101562 335.703125 -299 c 1
 322.810546875 -287 l 1
 349.200973473 -173.409138875 412.69395523 78.5760987012 444.477539062 225 c 1
 444.998046875 301 l 1
 457.356704544 378.7249947 470.736328125 440.384765625 470.736328125 528.697265625 c 0
 470.736328125 548.325195312 470.569335938 569.26953125 470.296875 592 c 1
 580.829101562 612 l 1
 596.607421875 593 l 1
 547.62652007 383.742732864 456.973725971 3.00001957696 456.888671875 -128.78125 c 0
EndSplineSet
Layer: 3
SplineSet
57 228 m 0
 89 433 242 645 603 612 c 1
 534 471 l 1
 534 471 481.0078125 552.875976562 367 543 c 4
 255.200195312 533.315429688 180 379 169 263 c 0
 159 159 179 73 248 71 c 0
 348 69 451 252 470 360 c 1
 489 296 l 1
 466 192 347.993178962 -12.7631650678 205 -17 c 0
 70 -21 36.6808387759 97.8303734078 57 228 c 0
349 -303 m 1
 334.868164062 -288 l 1
 377.847050048 -152.594769782 414.0625 -28.0458984375 442 97 c 0
 449.997070312 132.791992188 477 233 481 265 c 1
 462 301 l 1
 477 396 478 467 475 592 c 1
 603 612 l 1
 620 593 l 1
 571 411 512.208146242 122.783955984 496 -94 c 0
 488 -201 546 -218 665 -224 c 1
 660 -262 l 1
 510.1953125 -266.34765625 414.83984375 -285.087890625 349 -303 c 1
EndSplineSet
EndChar

StartChar: y
Encoding: 121 121 25
GlifName: y
Width: 662
VWidth: 79
Flags: HMW
LayerCount: 5
Back
SplineSet
-83 -254 m 5
 -71 -206 -53 -113 -46 -68 c 5
 -11 -120 35 -225 136 -196 c 5
 211 -161 303 -44 329 8 c 5
 250 -5 l 5
 251 182 185 423 122 499 c 4
 94 533 39 533 -8 530 c 5
 -2 575 l 5
 85 580 136 584 233 614 c 5
 245.5625 605 l 5
 250.19921875 511.611328125 272.28515625 414.143554688 298 297 c 4
 311 236 338 147 367 84 c 5
 410 128 518 288 519 472 c 4
 519 525 500 545 422 544 c 5
 426 576 l 5
 462 600 536 617 567 616 c 4
 632 615 642 583 640 556 c 4
 631 454 547 218 424 26 c 4
 316 -144 203 -283 58 -286 c 4
 3 -287 -45 -280 -74 -265 c 5
 -83 -254 l 5
EndSplineSet
Fore
SplineSet
591.227982894 616.041905489 m 0
 652.509565249 616.041905489 667.153273992 588.25124951 667.153273992 562.030328724 c 0
 659.615276673 453.003842754 554.94838345 232.004923609 432.43359375 36 c 0
 326.903359267 -137.637777472 193.181227145 -286.09375 47.1572568417 -286.09375 c 0
 -0.638996124268 -286.09375 -42.9970703125 -279.0625 -70.1845703125 -265 c 1
 -70.1845703125 -254 l 1
 -58.1845703125 -206 -49.1845703125 -113 -42.1845703125 -68 c 1
 -21.516622492 -127.935115289 27.7960084369 -193.020417138 100.652331118 -193.020417138 c 0
 210.339543721 -193.020417138 313.8504205 -35.9591204683 349.956305618 13.2717299073 c 1
 240.239257812 -5 l 1
 240.408560456 5.84934207926 240.494355785 16.8804544945 240.494355785 28.0505678636 c 0
 240.494355785 177.699865062 225.095166908 352.298095556 188.794921875 449 c 0
 165.398428142 511.323573672 120.217946577 531.107816197 47.9055737904 531.107816197 c 0
 37.7490355114 531.107816197 27.0572600671 530.717527816 15.8154296875 530 c 1
 15.8154296875 575 l 1
 102.815429688 580 176.911132812 584 268.408203125 614 c 1
 280.122070312 614 l 1
 283.4921875 520.611328125 284.421875 414.143554688 307.354492188 297 c 0
 319.900390625 229.978515625 335.967773438 110.21875 364.805664062 41 c 1
 395.524846151 87.5032979445 545.927987569 312.468520455 545.927987569 473.361084664 c 0
 545.927987569 524.1017997 528.299564113 544.035552347 459.838049995 544.035552347 c 0
 458.165063438 544.035552347 456.46172131 544.023648675 454.727539062 544 c 1
 454.727539062 576 l 1
 487.866062812 599.327576756 559.029329349 616.041905489 591.227982894 616.041905489 c 0
EndSplineSet
Layer: 3
SplineSet
-83 -254 m 1
 -71 -206 -53 -113 -46 -68 c 1
 -25.1208791209 -128.546875 27.2030652637 -194.349322324 106 -193 c 4
 220.896667532 -191.032504196 328.21639917 -33.1358959425 366 16 c 1
 384 8.1484375 l 1
 250 -5 l 1
 250.834960938 151.201171875 232.83203125 345.080078125 190.162109375 449 c 0
 160.9765625 520.077148438 103.28125 535.826171875 12 530 c 1
 6 575 l 1
 93 580 176 584 273 614 c 1
 285.5625 605 l 1
 290.19921875 511.611328125 292.28515625 414.143554688 318 297 c 0
 332.101694915 229.978540773 350.542372881 110.21888412 382 41 c 1
 414.140625 87.4803921569 568.026041667 311.646098999 569 472 c 0
 569.32190573 524.999022413 550 545 472 544 c 1
 476 576 l 1
 512 600 586 617 617 616 c 0
 682 615 692 583 690 556 c 0
 681 454 577 228 454 36 c 0
 346 -134 203 -283 58 -286 c 0
 3 -287 -45 -280 -74 -265 c 1
 -83 -254 l 1
EndSplineSet
EndChar

StartChar: l
Encoding: 108 108 26
GlifName: l
Width: 360
VWidth: 79
Flags: HMW
LayerCount: 5
Back
SplineSet
58.9150390625 822 m 1
 194.694335938 825.5390625 343.189453125 875 345.20703125 875 c 1
 317.30078125 765.991210938 223.836914062 360.206054688 218.4453125 180.267578125 c 0
 214.84765625 60.2216796875 267.774414062 67.1220703125 369.639648438 79 c 1
 373.763671875 40 l 1
 354.383789062 33.08203125 239.842773438 -15.7138671875 170 -14.55859375 c 4
 120.331054688 -13.736328125 93.486328125 24.6513671875 93.318359375 70 c 0
 92.86328125 192.901367188 198.388671875 530.606445312 202.934570312 706 c 0
 204.006835938 747.356445312 156.805664062 759 45.158203125 761 c 1
 58.9150390625 822 l 1
EndSplineSet
Fore
SplineSet
72.390625 67.53125 m 0
 73.0350168061 16.1793527552 104.3359375 -24.0283203125 163.03125 -24.0283203125 c 0
 226.95703125 -24.0283203125 281.576171875 -1.8876953125 310.700195312 16 c 1
 315.264648438 26.3671875 316.182617188 38.041015625 313.700195312 54 c 1
 302.63671875 52.5087890625 292.029296875 51.755859375 281.93359375 51.755859375 c 0
 202.805664062 51.755859375 180.151367188 77.0009765625 180.62890625 139.68359375 c 0
 182.244168652 331.76717705 274.102578647 674.948944654 320.796875 850 c 1
 307.658203125 871 l 1
 306.129882812 871 161.888671875 834 81.2724609375 834 c 1
 71.2548828125 824.202148438 66.1962890625 802.470703125 71.2724609375 791 c 1
 155.797851562 791 189.203487777 785.304984325 184.853515625 705.009765625 c 0
 174.498046875 513.860351562 71.0984982137 170.501463668 72.390625 67.53125 c 0
EndSplineSet
Layer: 3
SplineSet
44 787 m 1
 39 827 l 1
 174 827 325 871 327 871 c 1
 341.213867188 850 l 1
 330.40625 814.200195312 314.677249246 769.586746944 298 702 c 0
 279 625 237 421 228 361 c 0
 219 305 199 216 204 141 c 0
 210 51 272 58 374 70 c 1
 369 31 l 1
 349 20 233 -25 162 -24 c 4
 101.998046875 -23.1552734375 74.4075675384 15.2237834997 79 60 c 0
 91 177 187 437 194 684 c 0
 196.436523438 769.98828125 158 787 44 787 c 1
EndSplineSet
EndChar

StartChar: u
Encoding: 117 117 27
GlifName: u
Width: 690
VWidth: 79
Flags: HMW
LayerCount: 5
Fore
SplineSet
62.3232421875 81.4404296875 m 0
 62.3232421875 206.278320312 143.262695312 373.330078125 143.262695312 491.416015625 c 0
 143.262695312 534.821289062 120.352539062 544 51.9541015625 544 c 5
 48.9599609375 554.44921875 49.6728515625 569.504882812 56.9541015625 585 c 5
 161.247070312 584.514648438 257.580078125 605.047851562 257.6171875 605 c 2
 271.436523438 587 l 1
 229.041015625 445.724609375 154.0546875 304.534179688 154.0546875 173.586914062 c 0
 154.0546875 127.782226562 168.037109375 82.9970703125 216.0234375 82.9970703125 c 0
 312.701171875 82.9970703125 447.106445312 305.239257812 462.001953125 412 c 1
 485.127929688 388 l 1
 423.482421875 151.411132812 294.763671875 -5.32421875 168.431640625 -15.017578125 c 0
 96.140625 -20.6171875 62.3232421875 22.4599609375 62.3232421875 81.4404296875 c 0
384.458007812 58 m 0
 404.119140625 187.090820312 441.853515625 262.188476562 459.575195312 402.151367188 c 0
 468.55078125 473.037109375 481.780273438 559.162109375 478.248046875 593 c 1
 526.505859375 597.5 591.151367188 605 592.860351562 605 c 1
 605.94921875 587 l 1
 577.081054688 502.626953125 501.880859375 295.52734375 494.110351562 152 c 1
 488.205078125 57.9833984375 524.528320312 42.97265625 597.602539062 58 c 1
 601.629882812 45.333984375 599.470703125 32.66796875 594.602539062 20 c 1
 561.890625 -4.107421875 504.0625 -25.6474609375 452.2109375 -24 c 0
 400.54296875 -22.3583984375 378.2734375 17.39453125 384.458007812 58 c 0
EndSplineSet
Layer: 3
SplineSet
23 531 m 1
 27 572 l 1
 155 571 291 612 293 612 c 1
 307.903320312 594 l 1
 301.809570312 574.655273438 292.681640625 553.045898438 283 524 c 0
 265 455 208 313 202 170 c 0
 200 116 211 83 254 83 c 0
 359 82 503 305 518 412 c 1
 545 388 l 1
 474 150 298 -17 171 -15 c 0
 111 -14 84 10 85 73 c 0
 86 162 133 268 153 376 c 0
 156 394 166 434 163 465 c 0
 158 513 107 531 23 531 c 1
426 50 m 0
 444 127 477 194 501 306 c 0
 508 342 513 374 516 400 c 0
 524 476 518 561 513 596 c 1
 573 602 657 612 659 612 c 1
 672.088867188 594 l 1
 638.009765625 510.913085938 561.166006267 290.004781877 548 148 c 0
 540 54 598 49 672 69 c 1
 673 30 l 1
 657 22 566 -36 499 -35 c 0
 439 -34 416 6 426 50 c 0
EndSplineSet
EndChar

StartChar: k
Encoding: 107 107 28
GlifName: k
Width: 590
VWidth: 79
Flags: HMW
LayerCount: 5
Back
SplineSet
56.9150390625 824 m 5
 192.694335938 827.5390625 332.189453125 877 334.20703125 877 c 5
 324.420898438 838.772460938 294.358398438 730.05859375 275.791992188 642 c 4
 260.573242188 569.8203125 230.052734375 417.426757812 220.890625 361 c 4
 211.844726562 305.288085938 202.771484375 245.5078125 207.421875 170.99609375 c 4
 213.028320312 81.173828125 230.8515625 58.130859375 332.639648438 70 c 5
 336.763671875 31 l 5
 317.383789062 19.08203125 245.845703125 -24.521484375 176 -23.55859375 c 4
 116.331054688 -22.736328125 94.0400390625 15.76953125 97.318359375 61 c 4
 110.024414062 236.3203125 186.022460938 439.86328125 193.772460938 675 c 4
 196.185546875 748.206054688 160.560546875 760.124023438 43.158203125 763 c 5
 56.9150390625 824 l 5
350.883789062 234.34765625 m 5
 319.103515625 225.482421875 275.77734375 221 253.1328125 227 c 5
 256.345703125 232.168945312 253 243 258.064453125 259 c 5
 258.364257812 258.924804688 258.666015625 258.850585938 258.971679688 258.77734375 c 6
 259.064453125 259 l 5
 268.454101562 255.387695312 318.349609375 258.930664062 356.53125 278.875 c 4
 447.08203125 326.173828125 478.5859375 378.525390625 491.634765625 429 c 4
 501.578125 467.463867188 484.696289062 493.943359375 449 494.274414062 c 4
 323.62109375 495.4375 229.724609375 338.993164062 205.392578125 201 c 5
 185.73828125 234 l 5
 214.076171875 428 362.84375 611 507 611 c 4
 594 611 605.555664062 559.0703125 604.400390625 512 c 4
 601.661132812 400.405273438 527.286132812 302.526367188 417.129882812 251.205078125 c 5
 453.336914062 164.439453125 484.487304688 72.2255859375 599 67.2978515625 c 4
 616.203125 66.5576171875 645.1953125 70.4501953125 666.2265625 78 c 5
 678 50 l 5
 664.881835938 35 627 -20 532 -20 c 4
 399.014648438 -20 383.475585938 133.622070312 350.883789062 234.34765625 c 5
EndSplineSet
Fore
SplineSet
36.2236328125 -5 m 1
 108.081054688 194.502929688 181.8046875 622.127334177 181.8046875 724.1796875 c 4
 181.8046875 778.128323083 151.545503577 788.484268306 65.4873046875 788 c 1
 58.4627387775 798.748622616 64.8587829365 824.110657866 73.4873046875 831 c 1
 165.415958875 831 297.350250599 870 299.004882812 870 c 1
 311.916015625 849 l 1
 300.59765625 809.3515625 283.566450526 760.495525025 268.004882812 681 c 0
 223.525238199 453.777861036 167.174989424 206.772411738 170.129882812 0 c 1
 134.644649141 -5 93.232421875 -12.400390625 53.9375 -18.833984375 c 1
 47.7568359375 -13.98828125 41.822265625 -9.318359375 36.2236328125 -5 c 1
572.456054688 61 m 1
 579.314453125 51.521484375 580.369140625 38.78125 572.456054688 21 c 1
 556.440429688 7.5224609375 493.010742188 -18.681640625 430.421875 -18.6669921875 c 0
 313.48828125 -18.6376953125 258.337890625 213.194335938 232.452148438 339 c 1
 302.610351562 386 383.869140625 509 410.581054688 589 c 1
 535.645507812 591 l 1
 535.645507812 575 l 1
 484.3515625 459.297851562 321.8984375 346.25390625 261.12890625 310 c 1
 258.80078125 308.611328125 296.54296875 346.278320312 294.361328125 345 c 1
 328.5 243.194335938 412.94921875 47.5634765625 572.456054688 61 c 1
EndSplineSet
Layer: 3
SplineSet
53 783 m 1
 57 824 l 1
 193 828 330 873 332 873 c 1
 342.942382812 850 l 1
 295.455542025 723.677316598 245.255351371 508.835290286 225 361 c 0
 203.8671875 206.754882812 200.44140625 78.248046875 213 5 c 1
 172.06640625 3.83203125 114.3125 -4.6962890625 76 -10 c 0
 59 10 l 0
 104 145 186 440 194 675 c 0
 196 748 170 780 53 783 c 1
263 359 m 1
 354 386 427 491 450 581 c 0
 566 583.32421875 l 1
 575 565 l 0
 522 448 399 365 328 341 c 1
 347.907226562 280.532226562 412.022460938 126.5234375 470 81 c 0
 495.282995805 61.1480211483 545.2578125 56.1962890625 599 72 c 1
 592 34 l 1
 573.885742188 18.6953125 509.060546875 -29.1474609375 434 -17 c 0
 382.842773438 -8.720703125 353.76068134 30.0352014978 330.126953125 136 c 0
 319.838867188 182.127929688 293.369266155 276.480520799 263 359 c 1
EndSplineSet
EndChar

StartChar: j
Encoding: 106 106 29
GlifName: j
Width: 386
VWidth: 79
Flags: HMW
LayerCount: 5
Back
SplineSet
99.8544921875 781.734375 m 4
 99.8544921875 823.528320312 133.403320312 852.086914062 174.846679688 852.086914062 c 4
 225.00390625 852.086914062 249.841796875 812.982421875 249.841796875 771.190429688 c 4
 249.841796875 729.396484375 216.29296875 700.8359375 174.846679688 700.8359375 c 4
 133.403320312 700.8359375 99.8544921875 739.940429688 99.8544921875 781.734375 c 4
99.8544921875 781.734375 m 4
 99.8544921875 823.528320312 133.403320312 852.086914062 174.846679688 852.086914062 c 4
 225.00390625 852.086914062 249.841796875 812.982421875 249.841796875 771.190429688 c 4
 249.841796875 729.396484375 216.29296875 700.8359375 174.846679688 700.8359375 c 4
 133.403320312 700.8359375 99.8544921875 739.940429688 99.8544921875 781.734375 c 4
-28 -79 m 5
 68 -103 147 -71 161 77 c 5
 261 72 l 5
 262.500976562 -104.223632812 196.19921875 -152.735351562 69 -154.159179688 c 4
 14.095703125 -154.7734375 -37.2060546875 -138.005859375 -51 -130 c 5
 -28 -79 l 5
31 584 m 5
 114 582 271 595 271 595 c 5
 261.327148438 539.604492188 259.629882812 147.107421875 261 60 c 5
 161 70 l 5
 176 270 157 386 150 448 c 4
 145 493 109 523 37 523 c 5
 31 584 l 5
EndSplineSet
Fore
SplineSet
-5.97089616861 -95.4891629977 m 0
 44.499419095 -95.4891629977 103.505195819 -74.0402427292 131.575195312 -9 c 0
 180.431086037 103.368548668 211.620088488 224.626615258 211.620088488 438.245921951 c 0
 211.620088488 508.595543812 147.1217457 528.04495205 51.5751953125 531 c 5
 51.5751953125 572 l 1
 187.575195312 576 345.575195312 607 347.575195312 607 c 1
 359.41993084 586.000004799 l 1
 307.131152348 446.481527872 264.595537625 238.868841195 245.575195312 81 c 0
 229.470150748 -51.8666176506 217.39839704 -166.216975093 40.2829091832 -166.216975093 c 0
 -19.2390586945 -166.216975093 -65.2566605011 -139.70640383 -81.4248046875 -134 c 1
 -66.4248046875 -84 l 1
 -50.6565113871 -90.9380490522 -29.2192472084 -95.4891629977 -5.97089616861 -95.4891629977 c 0
242.439094261 768.380279473 m 0
 242.439094261 819.624634347 286.357189148 852 330.575195312 852 c 0
 373.707266944 852 393.026530854 822.978140589 393.026530854 788.044075656 c 0
 393.026530854 734.59959063 349.922076743 701 303.575195312 701 c 0
 267.057312355 701 242.439094261 731.939128645 242.439094261 768.380279473 c 0
EndSplineSet
Layer: 3
SplineSet
-63 -134 m 1
 -48 -84 l 1
 2 -106 109 -104 150 -9 c 0
 200 106 204 210 210 425 c 0
 212 498 170 500 73 503 c 1
 87 544 l 1
 223 548 364 597 366 597 c 1
 310 458 284 247 264 81 c 0
 248 -51 238 -159 68 -166 c 0
 4 -169 -46 -140 -63 -134 c 1
192 782 m 0
 199 824 238 852 279 852 c 0
 329 852 347 813 340 771 c 0
 333 729 293 701 252 701 c 0
 211 701 185 740 192 782 c 0
EndSplineSet
EndChar

StartChar: comma
Encoding: 44 44 30
GlifName: comma
Width: 196
VWidth: 79
Flags: HMW
LayerCount: 5
Fore
SplineSet
122.612304688 109 m 5
 172.15625 99.1708984375 188.547851562 96.1005859375 230.612304688 88 c 1
 213.40625 14.392578125 86.642578125 -145.477539062 -1.3876953125 -213 c 5
 -17.3876953125 -180 l 5
 28.6640625 -117.276367188 102.166015625 -20.58203125 122.612304688 109 c 5
EndSplineSet
Layer: 3
SplineSet
95 109 m 5
 144.543945312 99.1708984375 190.935573904 96.1002638056 233 88 c 1
 215.79379146 14.3923810387 159.030056882 -115.477353843 71 -183 c 1
 35 -140 l 5
 71.0517578125 -77.2763671875 94.5537109375 19.41796875 95 109 c 5
EndSplineSet
EndChar

StartChar: acute
Encoding: 256 180 31
GlifName: acute
Width: 478
VWidth: 0
Flags: HMW
LayerCount: 5
Fore
SplineSet
77.9794921875 1120 m 9
 87.9794921875 1066 l 17
 195.686523438 1081 366.788085938 1158 429.788085938 1204 c 9
 369.788085938 1298 l 17
 307.264648438 1232 169.979492188 1142 77.9794921875 1120 c 9
EndSplineSet
Layer: 3
SplineSet
73 1120 m 9
 83 1066 l 17
 191 1081 368 1158 431 1204 c 9
 371 1298 l 17
 308 1232 165 1142 73 1120 c 9
EndSplineSet
EndChar

StartChar: dieresis
Encoding: 168 168 32
GlifName: x
Width: 478
VWidth: 0
Flags: HMW
LayerCount: 5
Fore
SplineSet
77.9794921875 1120 m 9
 87.9794921875 1066 l 17
 195.686523438 1081 366.788085938 1158 429.788085938 1204 c 9
 369.788085938 1298 l 17
 307.264648438 1232 169.979492188 1142 77.9794921875 1120 c 9
EndSplineSet
Layer: 3
SplineSet
73 1120 m 9
 83 1066 l 17
 191 1081 368 1158 431 1204 c 9
 371 1298 l 17
 308 1232 165 1142 73 1120 c 9
EndSplineSet
EndChar

StartChar: E
Encoding: 69 69 34
GlifName: E_
Width: 698
VWidth: 79
Flags: HMW
LayerCount: 5
Fore
SplineSet
162.1328125 663 m 0
 165.439453125 711.381835938 148.557617188 739 80.435546875 739 c 1
 86.9033203125 800 l 1
 162.16796875 794 311.291015625 795 394.291015625 795 c 0
 480.291015625 795 593.413085938 796 691.024414062 801 c 1
 691.024414062 801 685.047851562 744 682.109375 720 c 24
 674.887695312 661 660.053710938 597 660.053710938 597 c 1
 588.91015625 604 l 1
 589.1328125 663 572.579101562 732 534.352539062 771 c 1
 623.354492188 722 l 1
 543.333984375 730 463.701171875 733 364.701171875 733 c 0
 314.701171875 733 299.028320312 703 292.356445312 673 c 0
 247.28125 470.333984375 227.04296875 258.495117188 216.5 135 c 0
 214.1953125 108 215.400390625 77 250.911132812 73 c 0
 339.583984375 63.01171875 460.5234375 78 513.114257812 91 c 1
 427.525390625 29 l 1
 476.5234375 78 506.8671875 138 529.946289062 204 c 1
 602.92578125 212 l 1
 602.483398438 206.556640625 589.474609375 85.775390625 572.975585938 0 c 1
 381.975585938 0 184.975585938 0 -6.0244140625 0 c 1
 1.4423828125 61 l 5
 70.17578125 64 82.5029296875 92.3095703125 92.2353515625 141 c 0
 120.616210938 283 150.188476562 488.251953125 162.1328125 663 c 0
179.899414062 367 m 1
 189.203125 443 l 1
 386.325195312 444 l 1
 540.405273438 461 l 1
 529.266601562 370 l 1
 405.124023438 377 305.14453125 369 179.899414062 367 c 1
EndSplineSet
Layer: 3
SplineSet
-12 0 m 1
 -9 61 l 1
 60 49 89 89 104 137 c 1
 228 135 l 1
 226 117 224 77 259 73 c 0
 347 64 454 79 492 86 c 1
 427 29 l 1
 467 68 516 145 533 204 c 1
 606 212 l 1
 606 212 602 139 592 80 c 24
 588 56 571 0 571 0 c 1
 -12 0 l 1
57 30 m 1
 57 30 85 72 104 136 c 0
 137 265 186 489 207 663 c 0
 213 711 204 743 127 739 c 1
 132 800 l 1
 207 794 353 795 436 795 c 0
 522 795 631 796 729 801 c 1
 729 801 722 744 718 720 c 24
 708 661 686 588 686 588 c 1
 615 596 l 1
 618 655 607 732 571 771 c 1
 657 722 l 1
 577 730 507 733 408 733 c 0
 358 733 341 703 333 673 c 0
 278 471 237 198 230 145 c 0
 224 99 222 44 281 44 c 1
 262 26 l 1
 57 30 l 1
199 367 m 1
 212 443 l 1
 412 444 l 1
 559 461 l 1
 543 370 l 1
 419 377 324 369 199 367 c 1
EndSplineSet
EndChar

StartChar: F
Encoding: 70 70 35
GlifName: F_
Width: 667
VWidth: 79
Flags: HMW
LayerCount: 5
Fore
SplineSet
211.408203125 144.709960938 m 1
 203.14453125 52.9765625 281.295680646 50.0116795176 298.217773438 51 c 1
 291.975585938 0 l 1
 -8.0244140625 0 l 1
 1.4423828125 62 l 1
 68.8916015625 67.8037109375 77.685546875 91.5751953125 87.41796875 136.365234375 c 1
 114.025390625 270 145.48828125 482.385742188 158.1328125 663 c 0
 161.520507812 711.385742188 155.313476562 738 79.435546875 739 c 1
 80.9033203125 800 l 1
 156.16796875 794 277.16796875 794 360.16796875 794 c 0
 446.16796875 794 556.413085938 796 684.024414062 801 c 1
 684.024414062 801 678.047851562 744 675.109375 720 c 24
 667.887695312 661 651.952148438 588 651.952148438 588 c 1
 580.931640625 596 l 1
 581.153320312 655 565.579101562 732 527.352539062 771 c 1
 606.232421875 721 l 1
 369.088867188 728 l 2
 311.211914062 729 292.274414062 705 284.1328125 663 c 0
 241.203125 443 214.702148438 202 211.408203125 144.709960938 c 1
157.368164062 379 m 1
 166.42578125 453 l 1
 402.548828125 454 l 1
 538.629882812 471 l 1
 526.51171875 372 l 1
 402.368164062 379 282.61328125 381 157.368164062 379 c 1
EndSplineSet
Layer: 3
SplineSet
6 0 m 1
 7 61 l 1
 89 57 117 89 133 137 c 1
 257 146 l 1
 238 51 350 50 367 51 c 1
 368 0 l 1
 6 0 l 1
81 0 m 1
 81 0 113 72 132 136 c 0
 166 270 209 482 231 663 c 0
 237 711 228 743 151 739 c 1
 156 800 l 1
 231 794 357 794 440 794 c 0
 526 794 655 796 783 801 c 1
 783 801 776 744 772 720 c 24
 762 661 740 588 740 588 c 1
 669 596 l 1
 672 655 661 732 625 771 c 1
 701 721 l 1
 445 728 l 2
 387 729 367 705 357 663 c 0
 302 443 263 202 257 145 c 0
 252 101 260 49 339 49 c 1
 314 1 l 1
 81 0 l 1
214 377 m 1
 226 443 l 1
 466 444 l 1
 613 461 l 1
 597 370 l 1
 473 377 339 379 214 377 c 1
EndSplineSet
EndChar

StartChar: P
Encoding: 80 80 36
GlifName: P_
Width: 692
VWidth: 79
Flags: HMW
LayerCount: 5
Fore
SplineSet
86.37890625 795 m 1
 223.27734375 786 311.990234375 800 461.990234375 800 c 0
 616.990234375 800 694.5859375 715 682.122070312 605 c 0
 664.094726562 441.173828125 545.641601562 321.578125 357.234375 320 c 4
 298.057617188 319.50390625 243.213867188 328 243.213867188 328 c 1
 229.727539062 225.990234375 225.002929688 180.073242188 224.364257812 125 c 0
 223.831054688 67.9365234375 257.918945312 56 310.918945312 56 c 1
 317.063476562 0 l 1
 248.94140625 -1 85.0634765625 0 11.0634765625 0 c 1
 8.5302734375 61 l 1
 77.5302734375 61 100.978515625 81 109.099609375 131 c 0
 144.416992188 346 161.983398438 465 173.569335938 625 c 0
 177.668945312 683 169.299804688 729 83.6669921875 732 c 1
 86.37890625 795 l 1
255.86328125 415 m 1
 289.126953125 397.877929688 328.397460938 387.341796875 382.55859375 388 c 0
 492.25 388.947265625 551.33203125 467.602539062 564.713867188 569 c 0
 579.546875 682 509.890625 742 420.135742188 744 c 0
 374.26171875 745.022460938 323.157226562 736 299.0546875 727 c 1
 281.506835938 649 269.014648438 514.272460938 255.86328125 415 c 1
EndSplineSet
Layer: 3
SplineSet
20 0 m 1
 21 61 l 1
 98 51 133 77 144 127 c 0
 191 342 217 467 237 627 c 0
 244 685 236 741 143 734 c 1
 145 797 l 1
 331 785 404 802 554 802 c 0
 709 802 752 717 734 607 c 0
 706 438 561 303 403 301 c 0
 352 300 286 314 286 314 c 1
 267 214 265 197 262 123 c 0
 259 65 303 61 356 61 c 1
 367 0 l 1
 299 -1 94 0 20 0 c 1
305 409 m 1
 334 383 376 366 428 367 c 0
 541 368 595 464 615 571 c 0
 636 684 574 744 494 746 c 0
 448 747 393 738 368 729 c 1
 346 652 323 507 305 409 c 1
EndSplineSet
EndChar

StartChar: S
Encoding: 83 83 37
GlifName: S_
Width: 668
VWidth: 153
Flags: HMW
LayerCount: 5
Back
SplineSet
35.2314453125 24 m 5
 38.1669921885 69 54.2724609383 149 79.849609375 226 c 5
 173.91015625 215 l 5
 167.331054688 155 171.280273438 98 201.521484375 54 c 5
 144.990234375 68 127.864257812 124 126.5625 179 c 5
 155.98046875 136 184.524414062 63.0537109375 282.521484375 54 c 4
 401.58203125 43 459.883789062 95.4609375 479.331054688 155 c 0
 535.834960937 328 176.833007812 345 178.685546875 554 c 0
 180.90234375 680 294.530273438 814 494.825195312 810 c 0
 614.47265625 808 688.830078125 776 688.830078125 776 c 1
 686.366210938 728 667.3203125 637 652.561523438 593 c 1
 562.501953125 604 l 1
 568.96484375 652 564.366210938 728 548.297851562 790 c 2
 589.204101562 625 l 1
 574.259765625 648 563.950195312 754 450.126953125 755 c 0
 369.302734375 756 320.018554688 692 316.8515625 623 c 0
 308.700195312 452 628.934570312 459 609.083984375 233 c 0
 595.634765625 83 487.178710938 -16 267.001953125 -17 c 4
 133.896484375 -17.6044921875 35.2314453125 24 35.2314453125 24 c 5
EndSplineSet
Fore
SplineSet
38.8466796875 23 m 5
 39.015625 38 40.439453125 56.888671875 43.0546875 78.2587890625 c 4
 48.287109375 121 58.2900390625 173.666992188 72.5732421875 225 c 5
 167.2265625 214 l 5
 163.8828125 154 170.905273438 97 203.518554688 53 c 5
 146.232421875 67 126.086914062 123 121.8203125 178 c 5
 156.467773438 131.0546875 174.6015625 57.947265625 289.6640625 57.947265625 c 4
 397.336914062 57.947265625 453.435546875 122.995117188 461.822265625 191.5078125 c 0
 484.103515625 373.525390625 108.418945312 362.450195312 138.048828125 604.504882812 c 0
 151.737304688 716.330078125 244.7890625 813.087890625 419.831054688 813.087890625 c 0
 537.76171875 813.087890625 618.633789062 781 618.633789062 781 c 1
 618.6796875 763.157226562 616.754882812 739.374023438 613.682617188 714.271484375 c 0
 608.48828125 671.841796875 600.013671875 625.64453125 592.232421875 598 c 1
 501.578125 609 l 1
 505.455078125 657 496.756835938 733 477.346679688 795 c 2
 527.149414062 630 l 1
 510.776367188 653.267578125 497.844726562 755.01171875 382.583007812 755.01171875 c 0
 310.590820312 755.01171875 249.444335938 700.18359375 242.041992188 639.708984375 c 0
 222.755859375 482.158203125 610.98046875 467.083007812 581.147460938 223.365234375 c 0
 565.537109375 95.8369140625 461.0703125 -12.0732421875 263.439453125 -13 c 4
 132.78125 -13.6123046875 38.0244140625 23.1044921875 38.8466796875 23 c 5
EndSplineSet
Layer: 3
SplineSet
52 17 m 1
 61 60 71 137 84 211 c 1
 108 163 177 61 326 57 c 0
 413 55 476 113 475 172 c 0
 473 303 172 353 197 550 c 0
 216 704 320 776 502 794 c 0
 568 800 651 798 651 798 c 1
 653 794 655 790 657 785 c 1
 645 732 631 669 621 599 c 1
 584 669 495 726 394 717 c 0
 307 709 291 633 303 572 c 0
 329 443 567 397 568 227 c 0
 569 67 420 -14 249 -14 c 0
 142 -14 84 -2 62 4 c 1
 55 12 52 17 52 17 c 1
EndSplineSet
EndChar

StartChar: U
Encoding: 85 85 38
GlifName: U_
Width: 767
VWidth: 79
Flags: HMW
LayerCount: 5
Fore
SplineSet
27.943359375 800 m 1
 142.345703125 795.549804688 240.5625 794.255859375 369.065429688 801 c 1
 369.065429688 801 368.434570312 755 369.108398438 736 c 1
 267.374023438 730 247.580078125 699 234.377929688 632 c 0
 209.709960938 504 182.125976562 295 180.86328125 252 c 4
 176.541015625 135 226.083984375 50.642578125 366.60546875 62 c 4
 462.495117188 69.75 536.010742188 146.329101562 559.698242188 267 c 4
 583.607421875 388.791992188 593.545898438 515.369140625 607.48046875 641 c 1
 607.602539062 642 l 1
 617.7421875 733 572.720703125 741 502.720703125 741 c 1
 501.6796875 757 501.71875 790 500.8203125 799 c 1
 601.626953125 794.7890625 730.357421875 795.955078125 807.943359375 800 c 1
 807.943359375 800 807.3125 754 807.986328125 735 c 1
 737.619140625 732 708.631835938 716.228515625 699.172851562 663 c 0
 670.068359375 499.228515625 659.009765625 343.626953125 637.026367188 237 c 4
 597.645507812 46 439.934570312 -17 310.934570312 -17 c 4
 195.934570312 -17 37.3203125 27 62.4150390625 232 c 4
 77.59375 356 113.07421875 556 119.357421875 640 c 0
 124.048828125 711 112.354492188 738 29.2314453125 737 c 1
 28.189453125 753 28.841796875 791 27.943359375 800 c 1
EndSplineSet
Layer: 3
SplineSet
21.2451171875 729 m 1
 21.2451171875 745 24.2451171875 791 24.2451171875 800 c 1
 89.2451171875 794 107.245117188 791 179.245117188 792 c 0
 220.245117188 792 310.245117188 793 372.245117188 801 c 1
 372.245117188 801 369.245117188 755 369.245117188 736 c 1
 270.245117188 750 232.245117188 679 215.245117188 612 c 0
 183.245117188 484 149.245117188 298 145.245117188 255 c 0
 134.245117188 138 184.245117188 54 320.245117188 65 c 0
 416.245117188 73 496.245117188 146 526.245117188 267 c 0
 556.245117188 389 572.245117188 515 596.245117188 641 c 0
 614.245117188 732 556.245117188 738 484.245117188 728 c 1
 484.245117188 744 488.245117188 790 488.245117188 799 c 1
 553.245117188 793 600.245117188 790 672.245117188 791 c 0
 713.245117188 791 739.245117188 792 801.245117188 800 c 1
 801.245117188 800 798.245117188 754 798.245117188 735 c 1
 749.245117188 742 697.245117188 717 685.245117188 663 c 0
 647.245117188 500 628.245117188 347 600.245117188 240 c 0
 550.245117188 49 390.245117188 -14 261.245117188 -14 c 0
 146.245117188 -14 -10.7548828125 30 25.2451171875 235 c 0
 47.2451171875 359 93.2451171875 556 104.245117188 640 c 0
 113.245117188 711 106.245117188 740 21.2451171875 729 c 1
EndSplineSet
EndChar

StartChar: I
Encoding: 73 73 39
GlifName: I_
Width: 414
VWidth: 79
Flags: HMW
LayerCount: 5
Fore
SplineSet
78.9638671875 800 m 1
 200.409179688 794.626953125 322.518554688 796.038085938 420.0859375 801 c 1
 416.49609375 739 l 5
 355.129882812 736 316.887695312 725.918945312 304.194335938 663 c 0
 277.537109375 530.87109375 251.083007812 368 232.765625 153 c 0
 226.731445312 82.1904296875 273.15625 50 325.645507812 54 c 1
 322.036132812 0 l 1
 -7.0859375 -1 l 1
 2.6259765625 62 l 1
 65.748046875 63 102.541015625 74.908203125 113.928710938 138 c 0
 133.953125 248.939453125 162.793945312 455 178.133789062 638 c 0
 183.096679688 697.201171875 171.448242188 738.604492188 73.1298828125 736 c 1
 78.9638671875 800 l 1
EndSplineSet
Layer: 3
SplineSet
10 -1 m 1
 14 59 l 1
 84 44 156 79 176 162 c 4
 204 273 246.59375 479.490234375 267 643 c 0
 275.940429688 714.635742188 218 739 146 739 c 1
 146 755 149 791 149 800 c 1
 214 794 254 791 326 792 c 0
 367 792 457 793 519 801 c 1
 519 801 516 765 516 746 c 1
 466 753 397.947265625 718.841796875 380 665 c 0
 346 563 278 267 276 140 c 0
 274.897460938 70.001953125 329 51 382 58 c 1
 381 0 l 1
 10 -1 l 1
EndSplineSet
EndChar

StartChar: O
Encoding: 79 79 40
GlifName: O_
Width: 818
VWidth: 153
Flags: HMW
LayerCount: 5
Fore
SplineSet
37.814453125 340.75390625 m 4
 71.916015625 619.344726562 267.891601562 804.451171875 508.046875 804.451171875 c 4
 688.051757812 804.451171875 805.530273438 690.76953125 774.482421875 437.126953125 c 4
 739.790039062 153.713867188 574.108398438 -15.33203125 322.284179688 -15.33203125 c 4
 109.490234375 -15.33203125 12.2080078125 131.571289062 37.814453125 340.75390625 c 4
374.846679688 56.810546875 m 4
 531.272460938 56.810546875 619.845703125 192.6328125 645.732421875 412.618164062 c 4
 667.08203125 594.053710938 581.068359375 731.471679688 443.19921875 730.264648438 c 4
 329.029296875 729.264648438 200.938476562 642.78515625 170.967773438 397.935546875 c 4
 147.482421875 206.08203125 211.102539062 56.810546875 374.846679688 56.810546875 c 4
EndSplineSet
Layer: 3
SplineSet
59.146484375 315 m 0
 108.146484375 606 319.146484375 804 555.146484375 803 c 0
 752.146484375 802 870.146484375 697 816.146484375 438 c 0
 768.146484375 205 614.146484375 -19 328.146484375 -14 c 0
 100.146484375 -10 27.146484375 121 59.146484375 315 c 0
208.146484375 411 m 0
 166.146484375 209 239.146484375 53 403.146484375 69 c 0
 544.146484375 84 656.146484375 232 691.146484375 404 c 0
 731.146484375 599 642.146484375 750 477.146484375 726 c 0
 410.146484375 716 259.146484375 659 208.146484375 411 c 0
EndSplineSet
EndChar

StartChar: T
Encoding: 84 84 41
GlifName: T_
Width: 691
VWidth: 79
Flags: HMW
LayerCount: 5
Fore
SplineSet
32.91015625 604 m 1
 43.6640625 651 61.9248046875 743 69.9033203125 800 c 1
 177.16796875 794 263.80078125 791 381.923828125 792 c 0
 450.923828125 792 627.044921875 793 730.024414062 801 c 1
 724.657226562 773.125 693.669921875 602.036132812 693.17578125 598 c 1
 622.154296875 606 l 1
 622.376953125 665 605.579101562 732 567.352539062 771 c 1
 643.90625 702 l 1
 558.701171875 733 459.376953125 728 374.088867188 728 c 0
 283.083007812 728 173.4765625 723 136.599609375 724 c 1
 195.12890625 761 l 1
 152.721679688 725 135.6640625 651 117.256835938 615 c 1
 32.91015625 604 l 1
253.883789062 759 m 1
 316.638671875 757 460.454101562 780 460.454101562 780 c 1
 408.018554688 572.426757812 364.46484375 301.885742188 357.48828125 129.139648438 c 0
 354.979492188 66.9853515625 408.974609375 63.0712890625 435.931640625 65 c 1
 438.975585938 0 l 1
 186.975585938 0 l 1
 114.975585938 0 l 1
 117.442382812 61 l 5
 187.993164062 63.3017578125 226.400390625 98.544921875 237.026367188 146.422851562 c 0
 276.880859375 326 305.135742188 571.58984375 310.5390625 699 c 0
 312.401367188 742.905273438 289.29296875 746 259.29296875 746 c 1
 253.883789062 759 l 1
EndSplineSet
Layer: 3
SplineSet
52 600 m 1
 84 737 80 703 98 800 c 1
 205 794 274 791 392 792 c 0
 461 792 618 793 721 801 c 1
 714 773 673 592 672 588 c 1
 601 596 l 1
 604 655 593 732 557 771 c 1
 630 702 l 1
 546 733 464 728 380 728 c 0
 289 728 176 722 139 723 c 1
 200 760 l 1
 156 724 141 649 131 613 c 1
 52 600 l 1
67 0 m 1
 88 61 l 1
 163 57 192 89 207 137 c 1
 334 146 l 1
 315 51 401 50 419 51 c 1
 409 0 l 1
 67 0 l 1
154 0 m 1
 154 0 190 72 206 136 c 0
 239 266 287 516 311 699 c 0
 317 743 297 746 267 746 c 1
 262 759 l 1
 325 757 470 780 470 780 c 1
 411 588 340 202 334 145 c 0
 329 101 309 49 391 49 c 1
 366 1 l 1
 154 0 l 1
EndSplineSet
EndChar

StartChar: R
Encoding: 82 82 42
GlifName: R_
Width: 792
VWidth: 79
Flags: HMW
LayerCount: 5
Fore
SplineSet
450.649414062 392.412109375 m 1
 512.776367188 287.921875 622.21875 60.2431640625 712.530273438 61 c 1
 717.063476562 0 l 1
 603.185546875 1 539.063476562 0 425.063476562 0 c 1
 418.041015625 57 l 1
 453.918945312 56 521.139648438 61.3994140625 485.487304688 126 c 0
 470.9765625 152.57421875 409.872070312 269.393554688 354.239257812 356.3046875 c 1
 450.649414062 392.412109375 l 1
EndSplineSet
Refer: 36 80 N 1 0 0 1 0 0 2
Layer: 3
SplineSet
20 0 m 1
 21 61 l 1
 98 51 133 77 144 127 c 0
 191 342 217 467 237 627 c 0
 244 685 236 741 143 734 c 1
 145 797 l 1
 331 785 404 802 554 802 c 0
 709 802 752 717 734 607 c 0
 706 438 566 333 408 331 c 0
 357 330 288 324 288 324 c 1
 269 224 265 197 262 123 c 0
 259 65 303 61 356 61 c 1
 367 0 l 1
 299 -1 94 0 20 0 c 1
307 419 m 1
 331 403 380 391 433 397 c 0
 528 408 585 464 605 571 c 0
 626 684 574 744 494 746 c 0
 448 747 393 738 368 729 c 1
 346 652 325 517 307 419 c 1
375 369 m 1
 403 362 488 377 524 387 c 1
 524 387 644 60 794 61 c 1
 795 0 l 1
 682 5 604 3 489 0 c 1
 485 57 l 1
 520 53 580 61 546 126 c 0
 530 156 449 320 375 369 c 1
EndSplineSet
EndChar

StartChar: Q
Encoding: 81 81 43
GlifName: Q_
Width: 842
VWidth: 153
Flags: HMW
LayerCount: 5
Fore
SplineSet
200.8671875 12 m 1
 272.96875 21 l 1
 316.60546875 -80 516.974609375 -126 629.729492188 -128 c 0
 752.484375 -130 845.646484375 -96 845.646484375 -96 c 1
 857.450195312 -130 l 1
 837.203125 -214 l 1
 771.75390625 -234 704.020507812 -240 591.142578125 -239 c 0
 347.631835938 -235 221.298828125 -58 200.8671875 12 c 1
EndSplineSet
Refer: 40 79 N 1 0 0 1 0 0 2
Layer: 3
SplineSet
297.344726562 -4 m 1
 370.344726562 5 l 1
 408.344726562 -96 508.344726562 -126 621.344726562 -128 c 0
 744.344726562 -130 861.344726562 -86 861.344726562 -86 c 1
 826.344726562 -204 l 1
 759.344726562 -224 690.344726562 -240 577.344726562 -239 c 0
 334.344726562 -235 314.344726562 -74 297.344726562 -4 c 1
EndSplineSet
Refer: 40 79 N 1 0 0.176327 1 -35.6556 0 2
EndChar

StartChar: L
Encoding: 76 76 44
GlifName: L_
Width: 691
VWidth: 79
Flags: HMW
LayerCount: 5
Fore
SplineSet
111.963867188 800 m 1
 222.228515625 791.209960938 359.1015625 794.87890625 444.841796875 799 c 1
 434.374023438 738 l 1
 364.259765625 738 330.53515625 731.977539062 318.41796875 673 c 0
 276.813476562 470.502929688 242.2734375 198 237.78515625 145 c 0
 235.078125 110.689453125 238.067382812 75.98828125 273.97265625 73 c 0
 333.459960938 68.322265625 444.266601562 75.1103515625 494.747070312 82.498046875 c 1
 519.134765625 120.482421875 538.84375 165.979492188 548.0078125 204 c 1
 622.986328125 212 l 1
 623.426757812 166.50390625 606.825195312 26.798828125 598.036132812 0 c 1
 2.0361328125 0 l 1
 11.748046875 63 l 1
 74.8701171875 64 109.07421875 82 124.107421875 146.999023438 c 0
 153.892578125 275.776367188 180.356445312 489.828125 192.194335938 663 c 0
 195.500976562 711.381835938 170.619140625 740 100.49609375 739 c 1
 111.963867188 800 l 1
EndSplineSet
Layer: 3
SplineSet
20 0 m 1
 41 61 l 1
 116 57 135 89 150 137 c 1
 264 135 l 1
 262 117 260 77 295 73 c 0
 383 64 490 79 528 86 c 1
 463 29 l 1
 503 68 552 145 569 204 c 1
 642 212 l 1
 642 212 638 139 628 80 c 24
 624 56 607 0 607 0 c 1
 20 0 l 1
103 30 m 1
 103 30 131 72 150 136 c 0
 183 265 227 489 248 663 c 0
 254 711 245 743 168 739 c 1
 173 800 l 1
 248 794 304 792 387 792 c 0
 425 792 462 794 507 796 c 1
 492 732 l 1
 475 732 457 733 439 733 c 0
 389 733 381 693 375 673 c 0
 317 471 273 198 266 145 c 0
 260 99 258 44 317 44 c 1
 298 26 l 1
 103 30 l 1
EndSplineSet
EndChar

StartChar: G
Encoding: 71 71 45
GlifName: G_
Width: 827
VWidth: 79
Flags: HMW
LayerCount: 5
Fore
SplineSet
25.9814453125 322 m 0
 53.3388671875 570 235.493164062 800 563.73828125 802 c 0
 684.826171875 802.737304688 760.677734375 777 760.677734375 777 c 1
 757.434570312 726 751.193359375 626 743.051757812 584 c 1
 677.419921875 587 l 1
 656.19140625 675 602.127929688 748 556.984375 755 c 1
 573.5546875 776 753.229492188 757 688.600585938 662 c 1
 672.090820312 666 603.604492188 735.639648438 480.4140625 734 c 0
 330.169921875 732 188.807617188 582 161.815429688 386 c 0
 137.516601562 212 209.541992188 57 396.17578125 54 c 0
 504.930664062 52 559.091796875 86 610.458007812 138 c 1
 672.541015625 106 l 1
 586.6875 1 451.260742188 -27 354.260742188 -27 c 0
 140.260742188 -27 3.1484375 115.012695312 25.9814453125 322 c 0
496.3046875 390 m 5
 598.326171875 384 694.692382812 386 793.3046875 390 c 5
 788.9609375 330 l 1
 772.227539062 330.935546875 705.427734375 338.250976562 695.97265625 261.010742188 c 0
 689.505859375 208.181640625 681.250976562 141.206054688 672.541015625 106 c 1
 529.196289062 46 l 1
 561.786132812 108.3828125 574.604492188 192.282226562 582.419921875 263.15625 c 0
 584.106445312 303.723632812 553.735351562 323.622070312 484.471679688 326 c 1
 496.3046875 390 l 5
EndSplineSet
Layer: 3
SplineSet
25.447265625 299 m 4
 65.447265625 537 238.447265625 802 569.447265625 802 c 4
 690.447265625 802 763.447265625 767 763.447265625 767 c 5
 757.447265625 716 745.447265625 616 735.447265625 574 c 5
 670.447265625 577 l 5
 654.447265625 665 605.447265625 748 560.447265625 755 c 5
 578.447265625 776 755.447265625 747 685.447265625 652 c 5
 669.447265625 656 613.447265625 720 490.447265625 720 c 4
 340.447265625 720 210.447265625 592 172.447265625 396 c 4
 138.447265625 222 185.447265625 60 371.447265625 57 c 4
 480.447265625 55 551.447265625 97 605.447265625 149 c 5
 668.447265625 116 l 5
 575.447265625 1 427.447265625 -37 320.447265625 -37 c 4
 106.447265625 -37 -10.552734375 92 25.447265625 299 c 4
387.447265625 388 m 1
 697.447265625 388 l 1
 664.447265625 275 l 1
 610.447265625 303 570.447265625 313 388.447265625 314 c 1
 387.447265625 388 l 1
532.447265625 46 m 1
 590.447265625 146 602.447265625 329 612.447265625 388 c 1
 699.447265625 388 l 1
 700.447265625 336 687.447265625 180 668.447265625 116 c 1
 532.447265625 46 l 1
EndSplineSet
EndChar

StartChar: D
Encoding: 68 68 46
GlifName: D_
Width: 820
VWidth: 79
Flags: HMW
LayerCount: 5
Fore
SplineSet
77.623046875 799 m 1
 258.27734375 793 392.235351562 804 482.235351562 804 c 4
 650.235351562 804 800.602539062 701 772.494140625 463 c 0
 735.526367188 149.977539062 541.30859375 4 263.818359375 0 c 0
 195.696289062 -1 57.818359375 0 -16.181640625 0 c 1
 -8.71484375 61 l 1
 55.7958984375 57 93.7333984375 81 101.853515625 131 c 0
 137.171875 346 155.228515625 469 166.813476562 629 c 0
 170.9140625 687 160.76953125 734 69.9111328125 736 c 1
 77.623046875 799 l 1
304.953125 720 m 1
 260.064453125 484 237.471679688 271.76171875 234.465820312 136 c 0
 233.135742188 75.91015625 297.346679688 77.7958984375 350.489257812 79 c 0
 482.856445312 82 610.811523438 196 638.354492188 372 c 0
 673.774414062 596 595.790039062 735 428.279296875 739 c 0
 374.401367188 740 333.177734375 730 304.953125 720 c 1
EndSplineSet
Layer: 3
SplineSet
-11 0 m 1
 -10 61 l 1
 67 51 102 77 113 127 c 0
 160 342 186 468 206 628 c 0
 213 686 206 742 113 735 c 1
 114 798 l 1
 304 786 454 803 544 803 c 0
 712 803 850 711 804 463 c 0
 743 142 554 4 276 0 c 0
 208 -1 63 0 -11 0 c 1
234 142 m 0
 228 80 274 74 327 75 c 0
 518 77 637 196 674 372 c 0
 721 596 626 734 459 738 c 0
 405 739 364 729 335 719 c 1
 277 483 253 338 234 142 c 0
EndSplineSet
EndChar

StartChar: J
Encoding: 74 74 47
GlifName: J_
Width: 422
VWidth: 79
Flags: HMW
LayerCount: 5
Fore
SplineSet
-92.755859375 -193 m 1
 -59.513671875 -142 l 1
 114.977539062 -187 124.666015625 -18 141.151367188 84 c 0
 160.962890625 205 179.658203125 469.989257812 199.801757812 653 c 0
 208.716796875 734 120.961914062 736 90.9619140625 736 c 1
 100.795898438 800 l 5
 218.865234375 794.202148438 319.64453125 793.897460938 450.91796875 801 c 5
 441.961914062 736 l 1
 370.59375 733 338.00390625 720 328.270507812 665 c 0
 286.66796875 415 268.817382812 261 247.642578125 39 c 0
 235.362304688 -94 180.204101562 -226 13.08203125 -227 c 0
 -41.91796875 -227 -79.7353515625 -201 -92.755859375 -193 c 1
EndSplineSet
Layer: 3
SplineSet
-26 -193 m 1
 10 -142 l 1
 182 -187 201 -18 223 84 c 0
 249 205 281 460 310 643 c 0
 325 734 241 739 209 729 c 1
 209 745 212 791 212 800 c 1
 277 794 315 791 387 792 c 0
 428 792 508 793 570 801 c 1
 570 801 567 755 567 736 c 1
 517 743 454 720 441 665 c 0
 386 415 360 261 327 39 c 0
 308 -94 245 -226 78 -227 c 0
 23 -227 -13 -201 -26 -193 c 1
EndSplineSet
EndChar

StartChar: K
Encoding: 75 75 48
GlifName: K_
Width: 851
VWidth: 79
Flags: HMW
LayerCount: 5
Fore
SplineSet
114.963867188 800 m 1
 236.287109375 793.626953125 338.396484375 795.038085938 446.0859375 801 c 1
 446.0859375 801 437.823242188 758 438.49609375 739 c 1
 387.619140625 740 329.009765625 726.918945312 316.315429688 664 c 0
 289.659179688 531.87109375 261.858398438 358 243.541015625 143 c 0
 237.5078125 72.1904296875 285.524414062 53 338.013671875 57 c 1
 332.036132812 0 l 5
 13.9140625 -1 l 5
 23.748046875 63 l 1
 89.9931640625 65 118.786132812 76.908203125 130.173828125 140 c 0
 150.198242188 250.939453125 174.400390625 460 196.745117188 643 c 0
 204.614257812 707.439453125 185.49609375 739 107.251953125 737 c 1
 106.2109375 753 115.862304688 791 114.963867188 800 c 1
319.0078125 387.3046875 m 1
 311.973632812 419.700195312 l 1
 353.827148438 453.525390625 501.767578125 583.96875 596.499023438 690 c 0
 613.537109375 709.869140625 613.7578125 739 541.129882812 736 c 1
 547.596679688 797 l 1
 666.984375 792 811.963867188 800 811.963867188 800 c 1
 805.7421875 741 l 1
 765.864257812 742 735.709960938 717.095703125 702.88671875 685 c 0
 639.771484375 623.284179688 487.661132812 481.565429688 427.662109375 425.412109375 c 1
 502.600585938 327.552734375 672.19140625 60.248046875 752.50390625 61 c 1
 747.036132812 0 l 5
 633.158203125 1 569.036132812 0 455.036132812 0 c 5
 458.013671875 57 l 1
 493.891601562 56 549.112304688 61.3994140625 511.459960938 126 c 0
 496.326171875 151.96484375 381.731445312 301.1484375 319.0078125 387.3046875 c 1
EndSplineSet
Layer: 3
SplineSet
20 0 m 5
 21 64 l 5
 96 60 137 89 152 137 c 5
 262 146 l 5
 243 51 308 53 326 54 c 5
 326 0 l 5
 20 0 l 5
97 0 m 5
 97 0 132 72 151 136 c 4
 185 271 222 489 251 679 c 4
 254 723 226 735 148 735 c 5
 152 798 l 5
 235 796 403 810 403 810 c 5
 340 597 269 208 262 145 c 4
 257 101 215 52 297 52 c 5
 272 1 l 5
 97 0 l 5
268 489 m 5
 297 477 327 458 414 458 c 5
 436 468 574 629 628 692 c 4
 646 713 647 739 568 736 c 5
 570 799 l 5
 687 797 838 802 838 802 c 5
 836 737 l 5
 796 738 767 731 732 699 c 4
 659 630 482 416 446 389 c 5
 415 387 338 390 284 380 c 5
 268 489 l 5
324 469 m 5
 352 462 410 456 446 466 c 5
 446 466 615 60 765 61 c 5
 766 0 l 5
 653 5 575 3 460 0 c 5
 456 57 l 5
 491 53 551 61 517 126 c 4
 501 156 363 390 324 469 c 5
EndSplineSet
EndChar

StartChar: Z
Encoding: 90 90 49
GlifName: Z_
Width: 732
VWidth: 79
Flags: HMW
LayerCount: 5
Fore
SplineSet
-5.046875 0 m 1
 -2.3330078125 14 -6.416015625 46 -1.35546875 71 c 1
 100.845703125 138 398.298828125 542 517.884765625 702 c 0
 531.087890625 720 537.678710938 733 487.678710938 733 c 0
 414.678710938 733 284.434570312 731 225.9453125 727 c 1
 198.047851562 687 180.928710938 637 170.908203125 596 c 1
 97.9296875 588 l 1
 97.9296875 588 101.866210938 661 109.087890625 720 c 0
 112.026367188 744 118.002929688 801 118.002929688 801 c 1
 165.248046875 803 278.390625 796 364.390625 796 c 0
 447.390625 796 628.146484375 794 704.879882812 800 c 1
 705.4140625 739 l 1
 608.211914062 672 176.010742188 74 154.80859375 56 c 1
 121.029296875 115 l 1
 148.358398438 85 232.896484375 73.68359375 288.889648438 73 c 0
 370.766601562 72 488.766601562 72 536.623046875 79 c 1
 560.275390625 117 576.272460938 166 584.924804688 204 c 5
 658.903320312 212 l 1
 658.903320312 212 652.96875 139 645.74609375 80 c 0
 642.80859375 56 634.953125 0 634.953125 0 c 1
 421.953125 0 207.953125 0 -5.046875 0 c 1
EndSplineSet
Layer: 3
SplineSet
52 0 m 1
 55 14 66 46 72 71 c 1
 156 128 483 542 611 702 c 0
 625 720 632 733 582 733 c 0
 509 733 390 731 331 727 c 1
 301 687 289 637 277 596 c 1
 204 588 l 1
 204 588 208 661 218 720 c 0
 222 744 235 801 235 801 c 1
 282 803 390 796 476 796 c 0
 559 796 761 794 838 800 c 1
 815 739 l 1
 714 672 249 74 227 56 c 1
 196 115 l 1
 222 85 305 76 360 73 c 0
 436 68 553 75 601 82 c 1
 628 120 643 166 654 204 c 1
 727 212 l 1
 727 212 723 139 713 80 c 0
 709 56 692 0 692 0 c 1
 52 0 l 1
EndSplineSet
EndChar

StartChar: Y
Encoding: 89 89 50
GlifName: Y_
Width: 724
VWidth: 79
Flags: HMW
LayerCount: 5
Fore
SplineSet
33.1474609375 802 m 1
 146.53515625 797 230.780273438 799 345.147460938 802 c 1
 352.537109375 748 l 1
 275.802734375 742 253.821289062 724.108398438 273.989257812 670 c 4
 292.212890625 621.108398438 313.666992188 553 341.7109375 488 c 5
 348.42578125 453 362.102539062 385 362.102539062 385 c 1
 414.916015625 457 496.192382812 557.4375 567.376953125 665 c 0
 605.389648438 722.4375 555.802734375 742 487.435546875 739 c 1
 486.147460938 802 l 1
 582.413085938 796 678.657226562 798 776.147460938 802 c 1
 780.047851562 744 l 1
 719.802734375 742 686.885742188 710 652.009765625 662 c 0
 536.791992188 505 443.18359375 402 396.390625 322 c 1
 367.024414062 319 326.921875 310 291.697265625 300 c 1
 250.18359375 402 222.809570312 480.458984375 143.744140625 668 c 0
 117.412109375 730.458984375 81.169921875 745 34.0478515625 744 c 1
 33.1474609375 802 l 1
154.420898438 69 m 1
 225.5859375 54 251.359375 93 264.724609375 145 c 0
 277.966796875 196 285.455078125 249 286.633789062 373 c 1
 419.102539062 385 l 1
 379.720703125 243 383.662109375 169 388.909179688 122 c 0
 393.911132812 73 413.564453125 62 466.420898438 69 c 1
 478.975585938 0 l 1
 153.852539062 -1 l 1
 154.420898438 69 l 1
EndSplineSet
Layer: 3
SplineSet
52 744 m 1
 54 802 l 1
 167 797 251 799 366 802 c 1
 371 748 l 1
 294 742 260 724 277 670 c 0
 293 621 322 563 347 498 c 1
 352 463 364 415 364 415 c 1
 421 487 483 557 560 665 c 0
 601 722 548 742 479 739 c 1
 481 802 l 1
 577 796 673 798 771 802 c 1
 772 744 l 1
 712 742 677 710 640 662 c 0
 516 505 439 412 388 332 c 1
 358 329 328 320 292 310 c 1
 256 412 221 481 152 668 c 0
 129 731 99 745 52 744 c 1
130 -1 m 1
 134 69 l 1
 204 54 233 93 249 145 c 0
 265 196 277 259 285 383 c 1
 408 395 l 1
 361 253 359 169 362 122 c 0
 364 73 383 62 436 69 c 1
 445 0 l 1
 130 -1 l 1
EndSplineSet
EndChar

StartChar: X
Encoding: 88 88 51
GlifName: X_
Width: 806
VWidth: 79
Flags: HMW
LayerCount: 5
Fore
SplineSet
-46.82421875 66 m 1
 40.17578125 66 79.15625 104.639648438 121.091796875 147 c 0
 170.361328125 196.767578125 280.715820312 340 343.999023438 424 c 1
 385.42578125 452 l 1
 444.383789062 517 519.665039062 601 553.03125 653 c 0
 594.926757812 718.295898438 574.088867188 727 502.211914062 728 c 5
 502.780273438 798 l 5
 599.80078125 790 723.80078125 790 811.780273438 798 c 5
 812.82421875 733 l 5
 733.82421875 733 687.650390625 695.252929688 625.358398438 623 c 0
 562.422851562 550 469.814453125 447 427.44921875 395 c 1
 406.857421875 382 l 1
 345.634765625 323 281.280273438 234.892578125 231.049804688 163 c 0
 198.8359375 116.892578125 175.564453125 61 267.564453125 61 c 1
 269.219726562 1 l 1
 -46.7802734375 1 l 1
 -46.82421875 66 l 1
48.7802734375 798 m 5
 173.434570312 787 305.678710938 789 405.657226562 797 c 5
 408.82421875 733 l 5
 306.701171875 732 301.942382812 700.1640625 324.6640625 650 c 0
 359.95703125 572.077148438 415.548828125 453 422.95703125 440 c 1
 433.447265625 444 l 1
 463.61328125 380 587.17578125 66 720.686523438 62 c 1
 729.219726562 1 l 1
 360.219726562 1 l 1
 355.686523438 62 l 1
 413.809570312 63 462.033203125 73 431.602539062 143 c 0
 405.676757812 202.633789062 355.208007812 295 328.307617188 353 c 1
 310.755859375 373 l 1
 277.059570312 449 238.407226562 522.103515625 189.235351562 622 c 0
 147.249023438 707.30078125 111.579101562 731 48.5791015625 731 c 5
 48.7802734375 798 l 5
EndSplineSet
Layer: 3
SplineSet
52 -3 m 1
 61 62 l 1
 137 61 166 104 205 147 c 0
 255 203 381 353 446 437 c 1
 515 437 l 1
 575 504 655 586 696 638 c 0
 745 701 710 730 638 731 c 1
 642 801 l 1
 739 793 859 793 947 801 c 1
 947 739 l 1
 848 739 844 697 780 623 c 0
 715 547 622 446 573 394 c 1
 510 381 l 1
 446 322 378 235 324 163 c 0
 289 117 278 53 367 57 c 1
 372 -3 l 1
 52 -3 l 1
183 734 m 1
 185 801 l 1
 309 790 449 792 549 800 c 1
 557 736 l 1
 455 735 408 709 433 650 c 0
 446 618 528 453 535 440 c 1
 561 444 l 1
 612 350 700 72 833 68 c 1
 836 -3 l 1
 461 -3 l 1
 461 61 l 1
 508 56 597 62 558 152 c 0
 532 210 483 325 449 383 c 1
 420 383 l 1
 390 459 335 550 302 632 c 0
 272 706 246 735 183 734 c 1
EndSplineSet
EndChar

StartChar: N
Encoding: 78 78 52
GlifName: N_
Width: 926
VWidth: 79
Flags: HMW
LayerCount: 5
Fore
SplineSet
260.02734375 719 m 1049
-9.517578125 61 m 1,0,1
 63.60546875 62 94.685546875 79 109.845703125 162 c 0,2,3
 131.43359375 273 156.731445312 468.967773438 174.500976562 633 c 0,4,5
 182.192382812 704 148.108398438 736 78.1083984375 736 c 1,6,7
 77.0673828125 752 78.841796875 791 77.943359375 800 c 1,8,9
 176.208984375 794 238.331054688 795 342.698242188 798 c 1,10,11
 393.147460938 703.828125 539.12890625 439.189453125 638.477539062 266 c 1,0,0
 662.560546875 224.017578125 672.647460938 104.583984375 686.807617188 80 c 0,12,13
 651.766601562 96 l 1,14,15
 679.681640625 177 718.19921875 508 724.500976562 633 c 0,16,17
 728.639648438 724 698.108398438 736 628.108398438 736 c 1,18,19
 627.067382812 752 627.841796875 791 626.943359375 800 c 1,20,21
 682.454101562 796 721.0859375 793 793.208984375 794 c 0,22,23
 834.208984375 794 875.208984375 794 937.065429688 801 c 1,24,25
 937.065429688 801 937.6796875 757 938.354492188 738 c 1,26,27
 877.475585938 739 847.150390625 720 835.41796875 665 c 0,28,29
 798.505859375 486 768.333984375 215 750.015625 0 c 1,30,31
 721.525390625 -4 692.403320312 -5 641.056640625 -16 c 1,32,-1
 638.934570312 -17 l 1,33,34
 500.88671875 238.948242188 425.436523438 383.174804688 310.473632812 574 c 1,0,0
 307.263671875 579.327148438 263.2578125 713.66015625 260.02734375 719 c 1,0,0
 256.001953125 725.655273438 283.763671875 693.3203125 279.702148438 700 c 1,35,36
 245.423828125 518 209.028320312 188 209.275390625 141 c 0,37,38
 211.706054688 71 246.870117188 56 298.870117188 56 c 5,39,-1
 301.015625 0 l 1,40,-1
 -9.1064453125 -1 l 1,41,-1
 -9.517578125 61 l 1,0,1
EndSplineSet
Layer: 3
SplineSet
20 -1 m 1
 24 69 l 1
 94 54 146 79 166 162 c 0
 194 273 232 479 257 643 c 0
 272 734 228 739 156 729 c 1
 156 745 159 791 159 800 c 1
 256 791 317 790 432 794 c 1
 488 677 702 266 768 140 c 0
 772 132 700 104 704 96 c 1
 736 177 794 518 807 643 c 0
 816 734 776 739 704 729 c 1
 704 745 707 791 707 800 c 1
 772 794 792 791 864 792 c 0
 905 792 975 793 1037 801 c 1
 1037 801 1034 755 1034 736 c 1
 984 743 933 720 918 665 c 0
 871 486 827 215 797 0 c 1
 768 -4 751 -5 699 -16 c 1
 697 -17 l 1
 565 255 469 446 356 650 c 1
 312 468 266 186 264 139 c 0
 263 69 317 62 370 69 c 1
 369 0 l 1
 20 -1 l 1
EndSplineSet
EndChar

StartChar: M
Encoding: 77 77 53
GlifName: M_
Width: 1153
VWidth: 79
Flags: HMW
LayerCount: 5
Fore
SplineSet
96.0244140625 800 m 1
 194.413085938 795 263.53515625 796 357.903320312 799 c 1
 384.743164062 716 508.260742188 420.788085938 548.53515625 265 c 5
 556.653320312 215.74609375 555.55078125 149.122070312 550.114257812 90 c 1
 571.994140625 40 l 1
 500.423828125 19 l 1
 478.908203125 95.333984375 379.287109375 397.256835938 318.631835938 556 c 1
 309.758789062 577.73828125 298.536132812 681.46875 291.171875 695 c 1
 303.478515625 673 l 0
 269.200195312 491 240.498046875 183 241.112304688 139 c 0
 243.543945312 69 264.830078125 55 326.830078125 55 c 1
 331.096679688 0 l 1
 7.9755859375 -1 l 1
 7.564453125 61 l 1
 80.3193359375 59 123.767578125 79 138.927734375 162 c 0
 160.515625 273 186.997070312 480.963867188 205.051757812 645 c 0
 213.966796875 726 155.190429688 736 95.1904296875 736 c 1
 94.1494140625 752 96.923828125 791 96.0244140625 800 c 1
504.155273438 74 m 1
 631.840820312 292 826.458007812 681 887.780273438 798 c 1
 951.16796875 793 1054.16796875 793 1154.02441406 800 c 1
 1155.31347656 737 l 1
 1085.31347656 737 1042.19921875 723.967773438 1029.80664062 643 c 0
 1004.70214844 478.963867188 980.291015625 263 974.704101562 152 c 0
 969.543945312 69 994.5859375 53 1067.83007812 55 c 1
 1070.97558594 -1 l 1
 730.096679688 0 l 1
 728.564453125 61 l 1
 790.319335938 59 828.543945312 69 848.112304688 139 c 0
 859.865234375 186 904.504882812 518 914.784179688 700 c 1
 906.559570312 690 954.108398438 738.858398438 947.211914062 728 c 0
 844.06640625 565.6015625 700.381835938 289 572.994140625 40 c 1
 504.155273438 74 l 1
EndSplineSet
Layer: 3
SplineSet
10 -1 m 1
 14 69 l 1
 84 54 138.347814356 81.2265103569 166 162 c 0
 204 273 242 479 257 643 c 0
 265.400421908 734.844612862 188 739 136 729 c 1
 136 745 139 791 139 800 c 1
 236 791 286 790 401 794 c 1
 427 711 507 515 550 360 c 0
 566 300 572 214 588 176 c 1
 575 116 l 5
 547.666666658 112.96863062 520.333007812 107.96875 483 95 c 5
 462 299 381 528 326 650 c 5
 323 641 360.606233457 682.121817098 358 673 c 0
 306 491 266 223 264 139 c 0
 262.333635533 69.0126923688 337 62 390 69 c 1
 389 0 l 1
 10 -1 l 1
506 150 m 1
 703 438 830 677 898 794 c 1
 1011 790 1086 791 1187 800 c 1
 1186 771 1185 745 1186 729 c 1
 1118 739 1049 704 1032 613 c 0
 999 449 977 303 965 192 c 0
 955 109 991 54 1067 69 c 1
 1067 -1 l 1
 655 0 l 1
 658 69 l 1
 709 62 807 96 830 166 c 0
 844 213 896 468 916 700 c 1
 907 690 966 739 958 728 c 0
 833 556 721 365 576 116 c 1
 506 150 l 1
EndSplineSet
EndChar

StartChar: grave
Encoding: 96 96 54
GlifName: grave
Width: 486
VWidth: 0
Flags: HMW
LayerCount: 5
Fore
SplineSet
232.088867188 920 m 9
 232.088867188 866 l 17
 343.088867188 881 526.997070312 958 597.997070312 1004 c 9
 554.997070312 1098 l 17
 480.173828125 1032 328.088867188 942 232.088867188 920 c 9
EndSplineSet
Layer: 3
SplineSet
235 920 m 9
 236 866 l 17
 347 881 537 958 608 1004 c 9
 565 1098 l 17
 490 1032 331 942 235 920 c 9
EndSplineSet
EndChar

StartChar: question
Encoding: 63 63 56
GlifName: question
Width: 549
VWidth: 153
Flags: HMW
LayerCount: 5
Fore
SplineSet
237.066524265 806.677677132 m 0
 379.337358454 810.214876401 522.713009822 777.040032264 523.803308397 663.153566556 c 0
 523.803308397 510.996238361 364.222912167 477.16292082 272 380.662109375 c 0
 221.055174528 327.354131114 205.379994031 274.726445628 205.379994031 219.501217662 c 0
 205.379994031 213.332796484 205.54307708 207.163702002 205.831054688 201 c 1
 93.7666015625 201 l 1
 102.766601562 276 148.610601056 327.668726039 196.766601562 374 c 0
 297.000850509 470.436174089 408.020686764 537.723024347 410.897052566 677.414152326 c 0
 410.897052566 727.580258537 377.63365667 756.345927215 305.912643342 756.345927215 c 0
 230.242977844 756.345927215 163.996689155 702.940317983 120.766601562 632 c 5
 131.861328125 681.672851562 138.271484375 735.216796875 139.766601562 785 c 5
 166 803.990234375 l 5
 186.558437025 805.783817425 211.3694799 806.677677132 237.066524265 806.677677132 c 0
EndSplineSet
Refer: 10 46 N 1 0 0.176327 1 11 -3 2
Layer: 3
SplineSet
149 580 m 1
 147 612 158 697 169 732 c 1
 228 765 321 801 408 801 c 0
 527 801 613 734 558 580 c 0
 502 425 374 365 281 334 c 1
 274 276 275 216 275 198 c 1
 162 196 l 1
 170 231 187 331 192 354 c 1
 246 368 393 392 437 532 c 1
 467 647 439 779 310 740 c 1
 257 698 196 617 166 577 c 1
 149 580 l 1
EndSplineSet
Refer: 10 46 N 1 0 0.176327 1 77 2 2
EndChar

StartChar: quotesingle
Encoding: 39 39 57
GlifName: quotesingle
Width: 196
VWidth: 79
Flags: HMW
LayerCount: 5
Fore
Refer: 30 44 S 1 0 0 1 4 778.35 2
Layer: 3
SplineSet
107 832 m 5
 235.26171875 797.5234375 l 1
 211.602185216 733.106388109 138.463565222 608.423148345 100 575 c 1
 36 596 l 1
 67.4730675007 653.91997674 103.025450469 779.787610619 107 832 c 5
EndSplineSet
EndChar

StartChar: exclam
Encoding: 33 33 59
GlifName: exclam
Width: 325
VWidth: 153
Flags: HMW
LayerCount: 5
Fore
SplineSet
336.756255356 791.159689389 m 0
 338.711678956 791.159689389 340.603580752 791.107073375 342.423828125 791 c 1
 342.423828125 791 345.453413924 778.881656805 345.453413924 755.111060537 c 0
 345.453413924 740.25443787 344.269981971 720.846153846 340.423828125 697 c 0
 312.423828125 531 266.423828125 414 208.423828125 211 c 1
 134.423828125 211 l 1
 181.423828125 404 216.423828125 580 218.423828125 752 c 1
 247.764190814 774.715119501 302.18675196 791.159689389 336.756255356 791.159689389 c 0
EndSplineSet
Refer: 10 46 N 1 0 0.176327 1 37 -10 2
Layer: 3
SplineSet
138 206 m 1
 185 399 220 580 222 752 c 1
 253 776 312 793 346 791 c 1
 346 791 354 759 344 697 c 0
 316 531 270 414 212 211 c 1
 138 206 l 1
EndSplineSet
Refer: 10 46 N 1 0 0.176327 1 37 -10 2
EndChar

StartChar: parenright
Encoding: 41 41 60
GlifName: parenright
Width: 368
VWidth: 153
Flags: HMW
LayerCount: 5
Fore
SplineSet
276.26496622 555.571532854 m 0
 276.26496622 647.853592294 257.849903109 738.15636381 210.9296875 814 c 1
 281.9296875 865 l 1
 322.4296875 821.8 393.7096875 708.94 393.7096875 545.374 c 0
 393.7096875 527.2 392.8296875 508.4 390.9296875 489 c 0
 368.9296875 262 244.9296875 54 91.9296875 -133 c 1
 32.9296875 -95 l 1
 136.9296875 37 229.9296875 241 260.9296875 402 c 0
 270.575635151 452.37328218 276.26496622 504.278157875 276.26496622 555.571532854 c 0
EndSplineSet
Layer: 3
SplineSet
35 -95 m 1
 139 37 232 241 263 402 c 0
 290 543 286 696 213 814 c 1
 284 865 l 1
 329 817 412 683 393 489 c 0
 371 262 247 54 94 -133 c 1
 35 -95 l 1
EndSplineSet
EndChar

StartChar: parenleft
Encoding: 40 40 61
GlifName: parenleft
Width: 369
VWidth: 153
Flags: HMW
LayerCount: 5
Fore
SplineSet
240.976387418 134.105013412 m 0
 240.976387418 48.8298897148 252.022380173 -37.7531041073 286.85546875 -110 c 1
 244.85546875 -164 l 5
 191.723622211 -122.877382528 115.471682559 8.49195541177 115.471682559 174.54457162 c 0
 115.471682559 194.239381406 116.544344896 214.422092831 118.85546875 235 c 0
 142.327148438 462 274.62109375 696 437.85546875 883 c 1
 482.85546875 849 l 1
 378.85546875 717 275.553710938 483.766601562 254.85546875 322 c 0
 247.554548043 264.940182515 240.976387418 199.912032392 240.976387418 134.105013412 c 0
EndSplineSet
Layer: 3
SplineSet
122 235 m 0
 145.471571906 462 277.765886288 696 441 883 c 1
 486 849 l 1
 382 717 278.698650632 483.767011044 258 322 c 0
 241.238095238 191 228.285714286 18 290 -110 c 1
 248 -164 l 5
 188.566037736 -118 100.202760816 40.9236501198 122 235 c 0
EndSplineSet
EndChar

StartChar: hyphen
Encoding: 45 45 62
GlifName: hyphen
Width: 532
VWidth: 153
Flags: HMW
LayerCount: 5
Fore
SplineSet
298.55871582 405.5 m 0
 369.229980469 405.5 438.03125 408 523.463867188 413 c 1
 516.463867188 386 518.463867188 362 510.463867188 328 c 1
 45.43359375 328 l 1
 62.43359375 413 l 1
 155.346191406 408 227.887451172 405.5 298.55871582 405.5 c 0
EndSplineSet
Layer: 3
SplineSet
97 328 m 1
 129 433 l 1
 320 423 431 423 605 433 c 1
 598 406 585 362 577 328 c 1
 97 328 l 1
EndSplineSet
EndChar

StartChar: underscore
Encoding: 95 95 63
GlifName: underscore
Width: 646
VWidth: 153
Flags: HMW
LayerCount: 5
Fore
SplineSet
351.532226562 88.5 m 0
 445.697753906 88.5 537.999023438 91 623.431640625 96 c 1
 616.432617188 69 604.431640625 35 596.432617188 1 c 1
 37.447265625 1 l 1
 68.447265625 96 l 1
 161.336914062 91 257.366699219 88.5 351.532226562 88.5 c 0
EndSplineSet
Layer: 3
SplineSet
39 1 m 1
 70 96 l 1
 261 86 472 86 646 96 c 1
 639 69 627 35 619 1 c 1
 39 1 l 1
EndSplineSet
EndChar

StartChar: emdash
Encoding: 257 8212 64
GlifName: emdash
Width: 644
VWidth: 153
Flags: HMW
LayerCount: 5
Fore
SplineSet
339.056152344 415.5 m 0
 433.278076172 415.5 525.008300781 418 609.298828125 423 c 1
 607.298828125 396 601.298828125 362 599.298828125 328 c 1
 39.86328125 328 l 1
 53.86328125 423 l 1
 148.120605469 418 244.834228516 415.5 339.056152344 415.5 c 0
EndSplineSet
Layer: 3
SplineSet
39 328 m 1
 53 423 l 1
 246 413 457 413 629 423 c 1
 627 396 621 362 619 328 c 1
 39 328 l 1
EndSplineSet
EndChar

StartChar: r
Encoding: 114 114 66
GlifName: r
Width: 501
VWidth: 79
Flags: HMW
LayerCount: 5
Fore
SplineSet
35.8671875 533 m 1
 34.0029296875 545.219726562 34.9443359375 558.12890625 43.8671875 573 c 1
 150.677072052 573.485656738 267.50431144 606 269.131835938 606 c 1
 283.030273438 587 l 1
 264.784179688 520.569335938 229.403320312 392.986328125 208.212890625 309 c 5
 221.212890625 289 l 1
 201.892578125 192 192.482421875 125 194.3828125 -2 c 1
 159.973632812 -7.1259765625 97.75 -14.1298828125 69.22265625 -17.33984375 c 1
 57.8671875 -2 l 1
 85.4150390625 76 122.118330669 176.846679555 144.212890625 288 c 0
 186.226272094 499.360935118 180.127898988 535 35.8671875 533 c 1
394.000976562 481.396484375 m 4
 272.709725359 481.396484375 178.3671875 221.368591704 178.3671875 9.283203125 c 1
 138.26171875 106 l 1
 205.891601562 252.126953125 167.698973754 512.865831843 510.547851562 613 c 5
 523.547851562 599 l 1
 520.759384318 566.494307238 501.943909873 482.849009103 487.547851562 434 c 1
 464.12990414 462.262769094 432.234896924 481.396484375 394.000976562 481.396484375 c 4
EndSplineSet
Layer: 3
SplineSet
48 519 m 1
 62 560 l 1
 198 564 321 612 323 612 c 1
 337 598 l 1
 326 565 305.028320312 513.681640625 282 444 c 4
 266.2262409 396.270013704 250 347 233 299 c 1
 256 295 l 1
 241 198 222 125 225 -2 c 1
 182.163085938 -1.1259765625 123.69140625 -7.1298828125 77 -17.33984375 c 1
 65 -2 l 1
 102 76 164 196 181 288 c 0
 215 468 212 515 48 519 c 1
161 56 m 17
 237 211 201 530 576 615 c 1
 589 601 l 1
 572 536 563 498 553 436 c 1
 524 471 482 492 430 480 c 0
 304.833007812 451.115234375 204 216 210 3 c 9
 161 56 l 17
EndSplineSet
EndChar

StartChar: f
Encoding: 102 102 67
GlifName: f
Width: 434
VWidth: 79
Flags: HMW
LayerCount: 5
Back
SplineSet
40 483 m 5x20
 40 551 l 5
 82.6171875 549.163085938 115.038085938 547.866210938 164.651367188 547.2578125 c 5
 230.915039062 775.401367188 369.958007812 836.302734375 496 857 c 4
 553.744140625 866.482421875 649 867 649 867 c 5
 654.669921875 847 l 5
 636.171875 788.333984375 618.434570312 704.227539062 613 668 c 5
 574 741 491.083007812 798.720703125 423 781 c 4
 353.547851562 762.922851562 303.723632812 673.508789062 283.483398438 549 c 5
 396 549 l 5
 396 481 l 5
 270.423828125 481 l 5
 252.891601562 384.638671875 217.080078125 218.284179688 188 94 c 4
 135.080078125 -132.169921875 35 -228 -79 -230 c 4
 -141.671875 -231.099609375 -205.829101562 -211.076171875 -231 -191.006835938 c 5
 -237 -174 l 5
 -175 -9 l 5
 -175 -9 -143.022460938 -167.39453125 -55 -168 c 4
 74.0009765625 -168.887695312 104 176 142 400 c 4
 153.610351562 468.440429688 111.565429688 492.619140625 40 483 c 5x20
EndSplineSet
Fore
SplineSet
173.625 586 m 1
 229.677734375 812.7265625 361.932330377 877.181746545 572.415039062 867 c 1
 581.415039062 850 l 1
 571.916992187 790.15278943 553.849609375 724.95703125 542.415039062 688 c 1
 508.977539062 750.588867188 450.928710938 799.194335938 403.866210938 799.194335938 c 0
 315.038085938 799.194335938 289.278320312 657.940429688 269.45703125 578 c 1
 405.202148438 578 l 1
 410.340934712 550.724762621 400.570301481 545.941560874 395.188476562 530 c 1
 315.656552479 530.020969196 287.553952867 519.492126504 254.397460938 510 c 5
 218.280573806 352.649451532 168.003768356 52.9419225018 172.4921875 -102 c 1
 135.639648438 -106.41015625 102.612000706 -110.0625 63.9736328125 -117.05078125 c 1
 35.9736328125 -98 l 1
 60.2570580246 -28.5643454299 143.204695433 326.847969254 163.145507812 514.251953125 c 1
 146.762105663 520.539315563 99.5831060658 529.585416018 61.9736328125 528 c 1
 61.2576374708 542.234555581 61.0334754817 557.08841109 71.9736328125 586 c 1
 173.625 586 l 1
EndSplineSet
Layer: 3
SplineSet
66 507 m 5
 76 569 l 1
 118.6171875 567.163085938 141.038085938 567.608398438 190.651367188 569 c 1
 247.915039062 776.143554688 319.958007812 826.302734375 456 857 c 0
 513.08203125 869.880859375 609 867 609 867 c 1
 614.669921875 847 l 1
 596.171875 788.333984375 578.434570312 734.227539062 573 698 c 1
 534 771 469.783812771 824.978932625 414 805 c 0
 343.651367188 779.8046875 322.723632812 650.508789062 302.483398438 566 c 1
 432 566 l 1
 422 508 l 1
 289.423828125 499 l 1
 250.881835938 342.124023438 185.107421875 44.884765625 201 -104 c 1
 126.815429688 -106.41015625 138.74609375 -107.0625 63 -117.05078125 c 1
 35 -98 l 1
 64.0009765625 -28.8876953125 139.828125 188.698242188 178 422 c 4
 189.2421875 490.711914062 157.565429688 516.619140625 66 507 c 5
EndSplineSet
EndChar

StartChar: x
Encoding: 120 120 68
GlifName: uni0078
Width: 711
VWidth: 79
Flags: HMW
LayerCount: 5
Back
SplineSet
708 537 m 1x00
 621.875 554.568359375 537 504 503.634765625 455 c 0
 452.749023438 380.270507812 430.958007812 331.96484375 405.298828125 265 c 0
 377.5234375 192.5078125 356.934570312 106.274414062 327.090820312 50 c 0
 295.122070312 -10.2822265625 249.047851562 -19.0400390625 194 -19.763671875 c 0
 134.740234375 -20.54296875 86.3916015625 8.3974609375 63.0908203125 30 c 1
 69 66 l 1
 179.352539062 54.3017578125 231.421875 72.685546875 269 124 c 0
 304.282226562 172.1796875 347.161132812 269.3671875 374.522460938 328 c 0
 420.581054688 426.69921875 431.005859375 497.157226562 478.647460938 559 c 0
 516.19140625 607.734375 565.598632812 610.296875 588 611 c 0
 638.80859375 612.594726562 692.624023438 592.4765625 721 572 c 1
 708 537 l 1x00
216 479 m 1049
704.924804688 10.564453125 m 1
 610.249023438 9.064453125 526.510742188 0.232421875 471.415039062 -13 c 1
 427.379882812 193.998046875 293.9296875 399.301757812 216 479 c 0
 181.895507812 513.87890625 111.546875 533.006835938 57.8642578125 530 c 1
 71.0908203125 573 l 1
 154.208984375 570 244.561523438 585 328.090820312 606 c 1
 360.5859375 472.755859375 404.069335938 390.356445312 461.67578125 282 c 0
 523.194335938 166.286132812 564.532226562 39.13671875 713.166992188 52 c 1
 711.443359375 40.3994140625 706.685546875 23.2314453125 704.924804688 10.564453125 c 1
EndSplineSet
Fore
SplineSet
185.224343209 110.609562569 m 4
 279.879172276 110.609562569 311.392578125 268.00390625 337.510742188 346 c 5
 362.065910016 346 l 5
 362.065910016 382.734375 l 5
 382.4765625 382.734375 l 5
 435.23046875 517.948242188 499.762695312 612.354492188 619.763671875 612.354492188 c 4
 644.827148438 612.354492188 669.041992188 609 669.041992188 609 c 5
 669.041992188 600 l 5
 645.917968751 530 637.21875 451 636.256835938 440 c 5
 613.331054688 498 597.430664062 522 555.818359375 522 c 4
 487.895507812 522 407.84765625 364.174804688 392.828125 280 c 5
 350.603515625 254 l 5
 342.16796875 234 341.188339646 215.733299374 335.305664062 198 c 4
 295.646347458 78.4471665622 232.326684201 -9.18201776162 131.826968176 -9.18201776162 c 4
 110.877883114 -9.18201776162 82.1890496415 -5.8036701882 60.9501953125 3 c 5
 60.9501953125 19 l 5
 72.1494140625 67 85.2236328125 109 95.9482421875 163 c 5
 113.589197892 131.474103592 148.322074496 110.609562569 185.224343209 110.609562569 c 4
287.243101372 611.172608124 m 0
 333.824630392 611.172608124 360.783561293 594.573165508 373.879882812 533 c 0
 382.972536155 490.245427517 386.541723509 460.271108883 386.541723509 429.033453552 c 0
 386.541723509 406.10741458 380.028320312 357.483398438 378.590820312 342 c 0
 380.216796875 319 384.622070312 336.91796875 391.813476562 311 c 0
 408.338867188 245 442.869140625 146.192382812 480.038085938 107 c 0
 509.91202815 78.8416867259 539.303237478 67.1921011291 573.64566467 67.1921011291 c 0
 589.307635865 67.1921011291 605.999383392 69.6150338009 624.236328125 74 c 1
 624.236328125 34 l 1
 595.436047757 11.2594809164 525.925806518 -14.0099115029 470.695906888 -14.0099115029 c 0
 370.376887111 -14.0099115029 365.994838822 102.437934335 356.154296875 180 c 0
 350.330019142 225.906314348 342.56575941 240.277120548 339.697265625 266 c 0
 332.821289062 335 305.427734375 414.595703125 282.213867188 467 c 0
 263.115199433 507.115521356 233.516732282 530.491643336 172.79718216 530.491643336 c 0
 159.38791261 530.491643336 144.460866459 529.351588828 127.793945312 527 c 1
 127.793945312 563 l 1
 161.238460963 583.068978704 225.34106386 611.172608124 287.243101372 611.172608124 c 0
EndSplineSet
Layer: 3
SplineSet
57.5029296875 19 m 1
 68.7021484375 67 86.376953125 109 97.1015625 163 c 1
 116.126953125 129 155.032226562 107.400390625 196.802734375 111 c 0
 288.26171875 118.881835938 334.21875 265.05859375 360.76171875 342 c 0
 363.461914062 350 372.5 331.826171875 374.412109375 338 c 0
 377.19921875 347 384.249023438 359 392.561523438 374 c 1
 406.223632812 393 377.69921875 387 384.57421875 397 c 1
 448.247070312 519 504.848632812 605.51953125 619.383789062 612 c 0
 648.55078125 613.650390625 682.12109375 609 682.12109375 609 c 1
 688.333984375 600 l 1
 665.209960938 530 650.297851562 451 649.3359375 440 c 1
 626.41015625 498 610.509765625 522 566.509765625 522 c 4
 494.251953125 522 419.494140625 354.174804688 404.462890625 270 c 0
 402.00390625 256.018554688 381.58984375 253.146484375 375.837890625 240 c 0
 367.088867188 220 365.029296875 201.782226562 355.938476562 184 c 0
 294.44140625 66 239.643554688 -4.431640625 141.053710938 -9 c 0
 119.965820312 -10 86.228515625 -7 62.103515625 3 c 1
 57.5029296875 19 l 1
128.947265625 527 m 1
 128.096679688 563 l 1
 159.759765625 582 222.114257812 608.854492188 281.296875 611 c 0
 336.471679688 613 367.971679688 598.26171875 383.47265625 533 c 0
 392.97265625 493 396.260742188 462 397.8984375 435 c 1
 399.236328125 416 394.25 359.0078125 392.76171875 342 c 0
 394.75 319 397.107421875 336.91796875 405.049804688 311 c 0
 423.373046875 245 461.21875 146.192382812 501.202148438 107 c 0
 546.615234375 66 589.08984375 60 647.315429688 74 c 1
 638.815429688 34 l 1
 609.686523438 11 547.608398438 -14.5869140625 490.616210938 -14 c 0
 385.950195312 -13 382.426757812 103.59375 368.588867188 180 c 0
 365.901367188 195 372.467773438 211.677734375 367.962890625 230 c 0
 365.750976562 239 351.438476562 255.797851562 350.11328125 266 c 0
 342.021484375 335 311.984375 414.595703125 286.698242188 467 c 0
 261.342773438 515.974609375 221.084960938 540 128.947265625 527 c 1
EndSplineSet
EndChar

StartChar: z
Encoding: 122 122 69
GlifName: uni007A_
Width: 558
VWidth: 153
Flags: HMW
LayerCount: 5
Fore
SplineSet
287.562510896 86.930295312 m 0
 252.968535862 86.930295312 229.618757957 91.8705397047 229.618757957 116.026674194 c 0
 229.618757957 124.556538355 232.520299027 134.907089201 238.095703125 147 c 0
 266.369140625 203.321289062 315.421875 262.092773438 411.764648438 387 c 0
 427.587890625 407.515625 535.508789062 534.576171875 556.076171875 594 c 1
 534.927734375 613 l 1
 454.02043284 598.151055173 375.201028988 589.790942553 293.47675986 589.790942553 c 0
 235.673409971 589.790942553 176.416844921 593.973250943 113.940429688 603 c 1
 113.940429688 587 l 2
 113.940429688 510.5234375 100.940429688 470.713867188 90.9404296875 411 c 1
 148.69140625 494.65625 196.600585938 512.047851562 238.280273438 515.174804688 c 0
 267.872200136 517.444553882 293.672556733 518.994167715 315.134578692 518.994167715 c 0
 361.821714327 518.994167715 387.979450838 511.661252316 387.979450838 488.456856208 c 0
 387.979450838 478.672914554 383.329082766 466.067313347 373.606445312 450 c 0
 275.821289062 295.774414062 47.3994140625 74.5400390625 15.9404296875 4 c 1
 31.9404296875 -13.77734375 l 1
 105.834382781 2.22392907776 183.958102997 8.49195052638 266.807458061 8.49195052638 c 0
 330.328485981 8.49195052638 396.627415969 4.80737685367 465.927734375 -1 c 1
 479.927734375 12 l 1
 482.927734375 43 512.927734375 131 521.927734375 168 c 1
 456.503773288 102.373092343 398.800653215 86.930295312 287.562510896 86.930295312 c 0
EndSplineSet
Layer: 3
SplineSet
105 587 m 1
 105 510.5234375 101 470.713867188 91 411 c 1
 148.750976562 494.65625 196.660120267 512.047375501 240 515.174804688 c 0
 368.731792302 524.464160518 430.041992188 521.69140625 384.697265625 450 c 0
 282.40625 295.774414062 47.45831908 74.5396614368 16 4 c 1
 32 -13.77734375 l 1
 165.006835938 14.4921875 317.95703125 12.3818359375 482 -1 c 1
 496 12 l 1
 499 43 529 131 538 168 c 1
 470 99.7890625 410.340820312 85.7919921875 283 87 c 0
 235.78515625 87.4482421875 225.403320312 108.303710938 243.947265625 147 c 0
 273.391601562 203.321289062 324.9140625 262.092773438 426 387 c 0
 442.602539062 407.515625 551.581054688 534.576171875 572.1484375 594 c 1
 551 613 l 1
 407.817382812 587.64827474 267.4140625 581.2109375 114 603 c 1
 105 587 l 1
EndSplineSet
EndChar

StartChar: asterisk
Encoding: 42 42 74
GlifName: uni002A_
Width: 375
VWidth: 79
Flags: HMW
LayerCount: 5
Fore
SplineSet
366.921875 735.837890625 m 1
 369.265938762 720.103937105 369.844655572 714.896994565 371.569335938 701.537109375 c 1
 335.226002508 693.665700573 252.674022607 699.057670874 224 710.68359375 c 1
 233.078125 728 l 1
 234.50703678 685.086081567 252.017850412 629.519014983 268 584 c 1
 231 576 l 1
 204.002097377 596.614869258 169.105630578 683.149519898 165 715 c 1
 186.271484375 706.349609375 l 1
 140.752553917 692.666559885 90.5405033966 662.587828025 50.298828125 626.349609375 c 1
 29.1171875 652.349609375 l 1
 56.0501846903 690.50470615 103.163437595 736.961969654 142 761 c 1
 140.554924575 769.062483426 155.483585361 724.224105091 154 732 c 1
 133.842023612 772.643731087 66.8142893988 829.057028165 34.5185546875 847.779296875 c 1
 58.5087890625 871.018554688 l 1
 95.3818671438 859.069028367 155.054486766 837.626760207 199.833007812 790.590820312 c 1
 171 789 l 1
 200.370492966 811.829709624 248.668965436 890.40544262 258.076171875 918.349609375 c 1
 271.047692533 910.392717634 275.348128658 907.907226562 286.373046875 901.349609375 c 1
 279.114101026 865.516902453 270.310760701 813.527278683 236.36328125 758.251953125 c 1
 237 775 l 1
 267.027531156 756.229745788 329.771243897 740.485015245 366.921875 735.837890625 c 1
EndSplineSet
EndChar

StartChar: zero
Encoding: 48 48 77
GlifName: uni0030
Width: 696
VWidth: 153
Flags: HMW
LayerCount: 5
Fore
SplineSet
92.7062127345 255.974796081 m 0
 92.7062127345 530.229400293 245.884963198 688.287746306 437.821638444 688.453891083 c 0
 555.312759348 688.453891083 677.21010716 609.506656991 677.21010716 419.895873019 c 0
 677.21010716 401.259951363 676.03258269 381.555023364 673.557617188 360.750976562 c 0
 651.590860616 175.34688321 553.88383357 -5.33837897885 347.244911574 -5.33837897885 c 0
 186.107034735 -5.33837897885 92.7062127345 96.7496156928 92.7062127345 255.974796081 c 0
422.431649276 625.969594501 m 0
 350.988213223 625.969594501 249.532770772 547.793405078 228.109375 362.72265625 c 0
 224.977794346 336.070286706 223.416546925 310.75456255 223.416546925 286.977750527 c 0
 223.416546925 152.948148128 273.026171902 67.8184527558 370.617981855 67.8184527558 c 0
 465.492736373 67.8184527558 527.064647733 178.130245514 546.58984375 342.618164062 c 0
 549.849213581 369.852870199 551.453237525 395.552596825 551.453237525 419.522888817 c 0
 551.453237525 547.329012578 505.8529559 625.969594501 422.431649276 625.969594501 c 0
EndSplineSet
EndChar

StartChar: one
Encoding: 49 49 78
GlifName: uni0031
Width: 445
VWidth: 79
Flags: HMW
LayerCount: 5
Fore
SplineSet
118.714659898 643.94478738 m 0
 219.592713491 643.94478738 383.334960938 695 383.334960938 695 c 1
 360.625976562 591.489257812 297.530273438 85.765625 278 0 c 1
 174 0 l 1
 213.513010166 198.296645259 245.446909139 447.729049065 245.446909139 511.675585628 c 0
 245.446909139 574.131775761 182.211820264 603 111.583007812 603 c 1
 111.583007812 644 l 1
 113.440086082 643.962962963 116.811300396 643.94478738 118.714659898 643.94478738 c 0
93.5474771009 51.6556353293 m 0
 152.583496307 51.6556353293 189.339891637 82.336217432 199.821289062 137 c 1
 302.540039062 151 l 1
 301.510940324 143.84514542 301.028647502 137.20646446 301.028647502 131.047217886 c 0
 301.028647502 60.6899073656 370.030249169 52.8919801064 399.735351562 52.8919801064 c 1
 399.735351562 0 l 1
 72 0 l 1
 82.490234375 52 l 1
 86.2583647892 51.7699160392 89.9444151257 51.6556353293 93.5474771009 51.6556353293 c 0
EndSplineSet
EndChar

StartChar: two
Encoding: 50 50 79
GlifName: uni0032
Width: 650
VWidth: 153
Flags: HMW
LayerCount: 5
Fore
SplineSet
434.442854405 696.164847205 m 0
 547.137991669 696.164847205 636.401549283 651.687254089 636.401549283 551.687281937 c 0
 627.492949122 310.079475603 233.031276014 96.0235368254 159.3671875 60 c 1
 195.696289062 95.2607421875 l 1
 443.034179688 95.2607421875 l 2
 521.034179688 95.2607421875 536.41796875 150 547.03125 179.428710938 c 1
 620.083984375 179.428710938 l 1
 588 0 l 1
 58 0 l 5
 58 62 l 5
 144.743164062 105.818359375 308.559570312 219.91796875 377.239257812 287 c 0
 463.034653696 375.883338666 494.742094515 439.028090909 498.891123678 533.596610841 c 0
 498.891123678 591.85617275 473.295578063 634.06010992 404.400644783 634.06010992 c 0
 308.334715736 634.06010992 202.506704668 549.624679859 157.883789062 504 c 1
 164.54156899 561.371074883 171.058398483 613.609581545 171.058398483 627.439582946 c 0
 171.058398483 629.760754276 170.87482654 631.000000115 170.477539062 631 c 1
 230.974474612 662.03650401 354.112323202 696.164847205 434.442854405 696.164847205 c 0
EndSplineSet
EndChar

StartChar: three
Encoding: 51 51 80
GlifName: uni0033
Width: 601
VWidth: 153
Flags: HMW
LayerCount: 5
Fore
SplineSet
217.765625 330 m 1
 382.734096818 354.781731049 468.660925557 419.585223944 472.787109375 529.240234375 c 0
 472.787109375 600.448540859 425.39428511 631.153320312 369.831054688 631.153320312 c 4
 266.350890384 631.153320312 179.188908287 552.715159331 128.287109375 491 c 1
 136.990234375 553.732421875 141.372070312 622 141.372070312 622 c 1
 195.915301782 645.667127365 288.092360492 683.251107929 384.907341142 683.251107929 c 0
 523.805369778 683.251107929 579.051699659 624.706084618 579.051699659 548.167405114 c 0
 575.113870245 421.371653859 460.165016637 331.314323997 322.401367188 308 c 1
 312.401367188 332 l 1
 314.595261391 332.035199986 309.718664278 332.052734375 311.888671875 332.052734375 c 0
 456.764821929 332.052734375 551.922295521 261.009219943 550.342873569 152.929112577 c 0
 547.500797328 -55.2694912974 333.154478672 -123.6953125 160.151367188 -123.6953125 c 0
 125.311406842 -123.6953125 59.660760088 -115.653427993 43.6162109375 -109 c 1
 46.5839923655 -82.4445151905 68.8313096656 -25.2804849987 90.3154296875 17 c 1
 109.128588057 -21.4158942014 174.894343709 -55.3330078125 249.579101562 -55.3330078125 c 0
 391.610605768 -55.3330078125 452.935546875 50.0655257101 452.935546875 139.848632812 c 0
 452.935546875 240.020968139 342.151756964 281.541438593 227.765625 275 c 1
 217.765625 330 l 1
EndSplineSet
EndChar

StartChar: four
Encoding: 52 52 81
GlifName: uni0034
Width: 717
VWidth: 79
Flags: HMW
LayerCount: 5
Fore
SplineSet
466.376953125 394 m 9
 466.376953125 394 520.396484375 417.795898438 580.252929688 450 c 5
 521.510742188 161.8046875 504.516601562 64.859375 493.248046875 -112 c 1
 386.248046875 -112 l 1
 420.594726562 68.9462890625 450.126953125 229.84765625 466.376953125 394 c 9
199.63644163 187.540005925 m 0
 355.93600183 187.540005925 622.200825323 192.121445379 704.311523438 198 c 13
 704.311523438 103 l 21
 83.2783203125 103 l 1
 58.0673828125 139 l 1
 196.599609375 294.509765625 334.2578125 517.298828125 386.178710938 653 c 1
 420.729492188 654.815429688 456.51953125 655.961914062 513.529296875 664 c 1
 466.51171875 546.94140625 264.162109375 244.427734375 119.294921875 149 c 1
 130.079101562 187.965820312 l 1
 148.986516583 187.676325078 172.675489838 187.540005925 199.63644163 187.540005925 c 0
EndSplineSet
EndChar

StartChar: five
Encoding: 53 53 82
GlifName: uni0035
Width: 594
VWidth: 153
Flags: HMW
LayerCount: 5
Fore
SplineSet
231.380674333 -60.1549870568 m 0
 348.723653074 -60.4723335195 413.326558205 17.9693387804 417.0507753 145.754345395 c 0
 417.0507753 260.813736688 331.19613656 331.234568943 164.07733019 331.234568943 c 0
 151.360917117 331.234568943 138.173984471 330.826832286 124.518554688 330 c 1
 151.10546875 448.706054688 171.173828125 539.622070312 194.265625 670 c 1
 227.208829346 668.218331949 264.244832055 667.477275636 302.586628824 667.477275636 c 0
 393.618032833 667.477275636 492.01002043 671.654509321 560.463867188 676 c 1
 541.268554688 556 l 1
 414.392578125 563.736328125 383.608398438 564 243.250976562 564 c 1
 215.805101051 401.864063324 l 1
 402.866467133 401.864063324 552.186277846 330.650712585 552.186277846 171.658188692 c 0
 552.186277846 -14.6713857246 375.779756084 -103.765772632 264.020507812 -122 c 0
 234.618346697 -126.797149914 200.980444004 -128.843738134 168.56407325 -128.843738134 c 0
 107.993289414 -128.843738134 51.6873425346 -121.698312952 35.248046875 -112 c 1
 34.6426348832 -107.284540064 34.3408402379 -102.243673702 34.3408402379 -96.9368437782 c 0
 34.3408402379 -59.2714418008 49.5437390432 -8.20813111993 79.2978515625 35 c 1
 97.1902291615 -9.7895243973 145.906437311 -60.1549870568 231.380674333 -60.1549870568 c 0
EndSplineSet
EndChar

StartChar: six
Encoding: 54 54 83
GlifName: uni0036
Width: 658
VWidth: 153
Flags: HMW
LayerCount: 5
Fore
SplineSet
355.403597405 46.1458004189 m 0
 456.196900395 44.864885924 517.982134143 154.563476008 522.256058482 285.960580817 c 0
 522.256058482 386.938235306 463.772280301 424.376698381 396.390423171 424.376698381 c 0
 285.541285051 424.376698381 217.231542815 345.780480316 204.1328125 335 c 1
 206.544921875 335.498046875 185.455078125 371.251953125 187.67578125 372 c 1
 282.69889491 485.567503614 377.815429541 507.91991698 442.181988537 507.91991698 c 0
 534.04005364 507.91991698 642.378739109 448.341408019 642.378739109 302.000212464 c 0
 642.378739109 286.511374974 641.158940915 270.049212076 638.568359375 252.581054688 c 0
 617.763374148 116.478102621 506.35113987 -14.0138655116 328.71558905 -14.0138655116 c 0
 154.776344365 -14.0138655116 106.981098022 131.572921257 106.981098022 244.909224509 c 0
 106.981098022 569.659221797 324.623723069 743.03208711 522.6640625 787.263671875 c 0
 548.118512773 793.132454888 576.063674854 797.414837892 602.289453368 797.414837892 c 0
 611.60809785 797.414837892 620.709661499 796.874165474 629.405273438 795.671875 c 1
 629.405273438 743.018885065 l 1
 376.607611619 743.018885065 237.441902954 491.273996757 226.790039062 277.728515625 c 0
 226.304022569 267.984094566 226.062092184 258.489705302 226.062092184 249.256701317 c 0
 226.062092184 123.428312492 270.994701646 46.1458004189 355.403597405 46.1458004189 c 0
EndSplineSet
EndChar

StartChar: seven
Encoding: 55 55 84
GlifName: uni0037
Width: 662
VWidth: 0
Flags: HMW
LayerCount: 5
Fore
SplineSet
268.200979978 658.96412444 m 0
 422.906211869 658.96412444 578.194406986 667.510736009 655.510742188 672 c 1
 694.880859375 618 l 1
 531.134765625 456.462890625 316.534179688 126.818359375 225.283203125 -128 c 1
 191 -101 150.998389997 -85.2161579547 120.791015625 -75 c 5
 185.899414062 86.9560546875 418.899414062 451.646484375 613.395507812 601 c 5
 613.395507812 573 l 1
 323.479492188 573 l 1
 226.737181513 567.353278063 168.7109375 530.911132812 129.094726562 481.5 c 1
 140.927734375 542.708984375 153.275390625 580.061523438 161.651367188 660.5 c 1
 196.483546965 659.423695866 232.326589819 658.96412444 268.200979978 658.96412444 c 0
EndSplineSet
EndChar

StartChar: eight
Encoding: 56 56 85
GlifName: uni0038
Width: 626
VWidth: 153
Flags: HMW
LayerCount: 5
Fore
SplineSet
461.427689679 207.556747772 m 0
 461.427689679 117.379017698 413.551152731 39.9845329295 310.446491533 38.120516205 c 0
 224.14485515 38.120516205 188.228046676 98.2904539498 188.228046676 162.205400683 c 0
 191.626360995 247.829813849 232.398828595 307.991650273 330.974609375 350 c 0
 331.973300613 350.379805304 332.351690323 352.163275445 332.351690323 354.797226861 c 0
 332.351690323 363.037089869 328.648604471 379.600131581 328.648604471 387.550542526 c 0
 328.648604471 390.1801032 329.053694001 391.867507335 330.131835938 392 c 1
 180.268554688 383.083007812 82.408203125 280.234375 69.3642578125 174 c 0
 68.1787365656 164.344597496 67.5466856996 154.685152736 67.5466856996 145.113760645 c 0
 67.5466856996 56.2604474325 122.015643947 -25.0046518463 293.818754746 -25.0046518463 c 0
 440.689630323 -25.0046518463 590.771792511 61.7562461334 590.771792511 222.522306265 c 0
 590.771792511 440.615863997 258.129489237 421.583547333 258.129489237 590.263545886 c 0
 258.129489237 679.608035202 328.773356463 731.013299593 396.840721981 731.013299593 c 0
 470.620311706 731.013299593 509.409256101 682.700483844 509.409256101 616.840355583 c 0
 508.533602249 528.284003065 440.042628467 448.600171072 371.569335938 420 c 1
 395.885742188 390 l 1
 472.717015137 397.24450595 614.394982841 475.91939728 614.394982841 626.118272337 c 0
 614.394982841 726.301446121 536.460759683 790.728308585 422.06072104 790.728308585 c 0
 290.124989326 790.728308585 146.114355394 704.948436458 146.114355394 551.301322092 c 0
 146.114355394 339.66293246 461.427689679 375.691550906 461.427689679 207.556747772 c 0
EndSplineSet
EndChar

StartChar: nine
Encoding: 57 57 86
GlifName: uni0039
Width: 633
VWidth: 153
Flags: HMW
LayerCount: 5
Fore
SplineSet
389.106977781 625.854199581 m 0
 288.315415608 627.134959125 226.528571202 517.437516267 222.254962574 386.040679631 c 0
 222.254962574 285.062097812 280.738322145 247.623301619 348.12129556 247.623301619 c 0
 458.970433003 247.623301619 527.280149865 326.219519684 540.377929688 337 c 1
 537.966796875 336.501953125 559.055664062 300.748046875 556.834960938 300 c 1
 461.811847277 186.432496386 366.695312647 164.08008302 302.32875365 164.08008302 c 0
 210.470688547 164.08008302 102.132003078 223.658591981 102.132003078 369.999787537 c 0
 102.132003078 385.488625026 103.351801272 401.950787924 105.942382812 419.418945312 c 0
 126.747368039 555.521897379 238.159602317 686.013865511 415.795153137 686.013865511 c 0
 589.736272349 686.013865511 637.53037235 540.425394986 637.53037235 427.088811663 c 0
 637.53037235 102.339513658 419.886325639 -71.0319731972 221.84765625 -115.263671875 c 0
 196.393205977 -121.132454888 168.448043896 -125.414837892 142.222265382 -125.414837892 c 0
 132.9036209 -125.414837892 123.802057251 -124.874165474 115.106445312 -123.671875 c 1
 115.106445312 -73.0194035493 l 1
 382.604290457 -71.651334743 496.517408271 181.955457579 511.720703125 394.271484375 c 0
 512.264755675 405.178009897 512.537933147 415.771310722 512.537933147 426.035467688 c 0
 512.537933147 549.918354867 472.743625819 625.854199581 389.106977781 625.854199581 c 0
EndSplineSet
EndChar

StartChar: alpha
Encoding: 225 945 260
Width: 773
VWidth: 0
Flags: HMW
LayerCount: 5
Back
SplineSet
445.254882812 216.54296875 m 1
 395.362891128 114.366098923 321.649592959 -5.13914754142 186.368708052 -5.13914754142 c 0
 110.206446743 -5.13914754142 37.380749166 46.1669574624 37.380749166 190.675493406 c 0
 37.380749166 403.411623054 157.664622394 602.721679688 332.001953125 602.721679688 c 0
 421.897374556 602.721679688 479.995698097 534.338057298 486 419 c 1
 487.037072052 413.829239383 475.457404327 438.235263933 475.9765625 433.09375 c 1
 480.692602803 512.723591783 525.267099053 621.723590501 555.505859375 657.321289062 c 1
 603.107696776 654.263494448 635.602670392 631.452169123 656.556640625 602.682617188 c 1
 611.197451055 554.667665431 514.553710938 394.858858776 514.553710938 222.651367188 c 0
 514.553710938 114.167151398 544.380433355 66.166015625 623.877929688 66.166015625 c 0
 639.849494838 66.166015625 656.851915342 70.4263246736 674.927734375 79.3173828125 c 1
 689.25 50.873046875 l 1
 666.306875323 21.0991727252 601.668713715 -7.01748128001 546.162450901 -7.01748128001 c 0
 470.696586221 -7.01748128001 425.0703125 31.4045262934 425.0703125 118.004882812 c 0
 425.0703125 144.190045849 432.271186936 181.472499538 445.254882812 216.54296875 c 1
82.08984375 246.819335938 m 0
 82.08984375 147.71399999 137.340128595 98.5166015625 213.537109375 98.5166015625 c 0
 321.355240953 98.5166015625 431.922003841 220.306149284 456.387695312 348.087890625 c 0
 458.96908039 361.570194227 461.217019727 379.506889467 463.987304688 398.028320312 c 1
 456.025047825 462.738567511 385.189246856 501.026633659 319.858297813 501.026633659 c 0
 210.35540422 501.026633659 82.08984375 398.02096595 82.08984375 246.819335938 c 0
EndSplineSet
Fore
SplineSet
253.537109375 98.5166015625 m 0
 148.356445312 98.5166015625 97.08984375 158.713867188 97.08984375 277.819335938 c 0
 97.08984375 429.020507812 214.9609375 511.026367188 319.858398438 511.026367188 c 0
 415.189453125 511.026367188 474.836914062 448.575195312 483.987304688 358.028320312 c 0
 494.940429688 249.647460938 475.0703125 183.224609375 475.0703125 108.004882812 c 0
 475.0703125 21.404296875 520.696289062 -17.017578125 596.162109375 -17.017578125 c 0
 651.668945312 -17.017578125 726.306640625 21.099609375 749.25 50.873046875 c 1
 734.927734375 79.3173828125 l 1
 716.8515625 70.4267578125 679.849609375 66.166015625 663.877929688 66.166015625 c 0
 585.293945312 66.166015625 534.553710938 114.166992188 534.553710938 222.651367188 c 0
 534.553710938 326 533.842773438 612.721679688 332.001953125 612.721679688 c 0
 157.665039062 612.721679688 37.380859375 413.412109375 37.380859375 200.67578125 c 0
 37.380859375 66.1669921875 118.094726562 -5.138671875 209.369140625 -5.138671875 c 0
 435.5859375 -5.138671875 613.887695312 307.268554688 664 557 c 0
 668.983398438 581.833984375 676 627 676 627 c 1
 579 612 l 1
 579 612 554.68359375 390.124023438 502.05859375 279.893554688 c 0
 454.37602931 180.015712799 350.620117188 98.5166015625 253.537109375 98.5166015625 c 0
EndSplineSet
EndChar

StartChar: epsilon
Encoding: 229 949 264
Width: 507
VWidth: 0
Flags: HMW
LayerCount: 5
Fore
SplineSet
279.492046912 75.4494097859 m 0
 154.331456408 75.4494097859 113.963867188 133.212890625 113.963867188 188.06640625 c 0
 113.963867188 236.622070312 173.930664062 267.032226562 189 267 c 5
 234.563476562 257.4609375 290.465820312 257.638671875 342 265 c 1
 352 307 l 1
 235.849609375 306.754882812 150.524414062 345.543219946 150.524414062 427.822265625 c 0
 150.524414062 522.041015625 233.22265625 557.703125 348.96484375 557.703125 c 0
 381.309570312 557.703125 426.889648438 553.892578125 465 544 c 1
 475 590 l 1
 412.767578125 607.326171875 366.205078125 616.296875 304.243164062 616.296875 c 0
 192.909179688 616.296875 57.96875 564.444335938 57.96875 415.791992188 c 0
 57.96875 359.939471771 92.0048828125 297.543945312 152 273 c 1
 148.4375 270.840820312 146.87890625 304.1328125 142.546875 304.1328125 c 0
 98.9189453125 304.1328125 46.08203125 245.754882812 44.08203125 173.857421875 c 0
 41.6990241307 88.1913412396 109.418945312 -10.908203125 248.342773438 -10.908203125 c 0
 332.809570312 -10.908203125 415.30464573 23.1507865196 475 76 c 1
 461 125 l 1
 400.976774614 93.8453669015 331.691679594 75.4494097859 279.492046912 75.4494097859 c 0
EndSplineSet
EndChar

StartChar: eta
Encoding: 231 951 266
Width: 682
VWidth: 0
Flags: HMW
LayerCount: 5
Fore
SplineSet
139.767434902 601.335923384 m 0
 74.08719766 601.335923384 17.9458519268 568.21409708 -4 547 c 1
 9 513 l 1
 24.6134072934 516.227364828 38.6520145172 517.865211083 51.2477046618 517.865211083 c 0
 127.017997611 517.865211083 150.622136429 458.218326471 150.622136429 329.819670859 c 0
 150.622136429 201.971828167 114.058035781 35.2809714801 105 0 c 1
 107.640310034 0.0472659172184 110.96429538 0.0660090892002 114.802562741 0.0660090892002 c 0
 129.51512808 0.0660090892002 151.78396746 -0.209381727167 172.068918505 -0.209381727167 c 0
 181.042892014 -0.209381727167 189.62859103 -0.155483920529 197 0 c 1
 197.549804688 39.03125 231.175241763 286.938718001 231.859375 331 c 0
 232.978510698 403.077412619 297.146699945 510.012031918 413.750997668 510.012031918 c 0
 498.761637271 510.012031918 536.145250009 424.314339542 536.145250009 269.021353812 c 0
 536.145250009 4.84304016454 470.243294972 -158.959776682 427.926757812 -326 c 1
 545 -306 l 1
 563.142755788 -288.069690482 613.091257181 79.4925174495 613.091257181 324.421981992 c 0
 613.091257181 386.857659997 609.84557448 441.324590938 602 480 c 0
 585.455511205 561.558050074 536.052229968 611.018095195 459.230553489 611.018095195 c 0
 448.363853905 611.018095195 436.948536648 610.028443737 425 608 c 0
 360.154602851 596.991518914 234.791992188 491.831054688 198 372 c 1
 195.09765625 367.66796875 234.72265625 412.522460938 232 408 c 5
 229.928928105 500.597938827 238.899180726 601.335923384 139.767434902 601.335923384 c 0
EndSplineSet
EndChar

StartChar: iota
Encoding: 233 953 268
Width: 419
VWidth: 0
Flags: HMW
LayerCount: 5
Fore
SplineSet
265.599997893 -29.333414693 m 0
 326.712382588 -29.333414693 372.584336994 13.7228960789 393 35 c 1
 380 79 l 1
 362.82084594 77.4859672758 347.513325566 76.682858036 333.847172519 76.682858036 c 0
 234.067215704 76.682858036 221.785605621 119.495170422 207.37890625 241 c 0
 203.32502013 275.190935782 201.757376494 310.444626949 201.757376494 345.010097493 c 0
 201.757376494 465.195653154 220.709895838 577.060749769 220 607 c 1
 200.947265625 606.07421875 126.368164062 588.796875 95 587 c 5
 114.46875 458.456054688 115.947541878 352.841107411 119.703772922 200.000003133 c 0
 122.468698037 87.4951537519 144.633303852 -29.333414693 265.599997893 -29.333414693 c 0
EndSplineSet
EndChar

